<svg width="197" height="44" viewBox="0 0 197 44" fill="none" xmlns="http://www.w3.org/2000/svg">
<path d="M22 13.9126C22 13.4298 21.6671 13.0107 21.1968 12.9013L3.97758 8.89832C3.32655 8.74697 2.70421 9.24124 2.70421 9.90962V16.9628C2.70421 17.4456 3.03707 17.8648 3.50738 17.9741L20.7266 21.9771C21.3777 22.1284 22 21.6342 22 20.9658V13.9126Z" fill="#635BFF"/>
<path d="M22.0273 31.9505C22.0273 31.4676 21.6945 31.0485 21.2242 30.9392L4.00492 26.9362C3.3539 26.7848 2.73155 27.2791 2.73155 27.9475V35.0006C2.73155 35.4835 3.06441 35.9026 3.53472 36.0119L20.754 40.0149C21.405 40.1663 22.0273 39.672 22.0273 39.0036V31.9505Z" fill="#635BFF"/>
<path d="M41.2969 8.99978C41.2969 8.51693 40.964 8.09781 40.4937 7.98848L23.2745 3.98548C22.6234 3.83413 22.0011 4.32839 22.0011 4.99678V12.05C22.0011 12.5328 22.3339 12.9519 22.8043 13.0613L40.0235 17.0643C40.6745 17.2156 41.2969 16.7213 41.2969 16.053V8.99978Z" fill="#635BFF"/>
<path d="M41.2969 26.8404C41.2969 26.3575 40.964 25.9384 40.4937 25.8291L23.2745 21.8261C22.6234 21.6747 22.0011 22.169 22.0011 22.8374V29.8905C22.0011 30.3734 22.3339 30.7925 22.8043 30.9018L40.0235 34.9048C40.6745 35.0562 41.2969 34.5619 41.2969 33.8935V26.8404Z" fill="#635BFF"/>
<path d="M57.608 30.5V13.7H68.552V16.316H60.848V20.804H67.04V23.348H60.848V30.5H57.608ZM75.2896 30.788C74.2976 30.788 73.4496 30.58 72.7456 30.164C72.0576 29.748 71.5296 29.132 71.1616 28.316C70.8096 27.484 70.6336 26.468 70.6336 25.268V18.596H73.8496V24.98C73.8496 25.972 74.0496 26.732 74.4496 27.26C74.8496 27.788 75.4816 28.052 76.3456 28.052C76.9056 28.052 77.4016 27.924 77.8336 27.668C78.2656 27.396 78.6016 27.02 78.8416 26.54C79.0816 26.044 79.2016 25.444 79.2016 24.74V18.596H82.4416V30.5H79.5856L79.3456 28.508C78.9616 29.196 78.4256 29.748 77.7376 30.164C77.0496 30.58 76.2336 30.788 75.2896 30.788ZM85.5678 30.5V18.596H88.4238L88.6638 20.588C89.0318 19.9 89.5598 19.348 90.2478 18.932C90.9358 18.516 91.7598 18.308 92.7198 18.308C93.7118 18.308 94.5518 18.524 95.2398 18.956C95.9278 19.372 96.4558 19.988 96.8238 20.804C97.1918 21.62 97.3758 22.628 97.3758 23.828V30.5H94.1358V24.116C94.1358 23.124 93.9358 22.364 93.5358 21.836C93.1358 21.308 92.5038 21.044 91.6398 21.044C91.0958 21.044 90.6078 21.18 90.1758 21.452C89.7438 21.708 89.4078 22.084 89.1678 22.58C88.9278 23.06 88.8078 23.652 88.8078 24.356V30.5H85.5678ZM105.782 30.788C104.678 30.788 103.678 30.516 102.782 29.972C101.902 29.428 101.206 28.684 100.694 27.74C100.182 26.78 99.926 25.708 99.926 24.524C99.926 23.324 100.182 22.26 100.694 21.332C101.206 20.388 101.902 19.652 102.782 19.124C103.678 18.58 104.678 18.308 105.782 18.308C106.662 18.308 107.43 18.476 108.086 18.812C108.758 19.132 109.294 19.58 109.694 20.156V13.22H112.934V30.5H110.054L109.694 28.844C109.454 29.196 109.15 29.524 108.782 29.828C108.43 30.116 108.006 30.348 107.51 30.524C107.014 30.7 106.438 30.788 105.782 30.788ZM106.502 27.956C107.142 27.956 107.71 27.812 108.206 27.524C108.702 27.22 109.086 26.812 109.358 26.3C109.646 25.788 109.79 25.204 109.79 24.548C109.79 23.876 109.646 23.284 109.358 22.772C109.086 22.26 108.702 21.86 108.206 21.572C107.71 21.284 107.142 21.14 106.502 21.14C105.878 21.14 105.31 21.284 104.798 21.572C104.302 21.86 103.918 22.26 103.646 22.772C103.374 23.284 103.238 23.868 103.238 24.524C103.238 25.196 103.374 25.788 103.646 26.3C103.918 26.812 104.302 27.22 104.798 27.524C105.31 27.812 105.878 27.956 106.502 27.956ZM121.004 30.788C119.948 30.788 119.012 30.612 118.196 30.26C117.396 29.908 116.748 29.428 116.252 28.82C115.772 28.196 115.492 27.492 115.412 26.708H118.652C118.716 26.996 118.852 27.268 119.06 27.524C119.268 27.764 119.532 27.956 119.852 28.1C120.172 28.244 120.54 28.316 120.956 28.316C121.404 28.316 121.756 28.26 122.012 28.148C122.284 28.02 122.484 27.86 122.612 27.668C122.756 27.46 122.828 27.252 122.828 27.044C122.828 26.724 122.724 26.484 122.516 26.324C122.324 26.148 122.044 26.004 121.676 25.892C121.308 25.78 120.868 25.66 120.356 25.532C119.828 25.404 119.292 25.26 118.748 25.1C118.22 24.94 117.732 24.74 117.284 24.5C116.836 24.244 116.476 23.924 116.204 23.54C115.932 23.156 115.796 22.668 115.796 22.076C115.796 21.372 115.988 20.74 116.372 20.18C116.772 19.604 117.332 19.148 118.052 18.812C118.788 18.476 119.66 18.308 120.668 18.308C122.108 18.308 123.252 18.636 124.1 19.292C124.964 19.948 125.468 20.852 125.612 22.004H122.564C122.484 21.62 122.276 21.324 121.94 21.116C121.62 20.908 121.196 20.804 120.668 20.804C120.108 20.804 119.676 20.908 119.372 21.116C119.084 21.324 118.94 21.58 118.94 21.884C118.94 22.108 119.044 22.3 119.252 22.46C119.46 22.62 119.748 22.764 120.116 22.892C120.5 23.004 120.94 23.116 121.436 23.228C122.3 23.436 123.076 23.66 123.764 23.9C124.452 24.124 125.004 24.46 125.42 24.908C125.852 25.356 126.068 26.012 126.068 26.876C126.084 27.612 125.884 28.276 125.468 28.868C125.052 29.46 124.468 29.932 123.716 30.284C122.964 30.62 122.06 30.788 121.004 30.788ZM128.763 35.78V18.596H131.643L132.003 20.252C132.259 19.9 132.563 19.58 132.915 19.292C133.267 18.988 133.691 18.748 134.187 18.572C134.683 18.396 135.259 18.308 135.915 18.308C137.035 18.308 138.027 18.58 138.891 19.124C139.771 19.668 140.467 20.412 140.979 21.356C141.491 22.3 141.747 23.372 141.747 24.572C141.747 25.756 141.491 26.82 140.979 27.764C140.467 28.708 139.771 29.452 138.891 29.996C138.027 30.524 137.035 30.788 135.915 30.788C135.035 30.788 134.267 30.628 133.611 30.308C132.955 29.972 132.419 29.516 132.003 28.94V35.78H128.763ZM135.195 27.956C135.819 27.956 136.379 27.812 136.875 27.524C137.371 27.236 137.755 26.836 138.027 26.324C138.315 25.812 138.459 25.228 138.459 24.572C138.459 23.9 138.315 23.308 138.027 22.796C137.755 22.284 137.371 21.884 136.875 21.596C136.379 21.292 135.819 21.14 135.195 21.14C134.555 21.14 133.987 21.292 133.491 21.596C132.995 21.884 132.603 22.284 132.315 22.796C132.043 23.308 131.907 23.892 131.907 24.548C131.907 25.204 132.043 25.796 132.315 26.324C132.603 26.836 132.995 27.236 133.491 27.524C133.987 27.812 134.555 27.956 135.195 27.956ZM144.513 30.5V13.22H147.753V20.372C148.137 19.748 148.665 19.252 149.337 18.884C150.009 18.5 150.793 18.308 151.689 18.308C152.681 18.308 153.521 18.524 154.209 18.956C154.897 19.372 155.417 19.988 155.769 20.804C156.137 21.62 156.321 22.628 156.321 23.828V30.5H153.105V24.116C153.105 23.124 152.905 22.364 152.505 21.836C152.121 21.308 151.489 21.044 150.609 21.044C150.065 21.044 149.577 21.18 149.145 21.452C148.713 21.708 148.369 22.084 148.113 22.58C147.873 23.06 147.753 23.652 147.753 24.356V30.5H144.513ZM165.087 30.788C163.871 30.788 162.791 30.532 161.847 30.02C160.919 29.508 160.191 28.788 159.663 27.86C159.135 26.932 158.871 25.868 158.871 24.668C158.871 23.42 159.127 22.324 159.639 21.38C160.167 20.42 160.895 19.668 161.823 19.124C162.767 18.58 163.863 18.308 165.111 18.308C166.295 18.308 167.335 18.564 168.231 19.076C169.143 19.588 169.847 20.292 170.343 21.188C170.855 22.068 171.111 23.068 171.111 24.188C171.111 24.348 171.111 24.532 171.111 24.74C171.111 24.932 171.095 25.132 171.063 25.34H161.199V23.348H167.823C167.775 22.628 167.495 22.044 166.983 21.596C166.487 21.148 165.863 20.924 165.111 20.924C164.551 20.924 164.039 21.052 163.575 21.308C163.111 21.548 162.743 21.916 162.471 22.412C162.199 22.908 162.063 23.532 162.063 24.284V24.98C162.063 25.62 162.191 26.18 162.447 26.66C162.703 27.14 163.055 27.508 163.503 27.764C163.967 28.02 164.487 28.148 165.063 28.148C165.655 28.148 166.151 28.02 166.551 27.764C166.951 27.492 167.255 27.148 167.463 26.732H170.775C170.535 27.484 170.151 28.172 169.623 28.796C169.095 29.404 168.447 29.892 167.679 30.26C166.911 30.612 166.047 30.788 165.087 30.788ZM173.693 30.5V18.596H176.573L176.885 20.828C177.173 20.316 177.525 19.876 177.941 19.508C178.373 19.124 178.861 18.828 179.405 18.62C179.965 18.412 180.573 18.308 181.229 18.308V21.74H180.341C179.845 21.74 179.381 21.796 178.949 21.908C178.533 22.02 178.173 22.204 177.869 22.46C177.565 22.716 177.333 23.068 177.173 23.516C177.013 23.948 176.933 24.5 176.933 25.172V30.5H173.693ZM188.97 30.788C187.754 30.788 186.674 30.532 185.73 30.02C184.802 29.508 184.074 28.788 183.546 27.86C183.018 26.932 182.754 25.868 182.754 24.668C182.754 23.42 183.01 22.324 183.522 21.38C184.05 20.42 184.778 19.668 185.706 19.124C186.65 18.58 187.746 18.308 188.994 18.308C190.178 18.308 191.218 18.564 192.114 19.076C193.026 19.588 193.73 20.292 194.226 21.188C194.738 22.068 194.994 23.068 194.994 24.188C194.994 24.348 194.994 24.532 194.994 24.74C194.994 24.932 194.978 25.132 194.946 25.34H185.082V23.348H191.706C191.658 22.628 191.378 22.044 190.866 21.596C190.37 21.148 189.746 20.924 188.994 20.924C188.434 20.924 187.922 21.052 187.458 21.308C186.994 21.548 186.626 21.916 186.354 22.412C186.082 22.908 185.946 23.532 185.946 24.284V24.98C185.946 25.62 186.074 26.18 186.33 26.66C186.586 27.14 186.938 27.508 187.386 27.764C187.85 28.02 188.37 28.148 188.946 28.148C189.538 28.148 190.034 28.02 190.434 27.764C190.834 27.492 191.138 27.148 191.346 26.732H194.658C194.418 27.484 194.034 28.172 193.506 28.796C192.978 29.404 192.33 29.892 191.562 30.26C190.794 30.612 189.93 30.788 188.97 30.788Z" fill="#00112D"/>
</svg>
