<svg width="44" height="44" viewBox="0 0 44 44" fill="none" xmlns="http://www.w3.org/2000/svg">
<path d="M22 13.9126C22 13.4298 21.6671 13.0107 21.1968 12.9013L3.97758 8.89832C3.32655 8.74697 2.70421 9.24124 2.70421 9.90962V16.9628C2.70421 17.4456 3.03707 17.8648 3.50738 17.9741L20.7266 21.9771C21.3777 22.1284 22 21.6342 22 20.9658V13.9126Z" fill="#635BFF"/>
<path d="M22.0273 31.9505C22.0273 31.4676 21.6945 31.0485 21.2242 30.9392L4.00492 26.9362C3.3539 26.7848 2.73155 27.2791 2.73155 27.9475V35.0006C2.73155 35.4835 3.06441 35.9026 3.53472 36.0119L20.754 40.0149C21.405 40.1663 22.0273 39.672 22.0273 39.0036V31.9505Z" fill="#635BFF"/>
<path d="M41.2969 8.99978C41.2969 8.51693 40.964 8.09781 40.4937 7.98848L23.2745 3.98548C22.6234 3.83413 22.0011 4.32839 22.0011 4.99678V12.05C22.0011 12.5328 22.3339 12.9519 22.8043 13.0613L40.0235 17.0643C40.6745 17.2156 41.2969 16.7213 41.2969 16.053V8.99978Z" fill="#635BFF"/>
<path d="M41.2969 26.8404C41.2969 26.3575 40.964 25.9384 40.4937 25.8291L23.2745 21.8261C22.6234 21.6747 22.0011 22.169 22.0011 22.8374V29.8905C22.0011 30.3734 22.3339 30.7925 22.8043 30.9018L40.0235 34.9048C40.6745 35.0562 41.2969 34.5619 41.2969 33.8935V26.8404Z" fill="#635BFF"/>
</svg>
