<svg width="104" height="41" viewBox="0 0 104 41" fill="none" xmlns="http://www.w3.org/2000/svg">
<g clip-path="url(#clip0_13001_870)">
<path fill-rule="evenodd" clip-rule="evenodd" d="M64.4192 33.499C58.3956 37.9336 49.6649 40.2997 42.1479 40.2997C31.6078 40.2997 22.119 36.4059 14.9404 29.9297C14.3764 29.4205 14.8817 28.7264 15.5585 29.123C23.3057 33.6252 32.8847 36.3338 42.7795 36.3338C49.4528 36.3338 56.7938 34.9547 63.5438 32.0929C64.5635 31.6603 65.4163 32.7599 64.4192 33.499Z" fill="#A6AEBB"/>
<path fill-rule="evenodd" clip-rule="evenodd" d="M66.9218 30.6376C66.1548 29.6552 61.8323 30.1734 59.8921 30.4033C59.301 30.4754 59.2108 29.9616 59.7432 29.5921C63.1859 27.172 68.8349 27.8705 69.4937 28.6817C70.1524 29.4974 69.3222 35.1534 66.0871 37.8529C65.5908 38.2675 65.117 38.0467 65.3381 37.4968C66.0645 35.6851 67.6934 31.6246 66.9218 30.6376Z" fill="#A6AEBB"/>
<path fill-rule="evenodd" clip-rule="evenodd" d="M60.0278 12.5062V10.1537C60.0278 9.79769 60.2986 9.55884 60.6234 9.55884H71.168C71.5064 9.55884 71.7771 9.8022 71.7771 10.1537V12.1682C71.7726 12.5062 71.4883 12.9479 70.983 13.6464L65.5189 21.4385C67.5494 21.389 69.6926 21.6909 71.5335 22.7275C71.9486 22.9618 72.0614 23.3043 72.093 23.6423V26.1526C72.093 26.4951 71.7139 26.8962 71.3169 26.6889C68.0727 24.9898 63.7638 24.805 60.1767 26.7069C59.8113 26.9052 59.4277 26.5086 59.4277 26.1661V23.782C59.4277 23.399 59.4322 22.7455 59.8158 22.1641L66.1461 13.0966H60.637C60.2985 13.0966 60.0278 12.8578 60.0278 12.5062Z" fill="#A6AEBB"/>
<path fill-rule="evenodd" clip-rule="evenodd" d="M21.5633 27.1858H18.3553C18.0484 27.1632 17.8048 26.9334 17.7822 26.6404V10.1955C17.7822 9.86647 18.0575 9.60507 18.4004 9.60507H21.3918C21.7032 9.61859 21.9513 9.85745 21.9739 10.1549V12.3046H22.0325C22.8131 10.227 24.2795 9.25806 26.2558 9.25806C28.2636 9.25806 29.518 10.227 30.4204 12.3046C31.1964 10.227 32.9606 9.25806 34.8512 9.25806C36.1958 9.25806 37.6667 9.81238 38.5646 11.0562C39.5798 12.4398 39.3722 14.4498 39.3722 16.2119L39.3677 26.5909C39.3677 26.9199 39.0925 27.1858 38.7496 27.1858H35.546C35.2257 27.1632 34.9685 26.9063 34.9685 26.5909V17.8749C34.9685 17.1809 35.0317 15.4503 34.8783 14.7923C34.6391 13.6882 33.9217 13.3772 32.9922 13.3772C32.2162 13.3772 31.404 13.8955 31.0746 14.7247C30.7452 15.5539 30.7768 16.942 30.7768 17.8749V26.5909C30.7768 26.9199 30.5016 27.1858 30.1587 27.1858H26.9552C26.6303 27.1632 26.3776 26.9063 26.3776 26.5909L26.3731 17.8749C26.3731 16.0407 26.6754 13.3411 24.3968 13.3411C22.0912 13.3411 22.1814 15.9731 22.1814 17.8749V26.5909C22.1814 26.9199 21.9062 27.1858 21.5633 27.1858" fill="#A6AEBB"/>
<path fill-rule="evenodd" clip-rule="evenodd" d="M80.855 9.25806C85.6151 9.25806 88.1915 13.3411 88.1915 18.5329C88.1915 23.5488 85.3444 27.5283 80.855 27.5283C76.1805 27.5283 73.6357 23.4452 73.6357 18.3571C73.6357 13.2375 76.2121 9.25806 80.855 9.25806ZM80.882 12.6156C78.5177 12.6156 78.3688 15.8333 78.3688 17.8388C78.3688 19.8488 78.3373 24.1392 80.855 24.1392C83.3411 24.1392 83.4584 20.6781 83.4584 18.5689C83.4584 17.1809 83.3997 15.5224 82.9801 14.2064C82.6192 13.0617 81.9017 12.6156 80.882 12.6156Z" fill="#A6AEBB"/>
<path fill-rule="evenodd" clip-rule="evenodd" d="M94.3664 27.1858H91.1719C90.8515 27.1632 90.5943 26.9063 90.5943 26.5909L90.5898 10.1414C90.6169 9.83942 90.8831 9.60507 91.208 9.60507H94.1814C94.4611 9.61859 94.6913 9.80788 94.7544 10.0648V12.5795H94.8131C95.711 10.3307 96.9698 9.25806 99.1852 9.25806C100.625 9.25806 102.028 9.77633 102.93 11.1959C103.769 12.5119 103.769 14.7247 103.769 16.3156V26.6675C103.733 26.9559 103.467 27.1858 103.151 27.1858H99.9342C99.6409 27.1632 99.3973 26.9469 99.3657 26.6675V17.7352C99.3657 15.937 99.5733 13.3051 97.3579 13.3051C96.5773 13.3051 95.8599 13.8279 95.5034 14.621C95.0522 15.626 94.9936 16.6265 94.9936 17.7352V26.5909C94.9891 26.9199 94.7093 27.1858 94.3664 27.1858" fill="#A6AEBB"/>
<path fill-rule="evenodd" clip-rule="evenodd" d="M51.6226 19.3301C51.6226 20.5785 51.6542 21.6195 51.0225 22.7282C50.5126 23.6295 49.7005 24.1838 48.8026 24.1838C47.5708 24.1838 46.8489 23.2464 46.8489 21.8629C46.8489 19.1318 49.2989 18.6361 51.6226 18.6361V19.3301ZM54.8577 27.1402C54.6456 27.3295 54.3388 27.343 54.0997 27.2168C53.0349 26.3335 52.8408 25.9234 52.2588 25.0807C50.4991 26.8743 49.2493 27.4106 46.9707 27.4106C44.268 27.4106 42.1699 25.7477 42.1699 22.4172C42.1699 19.8168 43.5777 18.0457 45.59 17.1804C47.3317 16.4143 49.7636 16.2791 51.6226 16.0672V15.6526C51.6226 14.891 51.6812 13.9896 51.23 13.3317C50.842 12.7413 50.093 12.4979 49.4298 12.4979C48.207 12.4979 47.1196 13.1243 46.8534 14.4223C46.7992 14.7107 46.5872 14.9946 46.2939 15.0082L43.1851 14.6747C42.9234 14.6161 42.6301 14.4043 42.7069 14.0032C43.4197 10.2355 46.8308 9.09985 49.881 9.09985C51.4421 9.09985 53.4815 9.51447 54.7133 10.6952C56.2745 12.1509 56.1256 14.0933 56.1256 16.2069V21.2004C56.1256 22.7011 56.7482 23.3591 57.3348 24.1703C57.5378 24.4587 57.583 24.8058 57.3213 25.0221C56.667 25.5674 55.5029 26.5814 54.8622 27.1492L54.8577 27.1402" fill="#A6AEBB"/>
<path fill-rule="evenodd" clip-rule="evenodd" d="M9.56497 19.3301C9.56497 20.5785 9.59656 21.6195 8.96488 22.7282C8.45502 23.6295 7.64737 24.1838 6.74496 24.1838C5.51318 24.1838 4.79577 23.2464 4.79577 21.8629C4.79577 19.1318 7.2458 18.6361 9.56497 18.6361V19.3301ZM12.8001 27.1402C12.588 27.3295 12.2812 27.343 12.0421 27.2168C10.9772 26.3335 10.7877 25.9234 10.2012 25.0807C8.44148 26.8743 7.19617 27.4106 4.91309 27.4106C2.2149 27.4106 0.112305 25.7477 0.112305 22.4172C0.112305 19.8168 1.52456 18.0457 3.53241 17.1804C5.27405 16.4142 7.70602 16.2791 9.56497 16.0672V15.6526C9.56497 14.891 9.62363 13.9896 9.17694 13.3317C8.78439 12.7413 8.0354 12.4979 7.37665 12.4979C6.15389 12.4979 5.06198 13.1243 4.79577 14.4223C4.74163 14.7107 4.52956 14.9946 4.2408 15.0082L1.12751 14.6747C0.865811 14.6161 0.577041 14.4043 0.649234 14.0032C1.36664 10.2355 4.77321 9.09985 7.82334 9.09985C9.38449 9.09985 11.4239 9.51447 12.6557 10.6952C14.2169 12.1509 14.068 14.0933 14.068 16.2069V21.2004C14.068 22.7011 14.6906 23.3591 15.2772 24.1703C15.4847 24.4587 15.5299 24.8058 15.2682 25.0221C14.6139 25.5674 13.4498 26.5814 12.8091 27.1492L12.8001 27.1402" fill="#A6AEBB"/>
</g>
<defs>
<clipPath id="clip0_13001_870">
<rect width="102.7" height="40.3" fill="white" transform="translate(0.530273)"/>
</clipPath>
</defs>
</svg>
