<svg width="379" height="343" viewBox="0 0 379 343" fill="none" xmlns="http://www.w3.org/2000/svg">
<g clip-path="url(#clip0_13001_1278)">
<rect y="0.299805" width="379" height="342" rx="16" fill="#00112D"/>
<path d="M77.5649 147.58H80.2449V154.82H77.5649V147.58ZM77.9249 146.94V125.06L79.8449 124.62V147.02L77.9249 146.94ZM77.5649 117.54H80.2449V124.14L77.5649 124.54V117.54ZM86.4049 129.18C86.2183 128.993 85.8716 128.74 85.3649 128.42C84.8849 128.1 84.2849 127.793 83.5649 127.5C82.8716 127.206 82.1116 126.953 81.2849 126.74C80.4583 126.5 79.6183 126.38 78.7649 126.38C77.2716 126.38 76.1383 126.66 75.3649 127.22C74.6183 127.78 74.2449 128.566 74.2449 129.58C74.2449 130.353 74.4849 130.966 74.9649 131.42C75.4449 131.873 76.1649 132.26 77.1249 132.58C78.0849 132.9 79.2849 133.246 80.7249 133.62C82.5916 134.073 84.2049 134.633 85.5649 135.3C86.9516 135.94 88.0049 136.793 88.7249 137.86C89.4716 138.9 89.8449 140.286 89.8449 142.02C89.8449 143.54 89.5649 144.846 89.0049 145.94C88.4449 147.006 87.6716 147.873 86.6849 148.54C85.6983 149.206 84.5649 149.7 83.2849 150.02C82.0316 150.313 80.7116 150.46 79.3249 150.46C77.9116 150.46 76.4849 150.313 75.0449 150.02C73.6316 149.726 72.2716 149.313 70.9649 148.78C69.6849 148.22 68.4983 147.553 67.4049 146.78L69.8449 142.02C70.0849 142.26 70.5116 142.58 71.1249 142.98C71.7383 143.353 72.4716 143.74 73.3249 144.14C74.2049 144.513 75.1649 144.833 76.2049 145.1C77.2716 145.366 78.3383 145.5 79.4049 145.5C80.8983 145.5 82.0316 145.246 82.8049 144.74C83.5783 144.233 83.9649 143.513 83.9649 142.58C83.9649 141.726 83.6583 141.06 83.0449 140.58C82.4316 140.1 81.5649 139.686 80.4449 139.34C79.3516 138.966 78.0716 138.566 76.6049 138.14C74.7916 137.633 73.2849 137.073 72.0849 136.46C70.8849 135.82 69.9916 135.02 69.4049 134.06C68.8183 133.1 68.5249 131.9 68.5249 130.46C68.5249 128.513 68.9916 126.886 69.9249 125.58C70.8583 124.246 72.1116 123.246 73.6849 122.58C75.2583 121.886 77.0049 121.54 78.9249 121.54C80.2583 121.54 81.5116 121.686 82.6849 121.98C83.8849 122.273 85.0049 122.66 86.0449 123.14C87.0849 123.62 88.0183 124.14 88.8449 124.7L86.4049 129.18Z" fill="#A38CFF"/>
<path d="M299.588 147.58H302.268V154.82H299.588V147.58ZM299.948 146.94V125.06L301.868 124.62V147.02L299.948 146.94ZM299.588 117.54H302.268V124.14L299.588 124.54V117.54ZM308.428 129.18C308.242 128.993 307.895 128.74 307.388 128.42C306.908 128.1 306.308 127.793 305.588 127.5C304.895 127.206 304.135 126.953 303.308 126.74C302.482 126.5 301.642 126.38 300.788 126.38C299.295 126.38 298.162 126.66 297.388 127.22C296.642 127.78 296.268 128.566 296.268 129.58C296.268 130.353 296.508 130.966 296.988 131.42C297.468 131.873 298.188 132.26 299.148 132.58C300.108 132.9 301.308 133.246 302.748 133.62C304.615 134.073 306.228 134.633 307.588 135.3C308.975 135.94 310.028 136.793 310.748 137.86C311.495 138.9 311.868 140.286 311.868 142.02C311.868 143.54 311.588 144.846 311.028 145.94C310.468 147.006 309.695 147.873 308.708 148.54C307.722 149.206 306.588 149.7 305.308 150.02C304.055 150.313 302.735 150.46 301.348 150.46C299.935 150.46 298.508 150.313 297.068 150.02C295.655 149.726 294.295 149.313 292.988 148.78C291.708 148.22 290.522 147.553 289.428 146.78L291.868 142.02C292.108 142.26 292.535 142.58 293.148 142.98C293.762 143.353 294.495 143.74 295.348 144.14C296.228 144.513 297.188 144.833 298.228 145.1C299.295 145.366 300.362 145.5 301.428 145.5C302.922 145.5 304.055 145.246 304.828 144.74C305.602 144.233 305.988 143.513 305.988 142.58C305.988 141.726 305.682 141.06 305.068 140.58C304.455 140.1 303.588 139.686 302.468 139.34C301.375 138.966 300.095 138.566 298.628 138.14C296.815 137.633 295.308 137.073 294.108 136.46C292.908 135.82 292.015 135.02 291.428 134.06C290.842 133.1 290.548 131.9 290.548 130.46C290.548 128.513 291.015 126.886 291.948 125.58C292.882 124.246 294.135 123.246 295.708 122.58C297.282 121.886 299.028 121.54 300.948 121.54C302.282 121.54 303.535 121.686 304.708 121.98C305.908 122.273 307.028 122.66 308.068 123.14C309.108 123.62 310.042 124.14 310.868 124.7L308.428 129.18Z" fill="#A38CFF"/>
<circle cx="189.5" cy="321.8" r="140.5" fill="#A38CFF"/>
<rect x="219.727" y="41.9194" width="32" height="120" transform="rotate(44 219.727 41.9194)" fill="#E7D6FF"/>
<rect x="135.225" y="65.9702" width="32" height="120" transform="rotate(-46 135.225 65.9702)" fill="#E7D6FF"/>
</g>
<defs>
<clipPath id="clip0_13001_1278">
<rect y="0.299805" width="379" height="342" rx="16" fill="white"/>
</clipPath>
</defs>
</svg>
