<svg width="369" height="258" viewBox="0 0 369 258" fill="none" xmlns="http://www.w3.org/2000/svg">
<rect x="0.125977" width="368.812" height="258" rx="24" fill="white"/>
<rect x="23.439" y="164.5" width="13" height="13" rx="3.5" stroke="#E7E9EF"/>
<path d="M47.959 168.39C47.879 168.297 47.7723 168.207 47.639 168.12C47.5056 168.033 47.3556 167.957 47.189 167.89C47.0223 167.817 46.839 167.76 46.639 167.72C46.4456 167.673 46.2423 167.65 46.029 167.65C45.4823 167.65 45.079 167.753 44.819 167.96C44.559 168.167 44.429 168.45 44.429 168.81C44.429 169.063 44.4956 169.263 44.629 169.41C44.7623 169.557 44.9656 169.677 45.239 169.77C45.519 169.863 45.8723 169.96 46.299 170.06C46.7923 170.167 47.219 170.297 47.579 170.45C47.939 170.603 48.2156 170.81 48.409 171.07C48.6023 171.323 48.699 171.663 48.699 172.09C48.699 172.43 48.6323 172.727 48.499 172.98C48.3723 173.227 48.1923 173.433 47.959 173.6C47.7256 173.76 47.4523 173.88 47.139 173.96C46.8256 174.033 46.4856 174.07 46.119 174.07C45.759 174.07 45.4056 174.033 45.059 173.96C44.719 173.88 44.3956 173.767 44.089 173.62C43.7823 173.473 43.4956 173.29 43.229 173.07L43.659 172.31C43.7656 172.423 43.9023 172.537 44.069 172.65C44.2423 172.757 44.4356 172.857 44.649 172.95C44.869 173.043 45.1056 173.12 45.359 173.18C45.6123 173.233 45.8723 173.26 46.139 173.26C46.6456 173.26 47.039 173.17 47.319 172.99C47.599 172.803 47.739 172.533 47.739 172.18C47.739 171.913 47.659 171.7 47.499 171.54C47.3456 171.38 47.1156 171.247 46.809 171.14C46.5023 171.033 46.129 170.927 45.689 170.82C45.209 170.7 44.8056 170.57 44.479 170.43C44.1523 170.283 43.9056 170.093 43.739 169.86C43.579 169.627 43.499 169.323 43.499 168.95C43.499 168.497 43.609 168.113 43.829 167.8C44.049 167.487 44.3523 167.25 44.739 167.09C45.1256 166.93 45.5623 166.85 46.049 166.85C46.369 166.85 46.6656 166.883 46.939 166.95C47.219 167.017 47.479 167.11 47.719 167.23C47.959 167.35 48.179 167.493 48.379 167.66L47.959 168.39ZM49.3327 172.49C49.3327 172.157 49.426 171.87 49.6127 171.63C49.806 171.383 50.0694 171.193 50.4027 171.06C50.736 170.927 51.1227 170.86 51.5627 170.86C51.796 170.86 52.0427 170.88 52.3027 170.92C52.5627 170.953 52.7927 171.007 52.9927 171.08V170.7C52.9927 170.3 52.8727 169.987 52.6327 169.76C52.3927 169.527 52.0527 169.41 51.6127 169.41C51.326 169.41 51.0494 169.463 50.7827 169.57C50.5227 169.67 50.246 169.817 49.9527 170.01L49.6327 169.39C49.9727 169.157 50.3127 168.983 50.6527 168.87C50.9927 168.75 51.346 168.69 51.7127 168.69C52.3794 168.69 52.906 168.877 53.2927 169.25C53.6794 169.617 53.8727 170.13 53.8727 170.79V173C53.8727 173.107 53.8927 173.187 53.9327 173.24C53.9794 173.287 54.0527 173.313 54.1527 173.32V174C54.066 174.013 53.9894 174.023 53.9227 174.03C53.8627 174.037 53.8127 174.04 53.7727 174.04C53.566 174.04 53.4094 173.983 53.3027 173.87C53.2027 173.757 53.146 173.637 53.1327 173.51L53.1127 173.18C52.886 173.473 52.5894 173.7 52.2227 173.86C51.856 174.02 51.4927 174.1 51.1327 174.1C50.786 174.1 50.476 174.03 50.2027 173.89C49.9294 173.743 49.716 173.55 49.5627 173.31C49.4094 173.063 49.3327 172.79 49.3327 172.49ZM52.7327 172.86C52.8127 172.767 52.876 172.673 52.9227 172.58C52.9694 172.48 52.9927 172.397 52.9927 172.33V171.68C52.786 171.6 52.5694 171.54 52.3427 171.5C52.116 171.453 51.8927 171.43 51.6727 171.43C51.226 171.43 50.8627 171.52 50.5827 171.7C50.3094 171.873 50.1727 172.113 50.1727 172.42C50.1727 172.587 50.216 172.75 50.3027 172.91C50.396 173.063 50.5294 173.19 50.7027 173.29C50.8827 173.39 51.1027 173.44 51.3627 173.44C51.636 173.44 51.896 173.387 52.1427 173.28C52.3894 173.167 52.586 173.027 52.7327 172.86ZM56.6138 174L54.5638 168.78H55.4838L57.1238 173.16L58.7638 168.78H59.6238L57.5738 174H56.6138ZM62.6387 174.1C62.2453 174.1 61.8853 174.03 61.5587 173.89C61.2387 173.743 60.9587 173.547 60.7187 173.3C60.4853 173.047 60.302 172.757 60.1687 172.43C60.042 172.103 59.9787 171.757 59.9787 171.39C59.9787 170.897 60.092 170.447 60.3187 170.04C60.5453 169.633 60.8587 169.307 61.2587 169.06C61.6653 168.813 62.1287 168.69 62.6487 168.69C63.1753 168.69 63.632 168.817 64.0187 169.07C64.412 169.317 64.7153 169.643 64.9287 170.05C65.1487 170.45 65.2587 170.883 65.2587 171.35C65.2587 171.417 65.2553 171.483 65.2487 171.55C65.2487 171.61 65.2453 171.657 65.2387 171.69H60.9087C60.9353 172.03 61.0287 172.333 61.1887 172.6C61.3553 172.86 61.5687 173.067 61.8287 173.22C62.0887 173.367 62.3687 173.44 62.6687 173.44C62.9887 173.44 63.2887 173.36 63.5687 173.2C63.8553 173.04 64.052 172.83 64.1587 172.57L64.9187 172.78C64.8053 173.033 64.6353 173.26 64.4087 173.46C64.1887 173.66 63.9253 173.817 63.6187 173.93C63.3187 174.043 62.992 174.1 62.6387 174.1ZM60.8787 171.08H64.4387C64.412 170.74 64.3153 170.44 64.1487 170.18C63.982 169.92 63.7687 169.717 63.5087 169.57C63.2487 169.423 62.962 169.35 62.6487 169.35C62.342 169.35 62.0587 169.423 61.7987 169.57C61.5387 169.717 61.3253 169.92 61.1587 170.18C60.9987 170.44 60.9053 170.74 60.8787 171.08ZM71.0762 174.1C70.6828 174.1 70.3228 174.03 69.9962 173.89C69.6762 173.743 69.3962 173.543 69.1562 173.29C68.9228 173.037 68.7395 172.747 68.6062 172.42C68.4795 172.093 68.4162 171.747 68.4162 171.38C68.4162 170.887 68.5262 170.437 68.7462 170.03C68.9662 169.623 69.2762 169.3 69.6762 169.06C70.0762 168.813 70.5395 168.69 71.0662 168.69C71.5795 168.69 72.0262 168.807 72.4062 169.04C72.7928 169.267 73.0795 169.573 73.2662 169.96L72.4062 170.23C72.2728 169.983 72.0862 169.793 71.8462 169.66C71.6062 169.52 71.3395 169.45 71.0462 169.45C70.7262 169.45 70.4328 169.533 70.1662 169.7C69.9062 169.867 69.6995 170.097 69.5462 170.39C69.3928 170.677 69.3162 171.007 69.3162 171.38C69.3162 171.747 69.3928 172.08 69.5462 172.38C69.7062 172.673 69.9162 172.907 70.1762 173.08C70.4428 173.253 70.7362 173.34 71.0562 173.34C71.2628 173.34 71.4595 173.303 71.6462 173.23C71.8395 173.157 72.0062 173.06 72.1462 172.94C72.2928 172.813 72.3928 172.677 72.4462 172.53L73.3062 172.79C73.1995 173.043 73.0362 173.27 72.8162 173.47C72.6028 173.663 72.3462 173.817 72.0462 173.93C71.7528 174.043 71.4295 174.1 71.0762 174.1ZM73.8933 172.49C73.8933 172.157 73.9866 171.87 74.1733 171.63C74.3666 171.383 74.6299 171.193 74.9633 171.06C75.2966 170.927 75.6833 170.86 76.1233 170.86C76.3566 170.86 76.6033 170.88 76.8633 170.92C77.1233 170.953 77.3533 171.007 77.5533 171.08V170.7C77.5533 170.3 77.4333 169.987 77.1933 169.76C76.9533 169.527 76.6133 169.41 76.1733 169.41C75.8866 169.41 75.6099 169.463 75.3433 169.57C75.0833 169.67 74.8066 169.817 74.5133 170.01L74.1933 169.39C74.5333 169.157 74.8733 168.983 75.2133 168.87C75.5533 168.75 75.9066 168.69 76.2733 168.69C76.9399 168.69 77.4666 168.877 77.8533 169.25C78.2399 169.617 78.4333 170.13 78.4333 170.79V173C78.4333 173.107 78.4533 173.187 78.4933 173.24C78.5399 173.287 78.6133 173.313 78.7133 173.32V174C78.6266 174.013 78.5499 174.023 78.4833 174.03C78.4233 174.037 78.3733 174.04 78.3333 174.04C78.1266 174.04 77.9699 173.983 77.8633 173.87C77.7633 173.757 77.7066 173.637 77.6933 173.51L77.6733 173.18C77.4466 173.473 77.1499 173.7 76.7833 173.86C76.4166 174.02 76.0533 174.1 75.6933 174.1C75.3466 174.1 75.0366 174.03 74.7633 173.89C74.4899 173.743 74.2766 173.55 74.1233 173.31C73.9699 173.063 73.8933 172.79 73.8933 172.49ZM77.2933 172.86C77.3733 172.767 77.4366 172.673 77.4833 172.58C77.5299 172.48 77.5533 172.397 77.5533 172.33V171.68C77.3466 171.6 77.1299 171.54 76.9033 171.5C76.6766 171.453 76.4533 171.43 76.2333 171.43C75.7866 171.43 75.4233 171.52 75.1433 171.7C74.8699 171.873 74.7333 172.113 74.7333 172.42C74.7333 172.587 74.7766 172.75 74.8633 172.91C74.9566 173.063 75.0899 173.19 75.2633 173.29C75.4433 173.39 75.6633 173.44 75.9233 173.44C76.1966 173.44 76.4566 173.387 76.7033 173.28C76.9499 173.167 77.1466 173.027 77.2933 172.86ZM82.6004 169.55C82.1604 169.557 81.7704 169.67 81.4304 169.89C81.097 170.103 80.8604 170.4 80.7204 170.78V174H79.8404V168.78H80.6604V169.99C80.8404 169.63 81.077 169.34 81.3704 169.12C81.6704 168.893 81.9837 168.767 82.3104 168.74C82.377 168.74 82.4337 168.74 82.4804 168.74C82.527 168.74 82.567 168.743 82.6004 168.75V169.55ZM83.0355 171.4C83.0355 170.907 83.1355 170.457 83.3355 170.05C83.5422 169.637 83.8222 169.307 84.1755 169.06C84.5355 168.813 84.9455 168.69 85.4055 168.69C85.8255 168.69 86.2022 168.8 86.5355 169.02C86.8689 169.24 87.1289 169.507 87.3155 169.82V166.7H88.1955V173C88.1955 173.107 88.2155 173.187 88.2555 173.24C88.3022 173.287 88.3755 173.313 88.4755 173.32V174C88.3089 174.027 88.1789 174.04 88.0855 174.04C87.9122 174.04 87.7589 173.98 87.6255 173.86C87.4989 173.74 87.4355 173.607 87.4355 173.46V173.02C87.2289 173.353 86.9522 173.617 86.6055 173.81C86.2589 174.003 85.8989 174.1 85.5255 174.1C85.1655 174.1 84.8322 174.03 84.5255 173.89C84.2255 173.743 83.9622 173.543 83.7355 173.29C83.5155 173.037 83.3422 172.75 83.2155 172.43C83.0955 172.103 83.0355 171.76 83.0355 171.4ZM87.3155 172.17V170.67C87.2355 170.443 87.1055 170.24 86.9255 170.06C86.7455 169.873 86.5422 169.727 86.3155 169.62C86.0955 169.507 85.8755 169.45 85.6555 169.45C85.3955 169.45 85.1589 169.507 84.9455 169.62C84.7389 169.727 84.5589 169.873 84.4055 170.06C84.2589 170.24 84.1455 170.447 84.0655 170.68C83.9855 170.913 83.9455 171.157 83.9455 171.41C83.9455 171.67 83.9889 171.917 84.0755 172.15C84.1689 172.383 84.2955 172.59 84.4555 172.77C84.6222 172.95 84.8122 173.09 85.0255 173.19C85.2455 173.29 85.4822 173.34 85.7355 173.34C85.8955 173.34 86.0589 173.31 86.2255 173.25C86.3989 173.19 86.5622 173.107 86.7155 173C86.8689 172.893 86.9989 172.77 87.1055 172.63C87.2122 172.483 87.2822 172.33 87.3155 172.17Z" fill="#8D98AF"/>
<path d="M23.251 30.12C23.251 29.7733 23.3096 29.4347 23.427 29.104C23.5496 28.768 23.7256 28.464 23.955 28.192C24.1896 27.9147 24.475 27.696 24.811 27.536C25.147 27.3707 25.5283 27.288 25.955 27.288C26.4616 27.288 26.8963 27.4053 27.259 27.64C27.6216 27.8693 27.891 28.1653 28.067 28.528L27.499 28.896C27.387 28.656 27.243 28.4667 27.067 28.328C26.8963 28.184 26.7096 28.0827 26.507 28.024C26.3096 27.9653 26.115 27.936 25.923 27.936C25.6083 27.936 25.3283 28 25.083 28.128C24.843 28.256 24.6403 28.4267 24.475 28.64C24.3096 28.8533 24.1843 29.0933 24.099 29.36C24.019 29.6213 23.979 29.8853 23.979 30.152C23.979 30.4453 24.027 30.728 24.123 31C24.2243 31.272 24.363 31.512 24.539 31.72C24.715 31.928 24.923 32.0933 25.163 32.216C25.403 32.3387 25.6643 32.4 25.947 32.4C26.1443 32.4 26.347 32.3653 26.555 32.296C26.763 32.2267 26.9576 32.12 27.139 31.976C27.3203 31.8267 27.4643 31.6347 27.571 31.4L28.171 31.728C28.0536 32.0107 27.8723 32.2507 27.627 32.448C27.3816 32.6453 27.107 32.7947 26.803 32.896C26.5043 32.9973 26.2083 33.048 25.915 33.048C25.5256 33.048 25.1683 32.9653 24.843 32.8C24.5176 32.6293 24.235 32.4053 23.995 32.128C23.7603 31.8453 23.5763 31.5307 23.443 31.184C23.315 30.832 23.251 30.4773 23.251 30.12ZM30.642 27.32H31.25L33.57 33H32.802L32.13 31.336H29.746L29.082 33H28.314L30.642 27.32ZM31.97 30.776L30.946 28.152L29.89 30.776H31.97ZM34.248 33V27.32H36.68C36.9307 27.32 37.16 27.3733 37.368 27.48C37.576 27.5813 37.7574 27.72 37.912 27.896C38.0667 28.0667 38.1867 28.2613 38.272 28.48C38.3574 28.6933 38.4 28.912 38.4 29.136C38.4 29.3973 38.3494 29.6453 38.248 29.88C38.152 30.1147 38.0134 30.3147 37.832 30.48C37.656 30.6453 37.448 30.76 37.208 30.824L38.584 33H37.768L36.472 30.96H34.968V33H34.248ZM34.968 30.32H36.688C36.8854 30.32 37.056 30.2667 37.2 30.16C37.3494 30.048 37.464 29.9013 37.544 29.72C37.6294 29.5387 37.672 29.344 37.672 29.136C37.672 28.9227 37.624 28.728 37.528 28.552C37.432 28.3707 37.3067 28.2267 37.152 28.12C36.9974 28.0133 36.8267 27.96 36.64 27.96H34.968V30.32ZM39.4258 33V27.32H41.3938C42.0018 27.32 42.5085 27.448 42.9138 27.704C43.3245 27.9547 43.6312 28.296 43.8338 28.728C44.0365 29.1547 44.1378 29.6293 44.1378 30.152C44.1378 30.728 44.0258 31.2293 43.8018 31.656C43.5778 32.0827 43.2605 32.4133 42.8498 32.648C42.4392 32.8827 41.9538 33 41.3938 33H39.4258ZM43.4098 30.152C43.4098 29.7253 43.3298 29.3467 43.1698 29.016C43.0152 28.6853 42.7885 28.4267 42.4898 28.24C42.1912 28.0533 41.8258 27.96 41.3938 27.96H40.1458V32.36H41.3938C41.8312 32.36 42.1992 32.264 42.4978 32.072C42.7965 31.8747 43.0232 31.6107 43.1778 31.28C43.3325 30.944 43.4098 30.568 43.4098 30.152ZM47.7358 28.648V33H47.0158V27.32H47.6238L51.0958 31.76V27.328H51.8158V33H51.1598L47.7358 28.648ZM55.4361 33.04C54.9828 33.04 54.6014 32.9627 54.2921 32.808C53.9828 32.648 53.7348 32.4347 53.5481 32.168C53.3614 31.896 53.2254 31.5893 53.1401 31.248C53.0548 30.9067 53.0121 30.5547 53.0121 30.192V27.32H53.7321V30.192C53.7321 30.4693 53.7588 30.7413 53.8121 31.008C53.8708 31.2693 53.9641 31.504 54.0921 31.712C54.2201 31.92 54.3934 32.0853 54.6121 32.208C54.8308 32.3307 55.1028 32.392 55.4281 32.392C55.7588 32.392 56.0334 32.3307 56.2521 32.208C56.4708 32.08 56.6441 31.912 56.7721 31.704C56.9001 31.4907 56.9908 31.2533 57.0441 30.992C57.1028 30.7307 57.1321 30.464 57.1321 30.192V27.32H57.8521V30.192C57.8521 30.576 57.8068 30.9413 57.7161 31.288C57.6308 31.6293 57.4921 31.9307 57.3001 32.192C57.1081 32.4533 56.8574 32.6613 56.5481 32.816C56.2441 32.9653 55.8734 33.04 55.4361 33.04ZM63.9632 33V28.664L62.0912 32H61.6512L59.7712 28.664V33H59.0512V27.32H59.8112L61.8672 31.008L63.9312 27.32H64.6832V33H63.9632ZM70.3233 31.536C70.3233 31.8293 70.2487 32.0853 70.0993 32.304C69.95 32.5227 69.7473 32.6933 69.4913 32.816C69.2407 32.9387 68.9633 33 68.6593 33H65.9633V27.32H68.7873C69.054 27.32 69.2833 27.392 69.4753 27.536C69.6727 27.6747 69.822 27.856 69.9233 28.08C70.03 28.2987 70.0833 28.528 70.0833 28.768C70.0833 29.0453 70.0113 29.3067 69.8673 29.552C69.7287 29.792 69.5287 29.9707 69.2673 30.088C69.5927 30.184 69.8487 30.3627 70.0353 30.624C70.2273 30.88 70.3233 31.184 70.3233 31.536ZM69.5953 31.408C69.5953 31.232 69.5553 31.0693 69.4753 30.92C69.4007 30.7707 69.2967 30.6507 69.1633 30.56C69.0353 30.4693 68.886 30.424 68.7153 30.424H66.6833V32.376H68.6593C68.8353 32.376 68.9927 32.3307 69.1313 32.24C69.2753 32.1493 69.3873 32.032 69.4673 31.888C69.5527 31.7387 69.5953 31.5787 69.5953 31.408ZM66.6833 27.944V29.84H68.4913C68.662 29.84 68.8113 29.7973 68.9393 29.712C69.0727 29.6267 69.1767 29.512 69.2513 29.368C69.3313 29.224 69.3713 29.0667 69.3713 28.896C69.3713 28.7147 69.334 28.5547 69.2593 28.416C69.19 28.272 69.0913 28.1573 68.9633 28.072C68.8407 27.9867 68.6993 27.944 68.5393 27.944H66.6833ZM75.1065 32.36V33H71.2505V27.32H75.0345V27.96H71.9705V29.8H74.6345V30.4H71.9705V32.36H75.1065ZM76.0143 33V27.32H78.4463C78.6969 27.32 78.9263 27.3733 79.1343 27.48C79.3423 27.5813 79.5236 27.72 79.6783 27.896C79.8329 28.0667 79.9529 28.2613 80.0383 28.48C80.1236 28.6933 80.1663 28.912 80.1663 29.136C80.1663 29.3973 80.1156 29.6453 80.0143 29.88C79.9183 30.1147 79.7796 30.3147 79.5983 30.48C79.4223 30.6453 79.2143 30.76 78.9743 30.824L80.3503 33H79.5343L78.2383 30.96H76.7343V33H76.0143ZM76.7343 30.32H78.4543C78.6516 30.32 78.8223 30.2667 78.9663 30.16C79.1156 30.048 79.2303 29.9013 79.3103 29.72C79.3956 29.5387 79.4383 29.344 79.4383 29.136C79.4383 28.9227 79.3903 28.728 79.2943 28.552C79.1983 28.3707 79.0729 28.2267 78.9183 28.12C78.7636 28.0133 78.5929 27.96 78.4063 27.96H76.7343V30.32Z" fill="#8D98AF"/>
<rect x="23.439" y="40.5" width="339" height="39" rx="11.5" stroke="#E7E9EF"/>
<circle cx="41.939" cy="60" r="3" fill="black"/>
<circle cx="51.939" cy="60" r="3" fill="black"/>
<circle cx="61.939" cy="60" r="3" fill="black"/>
<circle cx="71.939" cy="60" r="3" fill="black"/>
<circle cx="89.939" cy="60" r="3" fill="black"/>
<circle cx="99.939" cy="60" r="3" fill="black"/>
<circle cx="109.939" cy="60" r="3" fill="black"/>
<circle cx="119.939" cy="60" r="3" fill="black"/>
<circle cx="137.939" cy="60" r="3" fill="black"/>
<circle cx="147.939" cy="60" r="3" fill="black"/>
<circle cx="157.939" cy="60" r="3" fill="black"/>
<circle cx="167.939" cy="60" r="3" fill="black"/>
<path d="M188.903 63.38V64.5H183.877V63.38H185.865V57.92C185.781 58.032 185.65 58.1533 185.473 58.284C185.296 58.4053 185.095 58.522 184.871 58.634C184.647 58.746 184.423 58.8393 184.199 58.914C183.975 58.9793 183.77 59.012 183.583 59.012V57.836C183.788 57.836 184.012 57.78 184.255 57.668C184.507 57.5467 184.75 57.4067 184.983 57.248C185.216 57.0893 185.412 56.94 185.571 56.8C185.739 56.66 185.837 56.562 185.865 56.506H187.125V63.38H188.903ZM189.704 64.5C189.704 64.1267 189.732 63.7767 189.788 63.45C189.853 63.1233 189.965 62.8107 190.124 62.512C190.292 62.2133 190.525 61.9287 190.824 61.658C191.122 61.378 191.51 61.1073 191.986 60.846C192.266 60.6873 192.546 60.538 192.826 60.398C193.115 60.258 193.381 60.1087 193.624 59.95C193.876 59.7913 194.076 59.6187 194.226 59.432C194.375 59.236 194.45 59.012 194.45 58.76C194.45 58.5453 194.384 58.34 194.254 58.144C194.132 57.9387 193.946 57.7753 193.694 57.654C193.451 57.5233 193.148 57.458 192.784 57.458C192.504 57.458 192.247 57.4953 192.014 57.57C191.79 57.6447 191.584 57.7427 191.398 57.864C191.22 57.976 191.062 58.0973 190.922 58.228C190.791 58.3493 190.679 58.4613 190.586 58.564L189.816 57.696C189.89 57.612 190.016 57.5 190.194 57.36C190.371 57.2107 190.595 57.0613 190.866 56.912C191.136 56.7627 191.449 56.6367 191.804 56.534C192.168 56.422 192.564 56.366 192.994 56.366C193.572 56.366 194.067 56.4687 194.478 56.674C194.898 56.87 195.22 57.1407 195.444 57.486C195.668 57.822 195.78 58.2 195.78 58.62C195.78 58.984 195.7 59.3013 195.542 59.572C195.392 59.8427 195.196 60.0807 194.954 60.286C194.72 60.4913 194.473 60.6687 194.212 60.818C193.96 60.958 193.731 61.0793 193.526 61.182C193.106 61.3873 192.746 61.574 192.448 61.742C192.149 61.91 191.902 62.078 191.706 62.246C191.519 62.4047 191.365 62.5727 191.244 62.75C191.132 62.9273 191.048 63.1373 190.992 63.38H195.934V64.5H189.704ZM200.122 66.586C199.413 66.586 198.773 66.418 198.204 66.082C197.635 65.746 197.205 65.298 196.916 64.738L197.686 64.066C197.947 64.4953 198.293 64.8407 198.722 65.102C199.161 65.3633 199.632 65.494 200.136 65.494C200.565 65.494 200.948 65.4007 201.284 65.214C201.62 65.0273 201.886 64.7707 202.082 64.444C202.278 64.108 202.376 63.7253 202.376 63.296C202.376 62.876 202.278 62.5073 202.082 62.19C201.895 61.8727 201.639 61.6253 201.312 61.448C200.995 61.2707 200.635 61.182 200.234 61.182C199.833 61.182 199.455 61.2707 199.1 61.448C198.755 61.6253 198.47 61.8773 198.246 62.204H197.14L198.26 56.506H203.09V57.64H199.17L198.568 60.804C198.773 60.5893 199.03 60.4213 199.338 60.3C199.655 60.1693 200.005 60.104 200.388 60.104C201.004 60.104 201.555 60.2393 202.04 60.51C202.535 60.7807 202.922 61.154 203.202 61.63C203.491 62.106 203.636 62.6567 203.636 63.282C203.636 63.9353 203.477 64.5093 203.16 65.004C202.852 65.508 202.432 65.8953 201.9 66.166C201.368 66.446 200.775 66.586 200.122 66.586ZM208.996 61.196C209.397 61.2613 209.742 61.4107 210.032 61.644C210.321 61.868 210.545 62.1573 210.704 62.512C210.862 62.8573 210.942 63.2493 210.942 63.688C210.942 64.2573 210.802 64.7567 210.522 65.186C210.251 65.6247 209.864 65.9607 209.36 66.194C208.856 66.4367 208.268 66.558 207.596 66.558C206.886 66.558 206.261 66.4227 205.72 66.152C205.188 65.8907 204.772 65.5173 204.474 65.032L205.3 64.206C205.514 64.5793 205.804 64.878 206.168 65.102C206.541 65.326 207.017 65.438 207.596 65.438C208.24 65.438 208.744 65.2887 209.108 64.99C209.481 64.7007 209.668 64.2667 209.668 63.688C209.668 63.1 209.467 62.6333 209.066 62.288C208.674 61.9333 208.1 61.756 207.344 61.756H206.98V60.72H207.372C208.044 60.72 208.557 60.5567 208.912 60.23C209.276 59.9033 209.458 59.4973 209.458 59.012C209.458 58.676 209.378 58.4007 209.22 58.186C209.061 57.9713 208.846 57.8127 208.576 57.71C208.305 57.598 207.992 57.542 207.638 57.542C207.124 57.542 206.672 57.654 206.28 57.878C205.897 58.0927 205.598 58.396 205.384 58.788L204.628 58.004C204.796 57.6867 205.034 57.4113 205.342 57.178C205.659 56.9447 206.023 56.7627 206.434 56.632C206.854 56.5013 207.297 56.436 207.764 56.436C208.352 56.436 208.87 56.5387 209.318 56.744C209.775 56.9493 210.13 57.2387 210.382 57.612C210.634 57.9853 210.76 58.424 210.76 58.928C210.76 59.292 210.69 59.6373 210.55 59.964C210.41 60.2813 210.204 60.552 209.934 60.776C209.672 60.9907 209.36 61.1307 208.996 61.196Z" fill="black"/>
<path d="M339.644 55.1309H334.236V64.8693H339.644V55.1309Z" fill="#FF5F00"/>
<path d="M334.578 60C334.578 59.0621 334.79 58.1363 335.199 57.2927C335.608 56.4491 336.203 55.7098 336.939 55.1308C336.027 54.4126 334.932 53.966 333.779 53.842C332.626 53.718 331.461 53.9216 330.418 54.4295C329.375 54.9374 328.496 55.7291 327.881 56.7142C327.265 57.6992 326.939 58.8379 326.939 60C326.939 61.1621 327.265 62.3007 327.881 63.2858C328.496 64.2709 329.375 65.0626 330.418 65.5705C331.461 66.0784 332.626 66.2819 333.779 66.1579C334.932 66.0339 336.027 65.5873 336.939 64.8692C336.203 64.2901 335.608 63.5508 335.199 62.7072C334.79 61.8636 334.578 60.9378 334.578 60Z" fill="#EB001B"/>
<path d="M346.939 60C346.939 61.1621 346.613 62.3007 345.997 63.2858C345.382 64.2708 344.503 65.0626 343.46 65.5705C342.417 66.0784 341.252 66.282 340.099 66.1579C338.946 66.0339 337.851 65.5873 336.939 64.8692C337.675 64.2895 338.269 63.5501 338.678 62.7067C339.087 61.8632 339.3 60.9377 339.3 60C339.3 59.0622 339.087 58.1368 338.678 57.2933C338.269 56.4498 337.675 55.7104 336.939 55.1308C337.851 54.4126 338.946 53.966 340.099 53.842C341.252 53.718 342.417 53.9216 343.46 54.4295C344.503 54.9374 345.382 55.7291 345.997 56.7142C346.613 57.6992 346.939 58.8379 346.939 60Z" fill="#F79E1B"/>
<path d="M346.348 63.8378V63.6384H346.428V63.5978H346.224V63.6384H346.304V63.8378H346.348ZM346.745 63.8378V63.5974H346.682L346.61 63.7628L346.538 63.5974H346.476V63.8378H346.52V63.6565L346.587 63.8128H346.633L346.701 63.6561V63.8378H346.745Z" fill="#F79E1B"/>
<path d="M23.619 101V95.32H25.587C26.195 95.32 26.7016 95.448 27.107 95.704C27.5176 95.9547 27.8243 96.296 28.027 96.728C28.2296 97.1547 28.331 97.6293 28.331 98.152C28.331 98.728 28.219 99.2293 27.995 99.656C27.771 100.083 27.4536 100.413 27.043 100.648C26.6323 100.883 26.147 101 25.587 101H23.619ZM27.603 98.152C27.603 97.7253 27.523 97.3467 27.363 97.016C27.2083 96.6853 26.9816 96.4267 26.683 96.24C26.3843 96.0533 26.019 95.96 25.587 95.96H24.339V100.36H25.587C26.0243 100.36 26.3923 100.264 26.691 100.072C26.9896 99.8747 27.2163 99.6107 27.371 99.28C27.5256 98.944 27.603 98.568 27.603 98.152ZM30.7904 95.32H31.3984L33.7184 101H32.9504L32.2784 99.336H29.8944L29.2304 101H28.4624L30.7904 95.32ZM32.1184 98.776L31.0944 96.152L30.0384 98.776H32.1184ZM37.9534 95.96H35.9934V101H35.2734V95.96H33.3134V95.32H37.9534V95.96ZM42.5475 100.36V101H38.6915V95.32H42.4755V95.96H39.4115V97.8H42.0755V98.4H39.4115V100.36H42.5475Z" fill="#8D98AF"/>
<rect x="23.439" y="108.5" width="163" height="39" rx="11.5" stroke="#E7E9EF"/>
<path d="M44.903 131.38V132.5H39.877V131.38H41.865V125.92C41.781 126.032 41.6503 126.153 41.473 126.284C41.2956 126.405 41.095 126.522 40.871 126.634C40.647 126.746 40.423 126.839 40.199 126.914C39.975 126.979 39.7696 127.012 39.583 127.012V125.836C39.7883 125.836 40.0123 125.78 40.255 125.668C40.507 125.547 40.7496 125.407 40.983 125.248C41.2163 125.089 41.4123 124.94 41.571 124.8C41.739 124.66 41.837 124.562 41.865 124.506H43.125V131.38H44.903ZM45.7037 132.5C45.7037 132.127 45.7317 131.777 45.7877 131.45C45.853 131.123 45.965 130.811 46.1237 130.512C46.2917 130.213 46.525 129.929 46.8237 129.658C47.1224 129.378 47.5097 129.107 47.9857 128.846C48.2657 128.687 48.5457 128.538 48.8257 128.398C49.115 128.258 49.381 128.109 49.6237 127.95C49.8757 127.791 50.0764 127.619 50.2257 127.432C50.375 127.236 50.4497 127.012 50.4497 126.76C50.4497 126.545 50.3844 126.34 50.2537 126.144C50.1324 125.939 49.9457 125.775 49.6937 125.654C49.451 125.523 49.1477 125.458 48.7837 125.458C48.5037 125.458 48.247 125.495 48.0137 125.57C47.7897 125.645 47.5844 125.743 47.3977 125.864C47.2204 125.976 47.0617 126.097 46.9217 126.228C46.791 126.349 46.679 126.461 46.5857 126.564L45.8157 125.696C45.8904 125.612 46.0164 125.5 46.1937 125.36C46.371 125.211 46.595 125.061 46.8657 124.912C47.1364 124.763 47.449 124.637 47.8037 124.534C48.1677 124.422 48.5644 124.366 48.9937 124.366C49.5724 124.366 50.067 124.469 50.4777 124.674C50.8977 124.87 51.2197 125.141 51.4437 125.486C51.6677 125.822 51.7797 126.2 51.7797 126.62C51.7797 126.984 51.7004 127.301 51.5417 127.572C51.3924 127.843 51.1964 128.081 50.9537 128.286C50.7204 128.491 50.473 128.669 50.2117 128.818C49.9597 128.958 49.731 129.079 49.5257 129.182C49.1057 129.387 48.7464 129.574 48.4477 129.742C48.149 129.91 47.9017 130.078 47.7057 130.246C47.519 130.405 47.365 130.573 47.2437 130.75C47.1317 130.927 47.0477 131.137 46.9917 131.38H51.9337V132.5H45.7037ZM64.3249 122.56L57.6049 132.5H56.2329L62.9389 122.56H64.3249ZM68.5773 132.5C68.5773 132.127 68.6053 131.777 68.6613 131.45C68.7266 131.123 68.8386 130.811 68.9973 130.512C69.1653 130.213 69.3986 129.929 69.6973 129.658C69.996 129.378 70.3833 129.107 70.8593 128.846C71.1393 128.687 71.4193 128.538 71.6993 128.398C71.9886 128.258 72.2546 128.109 72.4973 127.95C72.7493 127.791 72.95 127.619 73.0993 127.432C73.2486 127.236 73.3233 127.012 73.3233 126.76C73.3233 126.545 73.258 126.34 73.1273 126.144C73.006 125.939 72.8193 125.775 72.5673 125.654C72.3246 125.523 72.0213 125.458 71.6573 125.458C71.3773 125.458 71.1206 125.495 70.8873 125.57C70.6633 125.645 70.458 125.743 70.2713 125.864C70.094 125.976 69.9353 126.097 69.7953 126.228C69.6646 126.349 69.5526 126.461 69.4593 126.564L68.6893 125.696C68.764 125.612 68.89 125.5 69.0673 125.36C69.2446 125.211 69.4686 125.061 69.7393 124.912C70.01 124.763 70.3226 124.637 70.6773 124.534C71.0413 124.422 71.438 124.366 71.8673 124.366C72.446 124.366 72.9406 124.469 73.3513 124.674C73.7713 124.87 74.0933 125.141 74.3173 125.486C74.5413 125.822 74.6533 126.2 74.6533 126.62C74.6533 126.984 74.574 127.301 74.4153 127.572C74.266 127.843 74.07 128.081 73.8273 128.286C73.594 128.491 73.3466 128.669 73.0853 128.818C72.8333 128.958 72.6046 129.079 72.3993 129.182C71.9793 129.387 71.62 129.574 71.3213 129.742C71.0226 129.91 70.7753 130.078 70.5793 130.246C70.3926 130.405 70.2386 130.573 70.1173 130.75C70.0053 130.927 69.9213 131.137 69.8653 131.38H74.8073V132.5H68.5773ZM83.1675 128.398C83.1675 129.219 83.0135 129.952 82.7055 130.596C82.3975 131.231 81.9775 131.73 81.4455 132.094C80.9135 132.458 80.3068 132.64 79.6255 132.64C78.9441 132.64 78.3375 132.458 77.8055 132.094C77.2735 131.73 76.8535 131.231 76.5455 130.596C76.2375 129.952 76.0835 129.219 76.0835 128.398C76.0835 127.577 76.2375 126.849 76.5455 126.214C76.8535 125.57 77.2735 125.066 77.8055 124.702C78.3375 124.329 78.9441 124.142 79.6255 124.142C80.3068 124.142 80.9135 124.329 81.4455 124.702C81.9775 125.066 82.3975 125.57 82.7055 126.214C83.0135 126.849 83.1675 127.577 83.1675 128.398ZM81.9215 128.398C81.9215 127.782 81.8235 127.241 81.6275 126.774C81.4315 126.307 81.1608 125.943 80.8155 125.682C80.4701 125.421 80.0735 125.29 79.6255 125.29C79.1681 125.29 78.7668 125.421 78.4215 125.682C78.0761 125.943 77.8055 126.307 77.6095 126.774C77.4135 127.241 77.3155 127.782 77.3155 128.398C77.3155 129.014 77.4135 129.555 77.6095 130.022C77.8055 130.479 78.0761 130.839 78.4215 131.1C78.7668 131.361 79.1681 131.492 79.6255 131.492C80.0735 131.492 80.4701 131.361 80.8155 131.1C81.1608 130.839 81.4315 130.479 81.6275 130.022C81.8235 129.555 81.9215 129.014 81.9215 128.398ZM84.3891 132.5C84.3891 132.127 84.4171 131.777 84.4731 131.45C84.5384 131.123 84.6504 130.811 84.8091 130.512C84.9771 130.213 85.2104 129.929 85.5091 129.658C85.8078 129.378 86.1951 129.107 86.6711 128.846C86.9511 128.687 87.2311 128.538 87.5111 128.398C87.8004 128.258 88.0664 128.109 88.3091 127.95C88.5611 127.791 88.7618 127.619 88.9111 127.432C89.0604 127.236 89.1351 127.012 89.1351 126.76C89.1351 126.545 89.0698 126.34 88.9391 126.144C88.8178 125.939 88.6311 125.775 88.3791 125.654C88.1364 125.523 87.8331 125.458 87.4691 125.458C87.1891 125.458 86.9324 125.495 86.6991 125.57C86.4751 125.645 86.2698 125.743 86.0831 125.864C85.9058 125.976 85.7471 126.097 85.6071 126.228C85.4764 126.349 85.3644 126.461 85.2711 126.564L84.5011 125.696C84.5758 125.612 84.7018 125.5 84.8791 125.36C85.0564 125.211 85.2804 125.061 85.5511 124.912C85.8218 124.763 86.1344 124.637 86.4891 124.534C86.8531 124.422 87.2498 124.366 87.6791 124.366C88.2578 124.366 88.7524 124.469 89.1631 124.674C89.5831 124.87 89.9051 125.141 90.1291 125.486C90.3531 125.822 90.4651 126.2 90.4651 126.62C90.4651 126.984 90.3858 127.301 90.2271 127.572C90.0778 127.843 89.8818 128.081 89.6391 128.286C89.4058 128.491 89.1584 128.669 88.8971 128.818C88.6451 128.958 88.4164 129.079 88.2111 129.182C87.7911 129.387 87.4318 129.574 87.1331 129.742C86.8344 129.91 86.5871 130.078 86.3911 130.246C86.2044 130.405 86.0504 130.573 85.9291 130.75C85.8171 130.927 85.7331 131.137 85.6771 131.38H90.6191V132.5H84.3891ZM95.9693 134.278V131.912H91.4753V130.82L96.3613 124.506H97.2013V130.792H98.4333V131.912H97.2013V134.278H95.9693ZM92.7493 130.792H96.0953V126.41L92.7493 130.792Z" fill="black"/>
<path d="M202.955 96.512C202.891 96.4373 202.806 96.3653 202.699 96.296C202.592 96.2267 202.472 96.1653 202.339 96.112C202.206 96.0533 202.059 96.008 201.899 95.976C201.744 95.9387 201.582 95.92 201.411 95.92C200.974 95.92 200.651 96.0027 200.443 96.168C200.235 96.3333 200.131 96.56 200.131 96.848C200.131 97.0507 200.184 97.2107 200.291 97.328C200.398 97.4453 200.56 97.5413 200.779 97.616C201.003 97.6907 201.286 97.768 201.627 97.848C202.022 97.9333 202.363 98.0373 202.651 98.16C202.939 98.2827 203.16 98.448 203.315 98.656C203.47 98.8587 203.547 99.1307 203.547 99.472C203.547 99.744 203.494 99.9813 203.387 100.184C203.286 100.381 203.142 100.547 202.955 100.68C202.768 100.808 202.55 100.904 202.299 100.968C202.048 101.027 201.776 101.056 201.483 101.056C201.195 101.056 200.912 101.027 200.635 100.968C200.363 100.904 200.104 100.813 199.859 100.696C199.614 100.579 199.384 100.432 199.171 100.256L199.515 99.648C199.6 99.7387 199.71 99.8293 199.843 99.92C199.982 100.005 200.136 100.085 200.307 100.16C200.483 100.235 200.672 100.296 200.875 100.344C201.078 100.387 201.286 100.408 201.499 100.408C201.904 100.408 202.219 100.336 202.443 100.192C202.667 100.043 202.779 99.8267 202.779 99.544C202.779 99.3307 202.715 99.16 202.587 99.032C202.464 98.904 202.28 98.7973 202.035 98.712C201.79 98.6267 201.491 98.5413 201.139 98.456C200.755 98.36 200.432 98.256 200.171 98.144C199.91 98.0267 199.712 97.8747 199.579 97.688C199.451 97.5013 199.387 97.2587 199.387 96.96C199.387 96.5973 199.475 96.2907 199.651 96.04C199.827 95.7893 200.07 95.6 200.379 95.472C200.688 95.344 201.038 95.28 201.427 95.28C201.683 95.28 201.92 95.3067 202.139 95.36C202.363 95.4133 202.571 95.488 202.763 95.584C202.955 95.68 203.131 95.7947 203.291 95.928L202.955 96.512ZM208.27 100.36V101H204.414V95.32H208.198V95.96H205.134V97.8H207.798V98.4H205.134V100.36H208.27ZM209.178 101V95.32H211.61C211.86 95.32 212.09 95.3733 212.298 95.48C212.506 95.5813 212.687 95.72 212.842 95.896C212.996 96.0667 213.116 96.2613 213.202 96.48C213.287 96.6933 213.33 96.912 213.33 97.136C213.33 97.3973 213.279 97.6453 213.178 97.88C213.082 98.1147 212.943 98.3147 212.762 98.48C212.586 98.6453 212.378 98.76 212.138 98.824L213.514 101H212.698L211.402 98.96H209.898V101H209.178ZM209.898 98.32H211.618C211.815 98.32 211.986 98.2667 212.13 98.16C212.279 98.048 212.394 97.9013 212.474 97.72C212.559 97.5387 212.602 97.344 212.602 97.136C212.602 96.9227 212.554 96.728 212.458 96.552C212.362 96.3707 212.236 96.2267 212.082 96.12C211.927 96.0133 211.756 95.96 211.57 95.96H209.898V98.32ZM214.356 101V95.32H215.076V101H214.356ZM218.082 95.32H218.69L221.01 101H220.242L219.57 99.336H217.186L216.522 101H215.754L218.082 95.32ZM219.41 98.776L218.386 96.152L217.33 98.776H219.41ZM221.688 101V95.32H222.408V100.36H225.576V101H221.688Z" fill="#8D98AF"/>
<rect x="199.439" y="108.5" width="163" height="39" rx="11.5" stroke="#E7E9EF"/>
<path d="M220.427 125.472H215.317V124.338H222.373L217.375 134.278H215.975L220.427 125.472ZM230.159 129.21C230.159 129.845 230 130.423 229.683 130.946C229.375 131.459 228.95 131.87 228.409 132.178C227.877 132.486 227.275 132.64 226.603 132.64C225.894 132.64 225.268 132.472 224.727 132.136C224.186 131.791 223.761 131.296 223.453 130.652C223.154 130.008 223.005 129.243 223.005 128.356C223.005 127.049 223.159 125.962 223.467 125.094C223.775 124.226 224.209 123.577 224.769 123.148C225.329 122.709 225.982 122.49 226.729 122.49C227.373 122.49 227.956 122.649 228.479 122.966C229.011 123.274 229.426 123.703 229.725 124.254L228.969 124.996C228.764 124.557 228.46 124.212 228.059 123.96C227.658 123.699 227.21 123.568 226.715 123.568C226.211 123.568 225.768 123.722 225.385 124.03C225.002 124.338 224.704 124.781 224.489 125.36C224.284 125.939 224.176 126.639 224.167 127.46C224.307 127.133 224.503 126.853 224.755 126.62C225.007 126.377 225.301 126.191 225.637 126.06C225.982 125.929 226.346 125.864 226.729 125.864C227.373 125.864 227.952 126.013 228.465 126.312C228.988 126.611 229.398 127.012 229.697 127.516C230.005 128.02 230.159 128.585 230.159 129.21ZM226.617 131.576C227.046 131.576 227.438 131.469 227.793 131.254C228.157 131.039 228.446 130.755 228.661 130.4C228.876 130.036 228.983 129.639 228.983 129.21C228.983 128.781 228.876 128.389 228.661 128.034C228.446 127.679 228.157 127.395 227.793 127.18C227.438 126.965 227.046 126.858 226.617 126.858C226.188 126.858 225.791 126.965 225.427 127.18C225.072 127.395 224.788 127.679 224.573 128.034C224.358 128.389 224.251 128.781 224.251 129.21C224.251 129.639 224.358 130.036 224.573 130.4C224.788 130.755 225.072 131.039 225.427 131.254C225.791 131.469 226.188 131.576 226.617 131.576ZM238.327 129.686C238.327 130.274 238.164 130.787 237.837 131.226C237.52 131.665 237.091 132.005 236.549 132.248C236.017 132.491 235.434 132.612 234.799 132.612C234.137 132.612 233.544 132.481 233.021 132.22C232.499 131.949 232.083 131.59 231.775 131.142C231.477 130.694 231.327 130.19 231.327 129.63C231.327 129.219 231.421 128.851 231.607 128.524C231.794 128.197 232.027 127.922 232.307 127.698C232.597 127.465 232.891 127.292 233.189 127.18C232.919 127.059 232.667 126.9 232.433 126.704C232.2 126.508 232.013 126.279 231.873 126.018C231.733 125.757 231.663 125.472 231.663 125.164C231.663 124.744 231.757 124.375 231.943 124.058C232.13 123.731 232.377 123.456 232.685 123.232C232.993 123.008 233.334 122.84 233.707 122.728C234.081 122.616 234.454 122.56 234.827 122.56C235.201 122.56 235.574 122.616 235.947 122.728C236.321 122.84 236.661 123.008 236.969 123.232C237.287 123.447 237.539 123.717 237.725 124.044C237.912 124.361 238.005 124.73 238.005 125.15C238.005 125.458 237.935 125.747 237.795 126.018C237.655 126.279 237.464 126.508 237.221 126.704C236.988 126.9 236.731 127.059 236.451 127.18C236.787 127.311 237.095 127.497 237.375 127.74C237.665 127.973 237.893 128.253 238.061 128.58C238.239 128.907 238.327 129.275 238.327 129.686ZM237.081 129.602C237.081 129.303 237.016 129.037 236.885 128.804C236.755 128.561 236.577 128.361 236.353 128.202C236.129 128.034 235.882 127.908 235.611 127.824C235.35 127.74 235.084 127.698 234.813 127.698C234.44 127.698 234.081 127.777 233.735 127.936C233.399 128.095 233.124 128.319 232.909 128.608C232.695 128.888 232.587 129.224 232.587 129.616C232.587 129.905 232.653 130.167 232.783 130.4C232.914 130.633 233.087 130.834 233.301 131.002C233.525 131.17 233.768 131.296 234.029 131.38C234.3 131.464 234.571 131.506 234.841 131.506C235.215 131.506 235.569 131.427 235.905 131.268C236.251 131.109 236.531 130.885 236.745 130.596C236.969 130.307 237.081 129.975 237.081 129.602ZM232.909 125.206C232.909 125.533 233.007 125.813 233.203 126.046C233.399 126.279 233.647 126.457 233.945 126.578C234.244 126.69 234.538 126.746 234.827 126.746C235.126 126.746 235.42 126.685 235.709 126.564C236.008 126.443 236.255 126.265 236.451 126.032C236.647 125.799 236.745 125.514 236.745 125.178C236.745 124.861 236.652 124.59 236.465 124.366C236.288 124.142 236.05 123.969 235.751 123.848C235.462 123.727 235.149 123.666 234.813 123.666C234.487 123.666 234.174 123.731 233.875 123.862C233.586 123.983 233.353 124.161 233.175 124.394C232.998 124.618 232.909 124.889 232.909 125.206ZM239.373 127.936C239.373 127.301 239.527 126.727 239.835 126.214C240.152 125.691 240.581 125.276 241.123 124.968C241.664 124.66 242.266 124.506 242.929 124.506C243.647 124.506 244.273 124.679 244.805 125.024C245.346 125.36 245.766 125.85 246.065 126.494C246.373 127.129 246.527 127.894 246.527 128.79C246.527 130.097 246.373 131.184 246.065 132.052C245.757 132.92 245.323 133.569 244.763 133.998C244.203 134.437 243.549 134.656 242.803 134.656C242.159 134.656 241.571 134.497 241.039 134.18C240.516 133.872 240.105 133.443 239.807 132.892L240.563 132.15C240.768 132.579 241.071 132.925 241.473 133.186C241.883 133.447 242.331 133.578 242.817 133.578C243.33 133.578 243.773 133.424 244.147 133.116C244.529 132.808 244.823 132.365 245.029 131.786C245.243 131.207 245.355 130.507 245.365 129.686C245.234 130.003 245.038 130.283 244.777 130.526C244.525 130.769 244.231 130.955 243.895 131.086C243.559 131.217 243.195 131.282 242.803 131.282C242.168 131.282 241.589 131.133 241.067 130.834C240.544 130.535 240.129 130.134 239.821 129.63C239.522 129.126 239.373 128.561 239.373 127.936ZM242.915 125.57C242.485 125.57 242.089 125.677 241.725 125.892C241.37 126.107 241.085 126.391 240.871 126.746C240.656 127.101 240.549 127.497 240.549 127.936C240.549 128.365 240.656 128.757 240.871 129.112C241.085 129.467 241.37 129.751 241.725 129.966C242.089 130.181 242.485 130.288 242.915 130.288C243.353 130.288 243.75 130.181 244.105 129.966C244.459 129.751 244.744 129.467 244.959 129.112C245.173 128.757 245.281 128.365 245.281 127.936C245.281 127.507 245.173 127.115 244.959 126.76C244.744 126.396 244.455 126.107 244.091 125.892C243.736 125.677 243.344 125.57 242.915 125.57Z" fill="black"/>
<rect x="22.939" y="194" width="323.186" height="40" rx="12" fill="#00112D"/>
<path d="M157.472 218.06C156.912 218.06 156.388 217.94 155.9 217.7C155.42 217.452 155 217.124 154.64 216.716C154.28 216.3 154 215.836 153.8 215.324C153.6 214.804 153.5 214.268 153.5 213.716C153.5 213.14 153.6 212.596 153.8 212.084C154 211.564 154.276 211.104 154.628 210.704C154.988 210.304 155.408 209.992 155.888 209.768C156.376 209.536 156.904 209.42 157.472 209.42C158.296 209.42 158.976 209.592 159.512 209.936C160.048 210.28 160.452 210.728 160.724 211.28L159.896 211.856C159.648 211.36 159.308 210.992 158.876 210.752C158.444 210.512 157.968 210.392 157.448 210.392C157.016 210.392 156.624 210.484 156.272 210.668C155.92 210.852 155.616 211.104 155.36 211.424C155.112 211.736 154.92 212.092 154.784 212.492C154.656 212.892 154.592 213.308 154.592 213.74C154.592 214.196 154.664 214.628 154.808 215.036C154.96 215.436 155.172 215.792 155.444 216.104C155.716 216.408 156.032 216.648 156.392 216.824C156.752 217 157.14 217.088 157.556 217.088C158.044 217.088 158.508 216.964 158.948 216.716C159.388 216.468 159.804 216.088 160.196 215.576V216.692C159.428 217.604 158.52 218.06 157.472 218.06ZM160.064 214.568H158.228V213.752H160.976V218H160.064V214.568ZM165.102 218.12C164.63 218.12 164.198 218.036 163.806 217.868C163.422 217.692 163.086 217.456 162.798 217.16C162.518 216.856 162.298 216.508 162.138 216.116C161.986 215.724 161.91 215.308 161.91 214.868C161.91 214.276 162.046 213.736 162.318 213.248C162.59 212.76 162.966 212.368 163.446 212.072C163.934 211.776 164.49 211.628 165.114 211.628C165.746 211.628 166.294 211.78 166.758 212.084C167.23 212.38 167.594 212.772 167.85 213.26C168.114 213.74 168.246 214.26 168.246 214.82C168.246 214.9 168.242 214.98 168.234 215.06C168.234 215.132 168.23 215.188 168.222 215.228H163.026C163.058 215.636 163.17 216 163.362 216.32C163.562 216.632 163.818 216.88 164.13 217.064C164.442 217.24 164.778 217.328 165.138 217.328C165.522 217.328 165.882 217.232 166.218 217.04C166.562 216.848 166.798 216.596 166.926 216.284L167.838 216.536C167.702 216.84 167.498 217.112 167.226 217.352C166.962 217.592 166.646 217.78 166.278 217.916C165.918 218.052 165.526 218.12 165.102 218.12ZM162.99 214.496H167.262C167.23 214.088 167.114 213.728 166.914 213.416C166.714 213.104 166.458 212.86 166.146 212.684C165.834 212.508 165.49 212.42 165.114 212.42C164.746 212.42 164.406 212.508 164.094 212.684C163.782 212.86 163.526 213.104 163.326 213.416C163.134 213.728 163.022 214.088 162.99 214.496ZM172.481 217.688C172.393 217.728 172.273 217.78 172.121 217.844C171.969 217.908 171.793 217.964 171.593 218.012C171.393 218.06 171.181 218.084 170.957 218.084C170.701 218.084 170.465 218.04 170.249 217.952C170.033 217.856 169.861 217.712 169.733 217.52C169.605 217.32 169.541 217.072 169.541 216.776V212.564H168.689V211.736H169.541V209.648H170.597V211.736H172.001V212.564H170.597V216.452C170.613 216.676 170.689 216.844 170.825 216.956C170.961 217.06 171.121 217.112 171.305 217.112C171.513 217.112 171.705 217.076 171.881 217.004C172.057 216.932 172.173 216.88 172.229 216.848L172.481 217.688ZM181.427 211.268C181.331 211.156 181.203 211.048 181.043 210.944C180.883 210.84 180.703 210.748 180.503 210.668C180.303 210.58 180.083 210.512 179.843 210.464C179.611 210.408 179.367 210.38 179.111 210.38C178.455 210.38 177.971 210.504 177.659 210.752C177.347 211 177.191 211.34 177.191 211.772C177.191 212.076 177.271 212.316 177.431 212.492C177.591 212.668 177.835 212.812 178.163 212.924C178.499 213.036 178.923 213.152 179.435 213.272C180.027 213.4 180.539 213.556 180.971 213.74C181.403 213.924 181.735 214.172 181.967 214.484C182.199 214.788 182.315 215.196 182.315 215.708C182.315 216.116 182.235 216.472 182.075 216.776C181.923 217.072 181.707 217.32 181.427 217.52C181.147 217.712 180.819 217.856 180.443 217.952C180.067 218.04 179.659 218.084 179.219 218.084C178.787 218.084 178.363 218.04 177.947 217.952C177.539 217.856 177.151 217.72 176.783 217.544C176.415 217.368 176.071 217.148 175.751 216.884L176.267 215.972C176.395 216.108 176.559 216.244 176.759 216.38C176.967 216.508 177.199 216.628 177.455 216.74C177.719 216.852 178.003 216.944 178.307 217.016C178.611 217.08 178.923 217.112 179.243 217.112C179.851 217.112 180.323 217.004 180.659 216.788C180.995 216.564 181.163 216.24 181.163 215.816C181.163 215.496 181.067 215.24 180.875 215.048C180.691 214.856 180.415 214.696 180.047 214.568C179.679 214.44 179.231 214.312 178.703 214.184C178.127 214.04 177.643 213.884 177.251 213.716C176.859 213.54 176.563 213.312 176.363 213.032C176.171 212.752 176.075 212.388 176.075 211.94C176.075 211.396 176.207 210.936 176.471 210.56C176.735 210.184 177.099 209.9 177.563 209.708C178.027 209.516 178.551 209.42 179.135 209.42C179.519 209.42 179.875 209.46 180.203 209.54C180.539 209.62 180.851 209.732 181.139 209.876C181.427 210.02 181.691 210.192 181.931 210.392L181.427 211.268ZM186.571 217.688C186.483 217.728 186.363 217.78 186.211 217.844C186.059 217.908 185.883 217.964 185.683 218.012C185.483 218.06 185.271 218.084 185.047 218.084C184.791 218.084 184.555 218.04 184.339 217.952C184.123 217.856 183.951 217.712 183.823 217.52C183.695 217.32 183.631 217.072 183.631 216.776V212.564H182.779V211.736H183.631V209.648H184.687V211.736H186.091V212.564H184.687V216.452C184.703 216.676 184.779 216.844 184.915 216.956C185.051 217.06 185.211 217.112 185.395 217.112C185.603 217.112 185.795 217.076 185.971 217.004C186.147 216.932 186.263 216.88 186.319 216.848L186.571 217.688ZM186.937 216.188C186.937 215.788 187.049 215.444 187.273 215.156C187.505 214.86 187.821 214.632 188.221 214.472C188.621 214.312 189.085 214.232 189.613 214.232C189.893 214.232 190.189 214.256 190.501 214.304C190.813 214.344 191.089 214.408 191.329 214.496V214.04C191.329 213.56 191.185 213.184 190.897 212.912C190.609 212.632 190.201 212.492 189.673 212.492C189.329 212.492 188.997 212.556 188.677 212.684C188.365 212.804 188.033 212.98 187.681 213.212L187.297 212.468C187.705 212.188 188.113 211.98 188.521 211.844C188.929 211.7 189.353 211.628 189.793 211.628C190.593 211.628 191.225 211.852 191.689 212.3C192.153 212.74 192.385 213.356 192.385 214.148V216.8C192.385 216.928 192.409 217.024 192.457 217.088C192.513 217.144 192.601 217.176 192.721 217.184V218C192.617 218.016 192.525 218.028 192.445 218.036C192.373 218.044 192.313 218.048 192.265 218.048C192.017 218.048 191.829 217.98 191.701 217.844C191.581 217.708 191.513 217.564 191.497 217.412L191.473 217.016C191.201 217.368 190.845 217.64 190.405 217.832C189.965 218.024 189.529 218.12 189.097 218.12C188.681 218.12 188.309 218.036 187.981 217.868C187.653 217.692 187.397 217.46 187.213 217.172C187.029 216.876 186.937 216.548 186.937 216.188ZM191.017 216.632C191.113 216.52 191.189 216.408 191.245 216.296C191.301 216.176 191.329 216.076 191.329 215.996V215.216C191.081 215.12 190.821 215.048 190.549 215C190.277 214.944 190.009 214.916 189.745 214.916C189.209 214.916 188.773 215.024 188.437 215.24C188.109 215.448 187.945 215.736 187.945 216.104C187.945 216.304 187.997 216.5 188.101 216.692C188.213 216.876 188.373 217.028 188.581 217.148C188.797 217.268 189.061 217.328 189.373 217.328C189.701 217.328 190.013 217.264 190.309 217.136C190.605 217 190.841 216.832 191.017 216.632ZM197.266 212.66C196.738 212.668 196.27 212.804 195.862 213.068C195.462 213.324 195.178 213.68 195.01 214.136V218H193.954V211.736H194.938V213.188C195.154 212.756 195.438 212.408 195.79 212.144C196.15 211.872 196.526 211.72 196.918 211.688C196.998 211.688 197.066 211.688 197.122 211.688C197.178 211.688 197.226 211.692 197.266 211.7V212.66ZM201.433 217.688C201.345 217.728 201.225 217.78 201.073 217.844C200.921 217.908 200.745 217.964 200.545 218.012C200.345 218.06 200.133 218.084 199.909 218.084C199.653 218.084 199.417 218.04 199.201 217.952C198.985 217.856 198.813 217.712 198.685 217.52C198.557 217.32 198.493 217.072 198.493 216.776V212.564H197.641V211.736H198.493V209.648H199.549V211.736H200.953V212.564H199.549V216.452C199.565 216.676 199.641 216.844 199.777 216.956C199.913 217.06 200.073 217.112 200.257 217.112C200.465 217.112 200.657 217.076 200.833 217.004C201.009 216.932 201.125 216.88 201.181 216.848L201.433 217.688ZM204.982 218.12C204.51 218.12 204.078 218.036 203.686 217.868C203.302 217.692 202.966 217.456 202.678 217.16C202.398 216.856 202.178 216.508 202.018 216.116C201.866 215.724 201.79 215.308 201.79 214.868C201.79 214.276 201.926 213.736 202.198 213.248C202.47 212.76 202.846 212.368 203.326 212.072C203.814 211.776 204.37 211.628 204.994 211.628C205.626 211.628 206.174 211.78 206.638 212.084C207.11 212.38 207.474 212.772 207.73 213.26C207.994 213.74 208.126 214.26 208.126 214.82C208.126 214.9 208.122 214.98 208.114 215.06C208.114 215.132 208.11 215.188 208.102 215.228H202.906C202.938 215.636 203.05 216 203.242 216.32C203.442 216.632 203.698 216.88 204.01 217.064C204.322 217.24 204.658 217.328 205.018 217.328C205.402 217.328 205.762 217.232 206.098 217.04C206.442 216.848 206.678 216.596 206.806 216.284L207.718 216.536C207.582 216.84 207.378 217.112 207.106 217.352C206.842 217.592 206.526 217.78 206.158 217.916C205.798 218.052 205.406 218.12 204.982 218.12ZM202.87 214.496H207.142C207.11 214.088 206.994 213.728 206.794 213.416C206.594 213.104 206.338 212.86 206.026 212.684C205.714 212.508 205.37 212.42 204.994 212.42C204.626 212.42 204.286 212.508 203.974 212.684C203.662 212.86 203.406 213.104 203.206 213.416C203.014 213.728 202.902 214.088 202.87 214.496ZM208.772 214.88C208.772 214.288 208.892 213.748 209.132 213.26C209.38 212.764 209.716 212.368 210.14 212.072C210.572 211.776 211.064 211.628 211.616 211.628C212.12 211.628 212.572 211.76 212.972 212.024C213.372 212.288 213.684 212.608 213.908 212.984V209.24H214.964V216.8C214.964 216.928 214.988 217.024 215.036 217.088C215.092 217.144 215.18 217.176 215.3 217.184V218C215.1 218.032 214.944 218.048 214.832 218.048C214.624 218.048 214.44 217.976 214.28 217.832C214.128 217.688 214.052 217.528 214.052 217.352V216.824C213.804 217.224 213.472 217.54 213.056 217.772C212.64 218.004 212.208 218.12 211.76 218.12C211.328 218.12 210.928 218.036 210.56 217.868C210.2 217.692 209.884 217.452 209.612 217.148C209.348 216.844 209.14 216.5 208.988 216.116C208.844 215.724 208.772 215.312 208.772 214.88ZM213.908 215.804V214.004C213.812 213.732 213.656 213.488 213.44 213.272C213.224 213.048 212.98 212.872 212.708 212.744C212.444 212.608 212.18 212.54 211.916 212.54C211.604 212.54 211.32 212.608 211.064 212.744C210.816 212.872 210.6 213.048 210.416 213.272C210.24 213.488 210.104 213.736 210.008 214.016C209.912 214.296 209.864 214.588 209.864 214.892C209.864 215.204 209.916 215.5 210.02 215.78C210.132 216.06 210.284 216.308 210.476 216.524C210.676 216.74 210.904 216.908 211.16 217.028C211.424 217.148 211.708 217.208 212.012 217.208C212.204 217.208 212.4 217.172 212.6 217.1C212.808 217.028 213.004 216.928 213.188 216.8C213.372 216.672 213.528 216.524 213.656 216.356C213.784 216.18 213.868 215.996 213.908 215.804Z" fill="white"/>
</svg>
