<svg width="316" height="211" viewBox="0 0 316 211" fill="none" xmlns="http://www.w3.org/2000/svg">
<rect width="315.23" height="211" rx="24" fill="white"/>
<path d="M26.1426 38.192C25.0333 38.192 24.0733 37.952 23.2626 37.472C22.4626 36.9813 21.844 36.304 21.4066 35.44C20.9693 34.5653 20.7506 33.5573 20.7506 32.416C20.7506 31.264 20.9693 30.256 21.4066 29.392C21.844 28.5173 22.4626 27.8347 23.2626 27.344C24.0733 26.8533 25.0333 26.608 26.1426 26.608C27.4546 26.608 28.5266 26.928 29.3586 27.568C30.1906 28.208 30.7186 29.104 30.9426 30.256H29.0546C28.9053 29.6053 28.5853 29.088 28.0946 28.704C27.604 28.32 26.948 28.128 26.1266 28.128C25.0066 28.128 24.1213 28.512 23.4706 29.28C22.82 30.0373 22.4946 31.0827 22.4946 32.416C22.4946 33.7387 22.82 34.7787 23.4706 35.536C24.1213 36.2933 25.0066 36.672 26.1266 36.672C26.948 36.672 27.604 36.4907 28.0946 36.128C28.5853 35.7653 28.9053 35.2693 29.0546 34.64H30.9426C30.7186 35.7493 30.1906 36.6187 29.3586 37.248C28.5266 37.8773 27.4546 38.192 26.1426 38.192ZM36.4549 38.192C35.6976 38.192 35.0149 38.0213 34.4069 37.68C33.8096 37.328 33.3349 36.8427 32.9829 36.224C32.6309 35.5947 32.4549 34.864 32.4549 34.032C32.4549 33.2 32.6309 32.4747 32.9829 31.856C33.3456 31.2267 33.8309 30.7413 34.4389 30.4C35.0469 30.048 35.7242 29.872 36.4709 29.872C37.2282 29.872 37.9056 30.048 38.5029 30.4C39.1109 30.7413 39.5909 31.2267 39.9429 31.856C40.3056 32.4747 40.4869 33.2 40.4869 34.032C40.4869 34.864 40.3056 35.5947 39.9429 36.224C39.5909 36.8427 39.1109 37.328 38.5029 37.68C37.8949 38.0213 37.2122 38.192 36.4549 38.192ZM36.4549 36.736C36.8602 36.736 37.2336 36.6347 37.5749 36.432C37.9269 36.2293 38.2096 35.9307 38.4229 35.536C38.6362 35.1307 38.7429 34.6293 38.7429 34.032C38.7429 33.4347 38.6362 32.9387 38.4229 32.544C38.2202 32.1387 37.9429 31.8347 37.5909 31.632C37.2496 31.4293 36.8762 31.328 36.4709 31.328C36.0656 31.328 35.6869 31.4293 35.3349 31.632C34.9936 31.8347 34.7162 32.1387 34.5029 32.544C34.2896 32.9387 34.1829 33.4347 34.1829 34.032C34.1829 34.6293 34.2896 35.1307 34.5029 35.536C34.7162 35.9307 34.9936 36.2293 35.3349 36.432C35.6762 36.6347 36.0496 36.736 36.4549 36.736ZM45.489 38.192C44.4864 38.192 43.6597 37.9467 43.009 37.456C42.3584 36.9653 41.985 36.3147 41.889 35.504H43.601C43.6864 35.8667 43.889 36.1813 44.209 36.448C44.529 36.704 44.9504 36.832 45.473 36.832C45.985 36.832 46.3584 36.7253 46.593 36.512C46.8277 36.2987 46.945 36.0533 46.945 35.776C46.945 35.3707 46.7797 35.0987 46.449 34.96C46.129 34.8107 45.681 34.6773 45.105 34.56C44.657 34.464 44.209 34.336 43.761 34.176C43.3237 34.016 42.9557 33.792 42.657 33.504C42.369 33.2053 42.225 32.8053 42.225 32.304C42.225 31.6107 42.4917 31.0347 43.025 30.576C43.5584 30.1067 44.305 29.872 45.265 29.872C46.1504 29.872 46.865 30.0853 47.409 30.512C47.9637 30.9387 48.289 31.5413 48.385 32.32H46.753C46.6997 31.9787 46.5397 31.712 46.273 31.52C46.017 31.328 45.6704 31.232 45.233 31.232C44.8064 31.232 44.4757 31.3227 44.241 31.504C44.0064 31.6747 43.889 31.8987 43.889 32.176C43.889 32.4533 44.049 32.672 44.369 32.832C44.6997 32.992 45.1317 33.136 45.665 33.264C46.1984 33.3813 46.689 33.52 47.137 33.68C47.5957 33.8293 47.9637 34.0533 48.241 34.352C48.5184 34.6507 48.657 35.088 48.657 35.664C48.6677 36.3893 48.385 36.992 47.809 37.472C47.2437 37.952 46.4704 38.192 45.489 38.192ZM53.5396 38C52.761 38 52.1423 37.8133 51.6836 37.44C51.225 37.056 50.9956 36.3787 50.9956 35.408V31.488H49.6356V30.064H50.9956L51.2036 28.048H52.6916V30.064H54.9316V31.488H52.6916V35.408C52.6916 35.8453 52.7823 36.1493 52.9636 36.32C53.1556 36.48 53.481 36.56 53.9396 36.56H54.8516V38H53.5396ZM60.7756 38V26.8H64.6316C65.517 26.8 66.2423 26.9493 66.8076 27.248C67.3836 27.5467 67.8103 27.952 68.0876 28.464C68.365 28.9653 68.5036 29.5253 68.5036 30.144C68.5036 30.8373 68.317 31.4667 67.9436 32.032C67.581 32.5973 67.0103 33.0027 66.2316 33.248L68.6156 38H66.6476L64.4716 33.488H62.4716V38H60.7756ZM62.4716 32.208H64.5356C65.3036 32.208 65.8636 32.0213 66.2156 31.648C66.5783 31.2747 66.7596 30.7893 66.7596 30.192C66.7596 29.5947 66.5836 29.12 66.2316 28.768C65.8796 28.4053 65.309 28.224 64.5196 28.224H62.4716V32.208ZM73.6736 38.192C72.895 38.192 72.2016 38.0213 71.5936 37.68C70.9963 37.328 70.527 36.8427 70.1856 36.224C69.8443 35.6053 69.6736 34.8853 69.6736 34.064C69.6736 33.232 69.839 32.5013 70.1696 31.872C70.511 31.2427 70.9803 30.752 71.5776 30.4C72.1856 30.048 72.8896 29.872 73.6896 29.872C74.4683 29.872 75.1456 30.048 75.7216 30.4C76.2976 30.7413 76.7456 31.2 77.0656 31.776C77.3856 32.352 77.5456 32.9867 77.5456 33.68C77.5456 33.7867 77.5403 33.904 77.5296 34.032C77.5296 34.1493 77.5243 34.2827 77.5136 34.432H71.3376C71.391 35.2 71.6416 35.7867 72.0896 36.192C72.5483 36.5867 73.0763 36.784 73.6736 36.784C74.1536 36.784 74.5536 36.6773 74.8736 36.464C75.2043 36.24 75.4496 35.9413 75.6096 35.568H77.3056C77.0923 36.3147 76.6656 36.9387 76.0256 37.44C75.3963 37.9413 74.6123 38.192 73.6736 38.192ZM73.6736 31.264C73.1083 31.264 72.607 31.4347 72.1696 31.776C71.7323 32.1067 71.4656 32.608 71.3696 33.28H75.8496C75.8176 32.6613 75.599 32.1707 75.1936 31.808C74.7883 31.4453 74.2816 31.264 73.6736 31.264ZM82.9214 38.192C82.1534 38.192 81.4761 38.0107 80.8894 37.648C80.3027 37.2853 79.8441 36.7893 79.5134 36.16C79.1827 35.5307 79.0174 34.816 79.0174 34.016C79.0174 33.216 79.1827 32.5067 79.5134 31.888C79.8441 31.2587 80.3027 30.768 80.8894 30.416C81.4867 30.0533 82.1694 29.872 82.9374 29.872C83.5667 29.872 84.1161 29.9947 84.5854 30.24C85.0654 30.4853 85.4387 30.832 85.7054 31.28V26.48H87.4014V38H85.8814L85.7054 36.768C85.4494 37.1413 85.0974 37.472 84.6494 37.76C84.2014 38.048 83.6254 38.192 82.9214 38.192ZM83.2254 36.72C83.9507 36.72 84.5427 36.4693 85.0014 35.968C85.4707 35.4667 85.7054 34.8213 85.7054 34.032C85.7054 33.232 85.4707 32.5867 85.0014 32.096C84.5427 31.5947 83.9507 31.344 83.2254 31.344C82.5001 31.344 81.9027 31.5947 81.4334 32.096C80.9641 32.5867 80.7294 33.232 80.7294 34.032C80.7294 34.5547 80.8361 35.0187 81.0494 35.424C81.2627 35.8293 81.5561 36.1493 81.9294 36.384C82.3134 36.608 82.7454 36.72 83.2254 36.72ZM92.4678 38.192C91.5078 38.192 90.7504 37.8933 90.1958 37.296C89.6518 36.6987 89.3798 35.808 89.3798 34.624V30.064H91.0758V34.448C91.0758 35.984 91.7051 36.752 92.9638 36.752C93.5931 36.752 94.1104 36.528 94.5158 36.08C94.9211 35.632 95.1238 34.992 95.1238 34.16V30.064H96.8198V38H95.3158L95.1878 36.608C94.9424 37.0987 94.5798 37.488 94.0998 37.776C93.6304 38.0533 93.0864 38.192 92.4678 38.192ZM102.737 38.192C101.959 38.192 101.26 38.016 100.641 37.664C100.033 37.312 99.5533 36.8267 99.2013 36.208C98.8599 35.5787 98.6893 34.8533 98.6893 34.032C98.6893 33.2107 98.8599 32.4907 99.2013 31.872C99.5533 31.2427 100.033 30.752 100.641 30.4C101.26 30.048 101.959 29.872 102.737 29.872C103.719 29.872 104.54 30.128 105.201 30.64C105.873 31.152 106.305 31.8453 106.497 32.72H104.721C104.615 32.2827 104.38 31.9413 104.017 31.696C103.655 31.4507 103.228 31.328 102.737 31.328C102.321 31.328 101.937 31.4347 101.585 31.648C101.233 31.8507 100.951 32.1547 100.737 32.56C100.524 32.9547 100.417 33.4453 100.417 34.032C100.417 34.6187 100.524 35.1147 100.737 35.52C100.951 35.9147 101.233 36.2187 101.585 36.432C101.937 36.6453 102.321 36.752 102.737 36.752C103.228 36.752 103.655 36.6293 104.017 36.384C104.38 36.1387 104.615 35.792 104.721 35.344H106.497C106.316 36.1973 105.889 36.8853 105.217 37.408C104.545 37.9307 103.719 38.192 102.737 38.192ZM111.508 38C110.73 38 110.111 37.8133 109.652 37.44C109.194 37.056 108.964 36.3787 108.964 35.408V31.488H107.604V30.064H108.964L109.172 28.048H110.66V30.064H112.9V31.488H110.66V35.408C110.66 35.8453 110.751 36.1493 110.932 36.32C111.124 36.48 111.45 36.56 111.908 36.56H112.82V38H111.508ZM115.609 28.56C115.289 28.56 115.022 28.464 114.809 28.272C114.606 28.0693 114.505 27.8187 114.505 27.52C114.505 27.2213 114.606 26.976 114.809 26.784C115.022 26.5813 115.289 26.48 115.609 26.48C115.929 26.48 116.19 26.5813 116.393 26.784C116.606 26.976 116.713 27.2213 116.713 27.52C116.713 27.8187 116.606 28.0693 116.393 28.272C116.19 28.464 115.929 28.56 115.609 28.56ZM114.761 38V30.064H116.457V38H114.761ZM122.408 38.192C121.651 38.192 120.968 38.0213 120.36 37.68C119.763 37.328 119.288 36.8427 118.936 36.224C118.584 35.5947 118.408 34.864 118.408 34.032C118.408 33.2 118.584 32.4747 118.936 31.856C119.299 31.2267 119.784 30.7413 120.392 30.4C121 30.048 121.677 29.872 122.424 29.872C123.181 29.872 123.859 30.048 124.456 30.4C125.064 30.7413 125.544 31.2267 125.896 31.856C126.259 32.4747 126.44 33.2 126.44 34.032C126.44 34.864 126.259 35.5947 125.896 36.224C125.544 36.8427 125.064 37.328 124.456 37.68C123.848 38.0213 123.165 38.192 122.408 38.192ZM122.408 36.736C122.813 36.736 123.187 36.6347 123.528 36.432C123.88 36.2293 124.163 35.9307 124.376 35.536C124.589 35.1307 124.696 34.6293 124.696 34.032C124.696 33.4347 124.589 32.9387 124.376 32.544C124.173 32.1387 123.896 31.8347 123.544 31.632C123.203 31.4293 122.829 31.328 122.424 31.328C122.019 31.328 121.64 31.4293 121.288 31.632C120.947 31.8347 120.669 32.1387 120.456 32.544C120.243 32.9387 120.136 33.4347 120.136 34.032C120.136 34.6293 120.243 35.1307 120.456 35.536C120.669 35.9307 120.947 36.2293 121.288 36.432C121.629 36.6347 122.003 36.736 122.408 36.736ZM128.274 38V30.064H129.778L129.906 31.456C130.151 30.9653 130.509 30.5813 130.978 30.304C131.458 30.016 132.007 29.872 132.626 29.872C133.586 29.872 134.338 30.1707 134.882 30.768C135.437 31.3653 135.714 32.256 135.714 33.44V38H134.034V33.616C134.034 32.08 133.405 31.312 132.146 31.312C131.517 31.312 130.994 31.536 130.578 31.984C130.173 32.432 129.97 33.072 129.97 33.904V38H128.274Z" fill="#00112D"/>
<rect x="236.616" y="20" width="55.5564" height="26" rx="13" fill="#F3F3F6"/>
<path fill-rule="evenodd" clip-rule="evenodd" d="M249.9 30.2778C249.9 29.974 250.146 29.7278 250.45 29.7278L255.117 29.7278C255.42 29.7278 255.667 29.974 255.667 30.2778L255.667 34.9447C255.667 35.2484 255.42 35.4947 255.117 35.4947C254.813 35.4947 254.567 35.2484 254.567 34.9447L254.567 31.6056L250.061 36.1114C249.846 36.3262 249.498 36.3262 249.283 36.1114C249.068 35.8966 249.068 35.5484 249.283 35.3336L253.789 30.8278L250.45 30.8278C250.146 30.8278 249.9 30.5815 249.9 30.2778Z" fill="#635BFF"/>
<path d="M261.492 36.5L264.473 29.801H260.469V28.8H265.672V29.647L262.713 36.5H261.492ZM269.452 36.632C268.888 36.632 268.411 36.5257 268.022 36.313C267.634 36.1003 267.318 35.818 267.076 35.466C266.842 35.114 266.673 34.718 266.57 34.278C266.468 33.838 266.416 33.387 266.416 32.925C266.416 32.0743 266.534 31.33 266.768 30.692C267.01 30.054 267.355 29.559 267.802 29.207C268.25 28.8477 268.792 28.668 269.43 28.668C269.936 28.668 270.369 28.767 270.728 28.965C271.088 29.163 271.366 29.427 271.564 29.757C271.77 30.087 271.894 30.4463 271.938 30.835H270.849C270.783 30.4537 270.626 30.1603 270.376 29.955C270.127 29.7497 269.808 29.647 269.419 29.647C268.884 29.647 268.44 29.9 268.088 30.406C267.744 30.9047 267.56 31.6747 267.538 32.716C267.714 32.3933 267.986 32.1183 268.352 31.891C268.726 31.6637 269.155 31.55 269.639 31.55C270.072 31.55 270.475 31.6527 270.849 31.858C271.231 32.0633 271.539 32.353 271.773 32.727C272.015 33.0937 272.136 33.53 272.136 34.036C272.136 34.4833 272.026 34.905 271.806 35.301C271.586 35.697 271.275 36.0197 270.871 36.269C270.475 36.511 270.002 36.632 269.452 36.632ZM269.386 35.62C269.694 35.62 269.969 35.554 270.211 35.422C270.453 35.29 270.644 35.1103 270.783 34.883C270.923 34.6483 270.992 34.3843 270.992 34.091C270.992 33.6217 270.838 33.2477 270.53 32.969C270.23 32.6903 269.845 32.551 269.375 32.551C269.067 32.551 268.789 32.6207 268.539 32.76C268.297 32.8993 268.107 33.0863 267.967 33.321C267.828 33.5483 267.758 33.8013 267.758 34.08C267.758 34.3807 267.828 34.6483 267.967 34.883C268.114 35.1103 268.308 35.29 268.55 35.422C268.8 35.554 269.078 35.62 269.386 35.62ZM274.921 32.474C274.576 32.474 274.264 32.397 273.986 32.243C273.714 32.089 273.498 31.8727 273.337 31.594C273.175 31.308 273.095 30.967 273.095 30.571C273.095 30.1823 273.175 29.8487 273.337 29.57C273.498 29.284 273.718 29.064 273.997 28.91C274.275 28.756 274.587 28.679 274.932 28.679C275.269 28.679 275.573 28.756 275.845 28.91C276.123 29.064 276.343 29.284 276.505 29.57C276.666 29.8487 276.747 30.1823 276.747 30.571C276.747 30.967 276.666 31.308 276.505 31.594C276.343 31.8727 276.123 32.089 275.845 32.243C275.573 32.397 275.265 32.474 274.921 32.474ZM274.371 36.5L278.782 28.8H279.926L275.526 36.5H274.371ZM274.921 31.638C275.155 31.638 275.357 31.55 275.526 31.374C275.702 31.1907 275.79 30.923 275.79 30.571C275.79 30.219 275.705 29.955 275.537 29.779C275.368 29.5957 275.163 29.504 274.921 29.504C274.686 29.504 274.481 29.5957 274.305 29.779C274.129 29.955 274.041 30.219 274.041 30.571C274.041 30.923 274.125 31.1907 274.294 31.374C274.47 31.55 274.679 31.638 274.921 31.638ZM279.442 36.632C279.097 36.632 278.785 36.555 278.507 36.401C278.235 36.247 278.019 36.0307 277.858 35.752C277.696 35.466 277.616 35.125 277.616 34.729C277.616 34.3403 277.696 34.003 277.858 33.717C278.019 33.431 278.239 33.211 278.518 33.057C278.796 32.903 279.108 32.826 279.453 32.826C279.79 32.826 280.094 32.903 280.366 33.057C280.644 33.211 280.864 33.431 281.026 33.717C281.187 34.003 281.268 34.3403 281.268 34.729C281.268 35.125 281.187 35.466 281.026 35.752C280.864 36.0307 280.644 36.247 280.366 36.401C280.094 36.555 279.786 36.632 279.442 36.632ZM279.442 35.785C279.676 35.785 279.878 35.697 280.047 35.521C280.223 35.345 280.311 35.081 280.311 34.729C280.311 34.377 280.226 34.113 280.058 33.937C279.889 33.7537 279.684 33.662 279.442 33.662C279.207 33.662 279.002 33.7537 278.826 33.937C278.65 34.113 278.562 34.377 278.562 34.729C278.562 35.081 278.646 35.345 278.815 35.521C278.991 35.697 279.2 35.785 279.442 35.785Z" fill="#635BFF"/>
<path d="M22.0946 69.696V69.08C21.572 69.0213 21.1533 68.8373 20.8386 68.528C20.524 68.2187 20.364 67.8133 20.3586 67.312H21.2546C21.26 67.5627 21.3346 67.784 21.4786 67.976C21.6226 68.1627 21.828 68.288 22.0946 68.352V66.424C22.052 66.4133 22.0066 66.4 21.9586 66.384C21.916 66.368 21.8706 66.352 21.8226 66.336C21.3906 66.192 21.0653 66.0053 20.8466 65.776C20.6333 65.5467 20.5266 65.2453 20.5266 64.872C20.5213 64.4347 20.6626 64.0773 20.9506 63.8C21.2386 63.5227 21.62 63.36 22.0946 63.312V62.672H22.6386V63.32C23.1026 63.3733 23.476 63.5413 23.7586 63.824C24.0413 64.1067 24.1853 64.4613 24.1906 64.888H23.2946C23.2893 64.712 23.2306 64.5467 23.1186 64.392C23.012 64.232 22.852 64.1227 22.6386 64.064V65.776C22.6813 65.792 22.724 65.808 22.7666 65.824C22.8093 65.8347 22.852 65.848 22.8946 65.864C23.172 65.9547 23.42 66.064 23.6386 66.192C23.8573 66.32 24.0306 66.488 24.1586 66.696C24.292 66.904 24.3586 67.168 24.3586 67.488C24.3586 67.7547 24.2946 68.0053 24.1666 68.24C24.0386 68.4693 23.8466 68.6613 23.5906 68.816C23.3346 68.9707 23.0173 69.0613 22.6386 69.088V69.696H22.0946ZM21.4066 64.8C21.4066 65.0133 21.468 65.1787 21.5906 65.296C21.7133 65.408 21.8813 65.5067 22.0946 65.592V64.04C21.892 64.0773 21.7266 64.1627 21.5986 64.296C21.4706 64.424 21.4066 64.592 21.4066 64.8ZM23.4626 67.544C23.4626 67.2827 23.3853 67.0853 23.2306 66.952C23.076 66.8133 22.8786 66.6987 22.6386 66.608V68.368C22.9 68.336 23.1026 68.2453 23.2466 68.096C23.3906 67.9467 23.4626 67.7627 23.4626 67.544ZM25.8618 69V64.36L24.9578 64.568V63.944L26.1978 63.4H26.7418V69H25.8618ZM30.1195 69.096C29.6129 69.096 29.1755 68.976 28.8075 68.736C28.4449 68.4907 28.1649 68.152 27.9675 67.72C27.7755 67.2827 27.6795 66.776 27.6795 66.2C27.6795 65.624 27.7755 65.12 27.9675 64.688C28.1649 64.2507 28.4449 63.912 28.8075 63.672C29.1755 63.4267 29.6129 63.304 30.1195 63.304C30.6262 63.304 31.0609 63.4267 31.4235 63.672C31.7862 63.912 32.0635 64.2507 32.2555 64.688C32.4529 65.12 32.5515 65.624 32.5515 66.2C32.5515 66.776 32.4529 67.2827 32.2555 67.72C32.0635 68.152 31.7862 68.4907 31.4235 68.736C31.0609 68.976 30.6262 69.096 30.1195 69.096ZM30.1195 68.336C30.4235 68.336 30.6929 68.2507 30.9275 68.08C31.1675 67.9093 31.3542 67.664 31.4875 67.344C31.6209 67.024 31.6875 66.6427 31.6875 66.2C31.6875 65.7573 31.6209 65.376 31.4875 65.056C31.3542 64.736 31.1675 64.4907 30.9275 64.32C30.6929 64.1493 30.4235 64.064 30.1195 64.064C29.8102 64.064 29.5382 64.1493 29.3035 64.32C29.0689 64.4907 28.8849 64.736 28.7515 65.056C28.6182 65.376 28.5515 65.7573 28.5515 66.2C28.5515 66.6427 28.6182 67.024 28.7515 67.344C28.8849 67.664 29.0689 67.9093 29.3035 68.08C29.5382 68.2507 29.8102 68.336 30.1195 68.336ZM35.7367 69.096C35.23 69.096 34.7927 68.976 34.4247 68.736C34.062 68.4907 33.782 68.152 33.5847 67.72C33.3927 67.2827 33.2967 66.776 33.2967 66.2C33.2967 65.624 33.3927 65.12 33.5847 64.688C33.782 64.2507 34.062 63.912 34.4247 63.672C34.7927 63.4267 35.23 63.304 35.7367 63.304C36.2434 63.304 36.678 63.4267 37.0407 63.672C37.4034 63.912 37.6807 64.2507 37.8727 64.688C38.07 65.12 38.1687 65.624 38.1687 66.2C38.1687 66.776 38.07 67.2827 37.8727 67.72C37.6807 68.152 37.4034 68.4907 37.0407 68.736C36.678 68.976 36.2434 69.096 35.7367 69.096ZM35.7367 68.336C36.0407 68.336 36.31 68.2507 36.5447 68.08C36.7847 67.9093 36.9714 67.664 37.1047 67.344C37.238 67.024 37.3047 66.6427 37.3047 66.2C37.3047 65.7573 37.238 65.376 37.1047 65.056C36.9714 64.736 36.7847 64.4907 36.5447 64.32C36.31 64.1493 36.0407 64.064 35.7367 64.064C35.4274 64.064 35.1554 64.1493 34.9207 64.32C34.686 64.4907 34.502 64.736 34.3687 65.056C34.2354 65.376 34.1687 65.7573 34.1687 66.2C34.1687 66.6427 34.2354 67.024 34.3687 67.344C34.502 67.664 34.686 67.9093 34.9207 68.08C35.1554 68.2507 35.4274 68.336 35.7367 68.336Z" fill="#A5AEC0"/>
<path d="M22.0946 101.696V101.08C21.572 101.021 21.1533 100.837 20.8386 100.528C20.524 100.219 20.364 99.8133 20.3586 99.312H21.2546C21.26 99.5627 21.3346 99.784 21.4786 99.976C21.6226 100.163 21.828 100.288 22.0946 100.352V98.424C22.052 98.4133 22.0066 98.4 21.9586 98.384C21.916 98.368 21.8706 98.352 21.8226 98.336C21.3906 98.192 21.0653 98.0053 20.8466 97.776C20.6333 97.5467 20.5266 97.2453 20.5266 96.872C20.5213 96.4347 20.6626 96.0773 20.9506 95.8C21.2386 95.5227 21.62 95.36 22.0946 95.312V94.672H22.6386V95.32C23.1026 95.3733 23.476 95.5413 23.7586 95.824C24.0413 96.1067 24.1853 96.4613 24.1906 96.888H23.2946C23.2893 96.712 23.2306 96.5467 23.1186 96.392C23.012 96.232 22.852 96.1227 22.6386 96.064V97.776C22.6813 97.792 22.724 97.808 22.7666 97.824C22.8093 97.8347 22.852 97.848 22.8946 97.864C23.172 97.9547 23.42 98.064 23.6386 98.192C23.8573 98.32 24.0306 98.488 24.1586 98.696C24.292 98.904 24.3586 99.168 24.3586 99.488C24.3586 99.7547 24.2946 100.005 24.1666 100.24C24.0386 100.469 23.8466 100.661 23.5906 100.816C23.3346 100.971 23.0173 101.061 22.6386 101.088V101.696H22.0946ZM21.4066 96.8C21.4066 97.0133 21.468 97.1787 21.5906 97.296C21.7133 97.408 21.8813 97.5067 22.0946 97.592V96.04C21.892 96.0773 21.7266 96.1627 21.5986 96.296C21.4706 96.424 21.4066 96.592 21.4066 96.8ZM23.4626 99.544C23.4626 99.2827 23.3853 99.0853 23.2306 98.952C23.076 98.8133 22.8786 98.6987 22.6386 98.608V100.368C22.9 100.336 23.1026 100.245 23.2466 100.096C23.3906 99.9467 23.4626 99.7627 23.4626 99.544ZM27.2378 101.096C26.8431 101.096 26.5018 101.027 26.2138 100.888C25.9258 100.744 25.6964 100.549 25.5258 100.304C25.3604 100.053 25.2591 99.7707 25.2218 99.456H26.0538C26.1071 99.7227 26.2404 99.944 26.4538 100.12C26.6671 100.291 26.9311 100.376 27.2458 100.376C27.4804 100.376 27.6831 100.32 27.8538 100.208C28.0244 100.091 28.1578 99.936 28.2538 99.744C28.3498 99.552 28.3978 99.336 28.3978 99.096C28.3978 98.7173 28.2911 98.416 28.0778 98.192C27.8644 97.9627 27.5951 97.848 27.2698 97.848C26.9924 97.848 26.7551 97.9147 26.5578 98.048C26.3604 98.176 26.2164 98.3387 26.1258 98.536H25.3178L25.7978 95.4H28.8218V96.144H26.4378L26.1498 97.64C26.2724 97.5013 26.4404 97.3867 26.6538 97.296C26.8724 97.2 27.1178 97.152 27.3898 97.152C27.7684 97.152 28.0938 97.24 28.3658 97.416C28.6378 97.5867 28.8458 97.8187 28.9898 98.112C29.1391 98.4053 29.2138 98.7307 29.2138 99.088C29.2138 99.4613 29.1338 99.8 28.9738 100.104C28.8138 100.408 28.5844 100.651 28.2858 100.832C27.9924 101.008 27.6431 101.096 27.2378 101.096ZM32.4555 101.096C31.9488 101.096 31.5115 100.976 31.1435 100.736C30.7808 100.491 30.5008 100.152 30.3035 99.72C30.1115 99.2827 30.0155 98.776 30.0155 98.2C30.0155 97.624 30.1115 97.12 30.3035 96.688C30.5008 96.2507 30.7808 95.912 31.1435 95.672C31.5115 95.4267 31.9488 95.304 32.4555 95.304C32.9621 95.304 33.3968 95.4267 33.7595 95.672C34.1221 95.912 34.3995 96.2507 34.5915 96.688C34.7888 97.12 34.8875 97.624 34.8875 98.2C34.8875 98.776 34.7888 99.2827 34.5915 99.72C34.3995 100.152 34.1221 100.491 33.7595 100.736C33.3968 100.976 32.9621 101.096 32.4555 101.096ZM32.4555 100.336C32.7595 100.336 33.0288 100.251 33.2635 100.08C33.5035 99.9093 33.6901 99.664 33.8235 99.344C33.9568 99.024 34.0235 98.6427 34.0235 98.2C34.0235 97.7573 33.9568 97.376 33.8235 97.056C33.6901 96.736 33.5035 96.4907 33.2635 96.32C33.0288 96.1493 32.7595 96.064 32.4555 96.064C32.1461 96.064 31.8741 96.1493 31.6395 96.32C31.4048 96.4907 31.2208 96.736 31.0875 97.056C30.9541 97.376 30.8875 97.7573 30.8875 98.2C30.8875 98.6427 30.9541 99.024 31.0875 99.344C31.2208 99.664 31.4048 99.9093 31.6395 100.08C31.8741 100.251 32.1461 100.336 32.4555 100.336Z" fill="#A5AEC0"/>
<path d="M22.0946 133.696V133.08C21.572 133.021 21.1533 132.837 20.8386 132.528C20.524 132.219 20.364 131.813 20.3586 131.312H21.2546C21.26 131.563 21.3346 131.784 21.4786 131.976C21.6226 132.163 21.828 132.288 22.0946 132.352V130.424C22.052 130.413 22.0066 130.4 21.9586 130.384C21.916 130.368 21.8706 130.352 21.8226 130.336C21.3906 130.192 21.0653 130.005 20.8466 129.776C20.6333 129.547 20.5266 129.245 20.5266 128.872C20.5213 128.435 20.6626 128.077 20.9506 127.8C21.2386 127.523 21.62 127.36 22.0946 127.312V126.672H22.6386V127.32C23.1026 127.373 23.476 127.541 23.7586 127.824C24.0413 128.107 24.1853 128.461 24.1906 128.888H23.2946C23.2893 128.712 23.2306 128.547 23.1186 128.392C23.012 128.232 22.852 128.123 22.6386 128.064V129.776C22.6813 129.792 22.724 129.808 22.7666 129.824C22.8093 129.835 22.852 129.848 22.8946 129.864C23.172 129.955 23.42 130.064 23.6386 130.192C23.8573 130.32 24.0306 130.488 24.1586 130.696C24.292 130.904 24.3586 131.168 24.3586 131.488C24.3586 131.755 24.2946 132.005 24.1666 132.24C24.0386 132.469 23.8466 132.661 23.5906 132.816C23.3346 132.971 23.0173 133.061 22.6386 133.088V133.696H22.0946ZM21.4066 128.8C21.4066 129.013 21.468 129.179 21.5906 129.296C21.7133 129.408 21.8813 129.507 22.0946 129.592V128.04C21.892 128.077 21.7266 128.163 21.5986 128.296C21.4706 128.424 21.4066 128.592 21.4066 128.8ZM23.4626 131.544C23.4626 131.283 23.3853 131.085 23.2306 130.952C23.076 130.813 22.8786 130.699 22.6386 130.608V132.368C22.9 132.336 23.1026 132.245 23.2466 132.096C23.3906 131.947 23.4626 131.763 23.4626 131.544ZM25.1738 133V132.392C25.5364 132.104 25.8831 131.813 26.2138 131.52C26.5444 131.227 26.8378 130.939 27.0938 130.656C27.3551 130.368 27.5604 130.088 27.7098 129.816C27.8591 129.539 27.9338 129.272 27.9338 129.016C27.9338 128.845 27.9044 128.685 27.8458 128.536C27.7871 128.381 27.6911 128.259 27.5578 128.168C27.4244 128.072 27.2458 128.024 27.0218 128.024C26.6858 128.024 26.4324 128.131 26.2618 128.344C26.0964 128.557 26.0164 128.813 26.0218 129.112H25.1978C25.2031 128.717 25.2858 128.387 25.4458 128.12C25.6111 127.853 25.8298 127.651 26.1018 127.512C26.3791 127.373 26.6911 127.304 27.0378 127.304C27.5658 127.304 27.9871 127.453 28.3018 127.752C28.6218 128.045 28.7818 128.456 28.7818 128.984C28.7818 129.299 28.7044 129.611 28.5498 129.92C28.4004 130.229 28.2031 130.528 27.9578 130.816C27.7178 131.099 27.4591 131.365 27.1818 131.616C26.9044 131.867 26.6404 132.093 26.3898 132.296H28.9498V133H25.1738ZM31.8159 133.096C31.4212 133.096 31.0799 133.027 30.7919 132.888C30.5039 132.744 30.2746 132.549 30.1039 132.304C29.9386 132.053 29.8372 131.771 29.7999 131.456H30.6319C30.6852 131.723 30.8186 131.944 31.0319 132.12C31.2452 132.291 31.5092 132.376 31.8239 132.376C32.0586 132.376 32.2612 132.32 32.4319 132.208C32.6026 132.091 32.7359 131.936 32.8319 131.744C32.9279 131.552 32.9759 131.336 32.9759 131.096C32.9759 130.717 32.8692 130.416 32.6559 130.192C32.4426 129.963 32.1732 129.848 31.8479 129.848C31.5706 129.848 31.3332 129.915 31.1359 130.048C30.9386 130.176 30.7946 130.339 30.7039 130.536H29.8959L30.3759 127.4H33.3999V128.144H31.0159L30.7279 129.64C30.8506 129.501 31.0186 129.387 31.2319 129.296C31.4506 129.2 31.6959 129.152 31.9679 129.152C32.3466 129.152 32.6719 129.24 32.9439 129.416C33.2159 129.587 33.4239 129.819 33.5679 130.112C33.7172 130.405 33.7919 130.731 33.7919 131.088C33.7919 131.461 33.7119 131.8 33.5519 132.104C33.3919 132.408 33.1626 132.651 32.8639 132.832C32.5706 133.008 32.2212 133.096 31.8159 133.096Z" fill="#A5AEC0"/>
<path d="M52.4941 187.595V186.987C52.8568 186.699 53.2034 186.408 53.5341 186.115C53.8648 185.821 54.1581 185.533 54.4141 185.251C54.6754 184.963 54.8808 184.683 55.0301 184.411C55.1794 184.133 55.2541 183.867 55.2541 183.611C55.2541 183.44 55.2248 183.28 55.1661 183.131C55.1074 182.976 55.0114 182.853 54.8781 182.763C54.7448 182.667 54.5661 182.619 54.3421 182.619C54.0061 182.619 53.7528 182.725 53.5821 182.939C53.4168 183.152 53.3368 183.408 53.3421 183.707H52.5181C52.5234 183.312 52.6061 182.981 52.7661 182.715C52.9314 182.448 53.1501 182.245 53.4221 182.107C53.6994 181.968 54.0114 181.899 54.3581 181.899C54.8861 181.899 55.3074 182.048 55.6221 182.347C55.9421 182.64 56.1021 183.051 56.1021 183.579C56.1021 183.893 56.0248 184.205 55.8701 184.515C55.7208 184.824 55.5234 185.123 55.2781 185.411C55.0381 185.693 54.7794 185.96 54.5021 186.211C54.2248 186.461 53.9608 186.688 53.7101 186.891H56.2701V187.595H52.4941ZM58.8398 187.595L60.9038 181.995H61.8318L63.8798 187.595H62.9838L62.5038 186.227H60.2158L59.7358 187.595H58.8398ZM60.4558 185.555H62.2638L61.3598 183.003L60.4558 185.555ZM64.6288 189.355V183.627H65.3888L65.4768 184.243C65.6048 184.056 65.7808 183.891 66.0048 183.747C66.2288 183.603 66.5168 183.531 66.8688 183.531C67.2528 183.531 67.5914 183.621 67.8848 183.803C68.1781 183.984 68.4074 184.232 68.5728 184.547C68.7434 184.861 68.8288 185.219 68.8288 185.619C68.8288 186.019 68.7434 186.376 68.5728 186.691C68.4074 187 68.1781 187.245 67.8848 187.427C67.5914 187.603 67.2501 187.691 66.8608 187.691C66.5514 187.691 66.2768 187.629 66.0368 187.507C65.8021 187.384 65.6154 187.211 65.4768 186.987V189.355H64.6288ZM66.7168 186.955C67.0794 186.955 67.3781 186.832 67.6128 186.587C67.8474 186.336 67.9648 186.011 67.9648 185.611C67.9648 185.349 67.9114 185.117 67.8048 184.915C67.6981 184.712 67.5514 184.555 67.3648 184.443C67.1781 184.325 66.9621 184.267 66.7168 184.267C66.3541 184.267 66.0554 184.392 65.8208 184.643C65.5914 184.893 65.4768 185.216 65.4768 185.611C65.4768 186.011 65.5914 186.336 65.8208 186.587C66.0554 186.832 66.3541 186.955 66.7168 186.955ZM69.746 187.595V183.627H70.506L70.578 184.379C70.7166 184.117 70.9086 183.912 71.154 183.763C71.4046 183.608 71.706 183.531 72.058 183.531V184.419H71.826C71.5913 184.419 71.3806 184.459 71.194 184.539C71.0126 184.613 70.866 184.744 70.754 184.931C70.6473 185.112 70.594 185.365 70.594 185.691V187.595H69.746Z" fill="#A5AEC0"/>
<path d="M95.5159 187.691C95.1479 187.691 94.8332 187.619 94.5719 187.475C94.3105 187.331 94.1052 187.139 93.9559 186.899C93.8119 186.659 93.7239 186.397 93.6919 186.115H94.4839C94.5319 186.392 94.6465 186.605 94.8279 186.755C95.0092 186.904 95.2412 186.979 95.5239 186.979C95.9132 186.979 96.2332 186.797 96.4839 186.435C96.7399 186.067 96.8759 185.504 96.8919 184.747C96.7639 184.981 96.5639 185.181 96.2919 185.347C96.0252 185.512 95.7159 185.595 95.3639 185.595C95.0492 185.595 94.7532 185.52 94.4759 185.371C94.1985 185.221 93.9745 185.013 93.8039 184.747C93.6332 184.475 93.5479 184.155 93.5479 183.787C93.5479 183.461 93.6279 183.155 93.7879 182.867C93.9479 182.579 94.1719 182.347 94.4599 182.171C94.7532 181.989 95.0999 181.899 95.4999 181.899C95.9105 181.899 96.2572 181.976 96.5399 182.131C96.8225 182.285 97.0492 182.491 97.2199 182.747C97.3905 183.003 97.5132 183.291 97.5879 183.611C97.6679 183.931 97.7079 184.259 97.7079 184.595C97.7079 185.213 97.6199 185.755 97.4439 186.219C97.2732 186.683 97.0252 187.045 96.6999 187.307C96.3745 187.563 95.9799 187.691 95.5159 187.691ZM95.5559 184.867C95.7799 184.867 95.9799 184.816 96.1559 184.715C96.3319 184.613 96.4705 184.48 96.5719 184.315C96.6785 184.144 96.7319 183.957 96.7319 183.755C96.7319 183.536 96.6785 183.344 96.5719 183.179C96.4705 183.008 96.3292 182.875 96.1479 182.779C95.9719 182.683 95.7719 182.635 95.5479 182.635C95.3239 182.635 95.1239 182.683 94.9479 182.779C94.7719 182.875 94.6305 183.008 94.5239 183.179C94.4225 183.344 94.3719 183.533 94.3719 183.747C94.3719 184.088 94.4839 184.36 94.7079 184.563C94.9319 184.765 95.2145 184.867 95.5559 184.867ZM100.346 187.595L102.41 181.995H103.338L105.386 187.595H104.49L104.01 186.227H101.722L101.242 187.595H100.346ZM101.962 185.555H103.77L102.866 183.003L101.962 185.555ZM106.135 189.355V183.627H106.895L106.983 184.243C107.111 184.056 107.287 183.891 107.511 183.747C107.735 183.603 108.023 183.531 108.375 183.531C108.759 183.531 109.098 183.621 109.391 183.803C109.684 183.984 109.914 184.232 110.079 184.547C110.25 184.861 110.335 185.219 110.335 185.619C110.335 186.019 110.25 186.376 110.079 186.691C109.914 187 109.684 187.245 109.391 187.427C109.098 187.603 108.756 187.691 108.367 187.691C108.058 187.691 107.783 187.629 107.543 187.507C107.308 187.384 107.122 187.211 106.983 186.987V189.355H106.135ZM108.223 186.955C108.586 186.955 108.884 186.832 109.119 186.587C109.354 186.336 109.471 186.011 109.471 185.611C109.471 185.349 109.418 185.117 109.311 184.915C109.204 184.712 109.058 184.555 108.871 184.443C108.684 184.325 108.468 184.267 108.223 184.267C107.86 184.267 107.562 184.392 107.327 184.643C107.098 184.893 106.983 185.216 106.983 185.611C106.983 186.011 107.098 186.336 107.327 186.587C107.562 186.832 107.86 186.955 108.223 186.955ZM111.252 187.595V183.627H112.012L112.084 184.379C112.223 184.117 112.415 183.912 112.66 183.763C112.911 183.608 113.212 183.531 113.564 183.531V184.419H113.332C113.098 184.419 112.887 184.459 112.7 184.539C112.519 184.613 112.372 184.744 112.26 184.931C112.154 185.112 112.1 185.365 112.1 185.691V187.595H111.252Z" fill="#A5AEC0"/>
<path d="M135.242 187.595V182.955L134.338 183.163V182.539L135.578 181.995H136.122V187.595H135.242ZM139.315 187.691C138.905 187.691 138.558 187.613 138.275 187.459C137.993 187.304 137.763 187.099 137.587 186.843C137.417 186.587 137.294 186.299 137.219 185.979C137.145 185.659 137.107 185.331 137.107 184.995C137.107 184.376 137.193 183.835 137.363 183.371C137.539 182.907 137.79 182.547 138.115 182.291C138.441 182.029 138.835 181.899 139.299 181.899C139.667 181.899 139.982 181.971 140.243 182.115C140.505 182.259 140.707 182.451 140.851 182.691C141.001 182.931 141.091 183.192 141.123 183.475H140.331C140.283 183.197 140.169 182.984 139.987 182.835C139.806 182.685 139.574 182.611 139.291 182.611C138.902 182.611 138.579 182.795 138.323 183.163C138.073 183.525 137.939 184.085 137.923 184.843C138.051 184.608 138.249 184.408 138.515 184.243C138.787 184.077 139.099 183.995 139.451 183.995C139.766 183.995 140.059 184.069 140.331 184.219C140.609 184.368 140.833 184.579 141.003 184.851C141.179 185.117 141.267 185.435 141.267 185.803C141.267 186.128 141.187 186.435 141.027 186.723C140.867 187.011 140.641 187.245 140.347 187.427C140.059 187.603 139.715 187.691 139.315 187.691ZM139.267 186.955C139.491 186.955 139.691 186.907 139.867 186.811C140.043 186.715 140.182 186.584 140.283 186.419C140.385 186.248 140.435 186.056 140.435 185.843C140.435 185.501 140.323 185.229 140.099 185.027C139.881 184.824 139.601 184.723 139.259 184.723C139.035 184.723 138.833 184.773 138.651 184.875C138.475 184.976 138.337 185.112 138.235 185.283C138.134 185.448 138.083 185.632 138.083 185.835C138.083 186.053 138.134 186.248 138.235 186.419C138.342 186.584 138.483 186.715 138.659 186.811C138.841 186.907 139.043 186.955 139.267 186.955ZM143.97 187.595L146.034 181.995H146.962L149.01 187.595H148.114L147.634 186.227H145.346L144.866 187.595H143.97ZM145.586 185.555H147.394L146.49 183.003L145.586 185.555ZM149.759 189.355V183.627H150.519L150.607 184.243C150.735 184.056 150.911 183.891 151.135 183.747C151.359 183.603 151.647 183.531 151.999 183.531C152.383 183.531 152.721 183.621 153.015 183.803C153.308 183.984 153.537 184.232 153.703 184.547C153.873 184.861 153.959 185.219 153.959 185.619C153.959 186.019 153.873 186.376 153.703 186.691C153.537 187 153.308 187.245 153.015 187.427C152.721 187.603 152.38 187.691 151.991 187.691C151.681 187.691 151.407 187.629 151.167 187.507C150.932 187.384 150.745 187.211 150.607 186.987V189.355H149.759ZM151.847 186.955C152.209 186.955 152.508 186.832 152.743 186.587C152.977 186.336 153.095 186.011 153.095 185.611C153.095 185.349 153.041 185.117 152.935 184.915C152.828 184.712 152.681 184.555 152.495 184.443C152.308 184.325 152.092 184.267 151.847 184.267C151.484 184.267 151.185 184.392 150.951 184.643C150.721 184.893 150.607 185.216 150.607 185.611C150.607 186.011 150.721 186.336 150.951 186.587C151.185 186.832 151.484 186.955 151.847 186.955ZM154.876 187.595V183.627H155.636L155.708 184.379C155.847 184.117 156.039 183.912 156.284 183.763C156.535 183.608 156.836 183.531 157.188 183.531V184.419H156.956C156.721 184.419 156.511 184.459 156.324 184.539C156.143 184.613 155.996 184.744 155.884 184.931C155.777 185.112 155.724 185.365 155.724 185.691V187.595H154.876Z" fill="#A5AEC0"/>
<path d="M178.586 187.595V186.987C178.949 186.699 179.295 186.408 179.626 186.115C179.957 185.821 180.25 185.533 180.506 185.251C180.767 184.963 180.973 184.683 181.122 184.411C181.271 184.133 181.346 183.867 181.346 183.611C181.346 183.44 181.317 183.28 181.258 183.131C181.199 182.976 181.103 182.853 180.97 182.763C180.837 182.667 180.658 182.619 180.434 182.619C180.098 182.619 179.845 182.725 179.674 182.939C179.509 183.152 179.429 183.408 179.434 183.707H178.61C178.615 183.312 178.698 182.981 178.858 182.715C179.023 182.448 179.242 182.245 179.514 182.107C179.791 181.968 180.103 181.899 180.45 181.899C180.978 181.899 181.399 182.048 181.714 182.347C182.034 182.64 182.194 183.051 182.194 183.579C182.194 183.893 182.117 184.205 181.962 184.515C181.813 184.824 181.615 185.123 181.37 185.411C181.13 185.693 180.871 185.96 180.594 186.211C180.317 186.461 180.053 186.688 179.802 186.891H182.362V187.595H178.586ZM185.068 187.691C184.705 187.691 184.375 187.627 184.076 187.499C183.783 187.365 183.548 187.165 183.372 186.899C183.196 186.632 183.103 186.299 183.092 185.899H183.932C183.943 186.197 184.044 186.451 184.236 186.659C184.433 186.861 184.711 186.963 185.068 186.963C185.409 186.963 185.671 186.869 185.852 186.683C186.033 186.491 186.124 186.253 186.124 185.971C186.124 185.629 186.001 185.376 185.756 185.211C185.516 185.045 185.22 184.963 184.868 184.963H184.452V184.259H184.876C185.191 184.259 185.444 184.184 185.636 184.035C185.833 183.885 185.932 183.675 185.932 183.403C185.932 183.173 185.855 182.987 185.7 182.843C185.551 182.699 185.337 182.627 185.06 182.627C184.772 182.627 184.545 182.712 184.38 182.883C184.215 183.048 184.124 183.256 184.108 183.507H183.268C183.279 183.181 183.359 182.899 183.508 182.659C183.663 182.419 183.873 182.232 184.14 182.099C184.407 181.965 184.713 181.899 185.06 181.899C185.433 181.899 185.745 181.965 185.996 182.099C186.252 182.227 186.444 182.403 186.572 182.627C186.705 182.845 186.772 183.085 186.772 183.347C186.772 183.645 186.689 183.907 186.524 184.131C186.359 184.355 186.137 184.504 185.86 184.579C186.18 184.648 186.444 184.805 186.652 185.051C186.86 185.291 186.964 185.603 186.964 185.987C186.964 186.296 186.892 186.581 186.748 186.843C186.604 187.099 186.391 187.304 186.108 187.459C185.825 187.613 185.479 187.691 185.068 187.691ZM189.666 187.595L191.73 181.995H192.658L194.706 187.595H193.81L193.33 186.227H191.042L190.562 187.595H189.666ZM191.282 185.555H193.09L192.186 183.003L191.282 185.555ZM195.455 189.355V183.627H196.215L196.303 184.243C196.431 184.056 196.607 183.891 196.831 183.747C197.055 183.603 197.343 183.531 197.695 183.531C198.079 183.531 198.418 183.621 198.711 183.803C199.004 183.984 199.234 184.232 199.399 184.547C199.57 184.861 199.655 185.219 199.655 185.619C199.655 186.019 199.57 186.376 199.399 186.691C199.234 187 199.004 187.245 198.711 187.427C198.418 187.603 198.076 187.691 197.687 187.691C197.378 187.691 197.103 187.629 196.863 187.507C196.628 187.384 196.442 187.211 196.303 186.987V189.355H195.455ZM197.543 186.955C197.906 186.955 198.204 186.832 198.439 186.587C198.674 186.336 198.791 186.011 198.791 185.611C198.791 185.349 198.738 185.117 198.631 184.915C198.524 184.712 198.378 184.555 198.191 184.443C198.004 184.325 197.788 184.267 197.543 184.267C197.18 184.267 196.882 184.392 196.647 184.643C196.418 184.893 196.303 185.216 196.303 185.611C196.303 186.011 196.418 186.336 196.647 186.587C196.882 186.832 197.18 186.955 197.543 186.955ZM200.572 187.595V183.627H201.332L201.404 184.379C201.543 184.117 201.735 183.912 201.98 183.763C202.231 183.608 202.532 183.531 202.884 183.531V184.419H202.652C202.417 184.419 202.207 184.459 202.02 184.539C201.839 184.613 201.692 184.744 201.58 184.931C201.473 185.112 201.42 185.365 201.42 185.691V187.595H200.572Z" fill="#A5AEC0"/>
<path d="M226.524 187.691C226.161 187.691 225.83 187.627 225.532 187.499C225.238 187.365 225.004 187.165 224.828 186.899C224.652 186.632 224.558 186.299 224.548 185.899H225.388C225.398 186.197 225.5 186.451 225.692 186.659C225.889 186.861 226.166 186.963 226.524 186.963C226.865 186.963 227.126 186.869 227.308 186.683C227.489 186.491 227.58 186.253 227.58 185.971C227.58 185.629 227.457 185.376 227.212 185.211C226.972 185.045 226.676 184.963 226.324 184.963H225.908V184.259H226.332C226.646 184.259 226.9 184.184 227.092 184.035C227.289 183.885 227.388 183.675 227.388 183.403C227.388 183.173 227.31 182.987 227.156 182.843C227.006 182.699 226.793 182.627 226.516 182.627C226.228 182.627 226.001 182.712 225.836 182.883C225.67 183.048 225.58 183.256 225.564 183.507H224.724C224.734 183.181 224.814 182.899 224.964 182.659C225.118 182.419 225.329 182.232 225.596 182.099C225.862 181.965 226.169 181.899 226.516 181.899C226.889 181.899 227.201 181.965 227.452 182.099C227.708 182.227 227.9 182.403 228.028 182.627C228.161 182.845 228.228 183.085 228.228 183.347C228.228 183.645 228.145 183.907 227.98 184.131C227.814 184.355 227.593 184.504 227.316 184.579C227.636 184.648 227.9 184.805 228.108 185.051C228.316 185.291 228.42 185.603 228.42 185.987C228.42 186.296 228.348 186.581 228.204 186.843C228.06 187.099 227.846 187.304 227.564 187.459C227.281 187.613 226.934 187.691 226.524 187.691ZM231.706 187.691C231.199 187.691 230.762 187.571 230.394 187.331C230.031 187.085 229.751 186.747 229.554 186.315C229.362 185.877 229.266 185.371 229.266 184.795C229.266 184.219 229.362 183.715 229.554 183.283C229.751 182.845 230.031 182.507 230.394 182.267C230.762 182.021 231.199 181.899 231.706 181.899C232.213 181.899 232.647 182.021 233.01 182.267C233.373 182.507 233.65 182.845 233.842 183.283C234.039 183.715 234.138 184.219 234.138 184.795C234.138 185.371 234.039 185.877 233.842 186.315C233.65 186.747 233.373 187.085 233.01 187.331C232.647 187.571 232.213 187.691 231.706 187.691ZM231.706 186.931C232.01 186.931 232.279 186.845 232.514 186.675C232.754 186.504 232.941 186.259 233.074 185.939C233.207 185.619 233.274 185.237 233.274 184.795C233.274 184.352 233.207 183.971 233.074 183.651C232.941 183.331 232.754 183.085 232.514 182.915C232.279 182.744 232.01 182.659 231.706 182.659C231.397 182.659 231.125 182.744 230.89 182.915C230.655 183.085 230.471 183.331 230.338 183.651C230.205 183.971 230.138 184.352 230.138 184.795C230.138 185.237 230.205 185.619 230.338 185.939C230.471 186.259 230.655 186.504 230.89 186.675C231.125 186.845 231.397 186.931 231.706 186.931ZM236.739 187.595L238.803 181.995H239.731L241.779 187.595H240.883L240.403 186.227H238.115L237.635 187.595H236.739ZM238.355 185.555H240.163L239.259 183.003L238.355 185.555ZM242.528 189.355V183.627H243.288L243.376 184.243C243.504 184.056 243.68 183.891 243.904 183.747C244.128 183.603 244.416 183.531 244.768 183.531C245.152 183.531 245.49 183.621 245.784 183.803C246.077 183.984 246.306 184.232 246.472 184.547C246.642 184.861 246.728 185.219 246.728 185.619C246.728 186.019 246.642 186.376 246.472 186.691C246.306 187 246.077 187.245 245.784 187.427C245.49 187.603 245.149 187.691 244.76 187.691C244.45 187.691 244.176 187.629 243.936 187.507C243.701 187.384 243.514 187.211 243.376 186.987V189.355H242.528ZM244.616 186.955C244.978 186.955 245.277 186.832 245.512 186.587C245.746 186.336 245.864 186.011 245.864 185.611C245.864 185.349 245.81 185.117 245.704 184.915C245.597 184.712 245.45 184.555 245.264 184.443C245.077 184.325 244.861 184.267 244.616 184.267C244.253 184.267 243.954 184.392 243.72 184.643C243.49 184.893 243.376 185.216 243.376 185.611C243.376 186.011 243.49 186.336 243.72 186.587C243.954 186.832 244.253 186.955 244.616 186.955ZM247.645 187.595V183.627H248.405L248.477 184.379C248.616 184.117 248.808 183.912 249.053 183.763C249.304 183.608 249.605 183.531 249.957 183.531V184.419H249.725C249.49 184.419 249.28 184.459 249.093 184.539C248.912 184.613 248.765 184.744 248.653 184.931C248.546 185.112 248.493 185.365 248.493 185.691V187.595H247.645Z" fill="#A5AEC0"/>
<path d="M272.158 187.595L274.326 182.723H271.414V181.995H275.198V182.611L273.046 187.595H272.158ZM278.055 187.595V181.995H279.055L280.951 185.723L282.839 181.995H283.839V187.595H282.991V183.459L281.279 186.795H280.623L278.903 183.467V187.595H278.055ZM286.289 187.691C285.953 187.691 285.675 187.635 285.457 187.523C285.238 187.411 285.075 187.264 284.969 187.083C284.862 186.896 284.809 186.693 284.809 186.475C284.809 186.091 284.958 185.787 285.257 185.563C285.555 185.339 285.982 185.227 286.537 185.227H287.577V185.155C287.577 184.845 287.491 184.613 287.321 184.459C287.155 184.304 286.939 184.227 286.673 184.227C286.438 184.227 286.233 184.285 286.057 184.403C285.886 184.515 285.782 184.683 285.745 184.907H284.897C284.923 184.619 285.019 184.373 285.185 184.171C285.355 183.963 285.569 183.805 285.825 183.699C286.086 183.587 286.371 183.531 286.681 183.531C287.235 183.531 287.665 183.677 287.969 183.971C288.273 184.259 288.425 184.653 288.425 185.155V187.595H287.689L287.617 186.915C287.505 187.133 287.342 187.317 287.129 187.467C286.915 187.616 286.635 187.691 286.289 187.691ZM286.457 187.003C286.686 187.003 286.878 186.949 287.033 186.843C287.193 186.731 287.315 186.584 287.401 186.403C287.491 186.221 287.547 186.021 287.569 185.803H286.625C286.289 185.803 286.049 185.861 285.905 185.979C285.766 186.096 285.697 186.243 285.697 186.419C285.697 186.6 285.763 186.744 285.897 186.851C286.035 186.952 286.222 187.003 286.457 187.003ZM289.752 189.355L290.704 187.267H290.472L288.904 183.627H289.824L291.04 186.563L292.312 183.627H293.208L290.648 189.355H289.752Z" fill="#A5AEC0"/>
<path d="M22.0946 165.696V165.08C21.572 165.021 21.1533 164.837 20.8386 164.528C20.524 164.219 20.364 163.813 20.3586 163.312H21.2546C21.26 163.563 21.3346 163.784 21.4786 163.976C21.6226 164.163 21.828 164.288 22.0946 164.352V162.424C22.052 162.413 22.0066 162.4 21.9586 162.384C21.916 162.368 21.8706 162.352 21.8226 162.336C21.3906 162.192 21.0653 162.005 20.8466 161.776C20.6333 161.547 20.5266 161.245 20.5266 160.872C20.5213 160.435 20.6626 160.077 20.9506 159.8C21.2386 159.523 21.62 159.36 22.0946 159.312V158.672H22.6386V159.32C23.1026 159.373 23.476 159.541 23.7586 159.824C24.0413 160.107 24.1853 160.461 24.1906 160.888H23.2946C23.2893 160.712 23.2306 160.547 23.1186 160.392C23.012 160.232 22.852 160.123 22.6386 160.064V161.776C22.6813 161.792 22.724 161.808 22.7666 161.824C22.8093 161.835 22.852 161.848 22.8946 161.864C23.172 161.955 23.42 162.064 23.6386 162.192C23.8573 162.32 24.0306 162.488 24.1586 162.696C24.292 162.904 24.3586 163.168 24.3586 163.488C24.3586 163.755 24.2946 164.005 24.1666 164.24C24.0386 164.469 23.8466 164.661 23.5906 164.816C23.3346 164.971 23.0173 165.061 22.6386 165.088V165.696H22.0946ZM21.4066 160.8C21.4066 161.013 21.468 161.179 21.5906 161.296C21.7133 161.408 21.8813 161.507 22.0946 161.592V160.04C21.892 160.077 21.7266 160.163 21.5986 160.296C21.4706 160.424 21.4066 160.592 21.4066 160.8ZM23.4626 163.544C23.4626 163.283 23.3853 163.085 23.2306 162.952C23.076 162.813 22.8786 162.699 22.6386 162.608V164.368C22.9 164.336 23.1026 164.245 23.2466 164.096C23.3906 163.947 23.4626 163.763 23.4626 163.544ZM27.5258 165.096C27.0191 165.096 26.5818 164.976 26.2138 164.736C25.8511 164.491 25.5711 164.152 25.3738 163.72C25.1818 163.283 25.0858 162.776 25.0858 162.2C25.0858 161.624 25.1818 161.12 25.3738 160.688C25.5711 160.251 25.8511 159.912 26.2138 159.672C26.5818 159.427 27.0191 159.304 27.5258 159.304C28.0324 159.304 28.4671 159.427 28.8298 159.672C29.1924 159.912 29.4698 160.251 29.6618 160.688C29.8591 161.12 29.9578 161.624 29.9578 162.2C29.9578 162.776 29.8591 163.283 29.6618 163.72C29.4698 164.152 29.1924 164.491 28.8298 164.736C28.4671 164.976 28.0324 165.096 27.5258 165.096ZM27.5258 164.336C27.8298 164.336 28.0991 164.251 28.3338 164.08C28.5738 163.909 28.7604 163.664 28.8938 163.344C29.0271 163.024 29.0938 162.643 29.0938 162.2C29.0938 161.757 29.0271 161.376 28.8938 161.056C28.7604 160.736 28.5738 160.491 28.3338 160.32C28.0991 160.149 27.8298 160.064 27.5258 160.064C27.2164 160.064 26.9444 160.149 26.7098 160.32C26.4751 160.491 26.2911 160.736 26.1578 161.056C26.0244 161.376 25.9578 161.757 25.9578 162.2C25.9578 162.643 26.0244 163.024 26.1578 163.344C26.2911 163.664 26.4751 163.909 26.7098 164.08C26.9444 164.251 27.2164 164.336 27.5258 164.336Z" fill="#A5AEC0"/>
<line x1="52.0381" y1="65.5" x2="292.213" y2="65.5" stroke="#F6F6F9"/>
<line x1="52.0381" y1="97.5" x2="292.213" y2="97.5" stroke="#F6F6F9"/>
<line x1="52.0381" y1="115.64" x2="292.213" y2="115.64" stroke="#C2C2D6" stroke-dasharray="4 4"/>
<line x1="52.0381" y1="129.5" x2="292.213" y2="129.5" stroke="#F6F6F9"/>
<line x1="52.0381" y1="161.5" x2="292.213" y2="161.5" stroke="#F6F6F9"/>
<path d="M60.7417 112.933L52.0381 109.702V161.235H292.197V69L281.308 74.9148L273.351 90.0726L263.653 97.5272L258.68 94.5453L248.982 102.745L239.035 94.5453L231.326 97.5272L222.374 92.0601L214.914 107.466L208.449 109.951L197.508 130.327L188.556 131.818L180.35 142.254L172.392 133.557L162.943 131.818L154.24 134.799L146.78 125.854L138.076 138.278L128.876 131.818L120.421 140.515L111.966 144.739L104.009 124.363L86.6022 101.999L78.8936 120.139L69.4442 108.212L60.7417 112.933Z" fill="url(#paint0_linear_13140_526)"/>
<path d="M52.0381 109.702L60.7417 112.933L69.4442 108.212L78.8936 120.139L86.6022 101.999L104.009 124.363L111.966 144.739L120.421 140.515L128.876 131.818L138.076 138.278L146.78 125.854L154.24 134.799L162.943 131.818L172.392 133.557L180.35 142.254L188.556 131.818L197.508 130.327L208.449 109.951L214.914 107.466L222.374 92.0601L231.326 97.5272L239.035 94.5453L248.982 102.745L258.68 94.5453L263.653 97.5272L273.351 90.0726L281.308 74.9148L292.197 69" stroke="#635BFF" stroke-width="2"/>
<path d="M205.644 118.543C207.578 118.543 209.146 116.976 209.146 115.043C209.146 113.11 207.578 111.543 205.644 111.543C203.71 111.543 202.142 113.11 202.142 115.043C202.142 116.976 203.71 118.543 205.644 118.543Z" fill="#635BFE" stroke="white"/>
<g filter="url(#filter0_d_13140_526)">
<rect x="167.093" y="94.8496" width="37.027" height="16" rx="4" fill="#00112D"/>
</g>
<path d="M173.176 106.546V105.93C172.653 105.871 172.234 105.687 171.92 105.378C171.605 105.068 171.445 104.663 171.44 104.162H172.336C172.341 104.412 172.416 104.634 172.56 104.826C172.704 105.012 172.909 105.138 173.176 105.202V103.274C173.133 103.263 173.088 103.25 173.04 103.234C172.997 103.218 172.952 103.202 172.904 103.186C172.472 103.042 172.146 102.855 171.928 102.626C171.714 102.396 171.608 102.095 171.608 101.722C171.602 101.284 171.744 100.927 172.032 100.65C172.32 100.372 172.701 100.21 173.176 100.162V99.5216H173.72V100.17C174.184 100.223 174.557 100.391 174.84 100.674C175.122 100.956 175.266 101.311 175.272 101.738H174.376C174.37 101.562 174.312 101.396 174.2 101.242C174.093 101.082 173.933 100.972 173.72 100.914V102.626C173.762 102.642 173.805 102.658 173.848 102.674C173.89 102.684 173.933 102.698 173.976 102.714C174.253 102.804 174.501 102.914 174.72 103.042C174.938 103.17 175.112 103.338 175.24 103.546C175.373 103.754 175.44 104.018 175.44 104.338C175.44 104.604 175.376 104.855 175.248 105.09C175.12 105.319 174.928 105.511 174.672 105.666C174.416 105.82 174.098 105.911 173.72 105.938V106.546H173.176ZM172.488 101.65C172.488 101.863 172.549 102.028 172.672 102.146C172.794 102.258 172.962 102.356 173.176 102.442V100.89C172.973 100.927 172.808 101.012 172.68 101.146C172.552 101.274 172.488 101.442 172.488 101.65ZM174.544 104.394C174.544 104.132 174.466 103.935 174.312 103.802C174.157 103.663 173.96 103.548 173.72 103.458V105.218C173.981 105.186 174.184 105.095 174.328 104.946C174.472 104.796 174.544 104.612 174.544 104.394ZM176.255 105.85V105.242C176.617 104.954 176.964 104.663 177.295 104.37C177.625 104.076 177.919 103.788 178.175 103.506C178.436 103.218 178.641 102.938 178.791 102.666C178.94 102.388 179.015 102.122 179.015 101.866C179.015 101.695 178.985 101.535 178.927 101.386C178.868 101.231 178.772 101.108 178.639 101.018C178.505 100.922 178.327 100.874 178.103 100.874C177.767 100.874 177.513 100.98 177.343 101.194C177.177 101.407 177.097 101.663 177.103 101.962H176.279C176.284 101.567 176.367 101.236 176.527 100.97C176.692 100.703 176.911 100.5 177.183 100.362C177.46 100.223 177.772 100.154 178.119 100.154C178.647 100.154 179.068 100.303 179.383 100.602C179.703 100.895 179.863 101.306 179.863 101.834C179.863 102.148 179.785 102.46 179.631 102.77C179.481 103.079 179.284 103.378 179.039 103.666C178.799 103.948 178.54 104.215 178.263 104.466C177.985 104.716 177.721 104.943 177.471 105.146H180.031V105.85H176.255ZM183.001 105.946C182.59 105.946 182.244 105.868 181.961 105.714C181.678 105.559 181.449 105.354 181.273 105.098C181.102 104.842 180.98 104.554 180.905 104.234C180.83 103.914 180.793 103.586 180.793 103.25C180.793 102.631 180.878 102.09 181.049 101.626C181.225 101.162 181.476 100.802 181.801 100.546C182.126 100.284 182.521 100.154 182.985 100.154C183.353 100.154 183.668 100.226 183.929 100.37C184.19 100.514 184.393 100.706 184.537 100.946C184.686 101.186 184.777 101.447 184.809 101.73H184.017C183.969 101.452 183.854 101.239 183.673 101.09C183.492 100.94 183.26 100.866 182.977 100.866C182.588 100.866 182.265 101.05 182.009 101.418C181.758 101.78 181.625 102.34 181.609 103.098C181.737 102.863 181.934 102.663 182.201 102.498C182.473 102.332 182.785 102.25 183.137 102.25C183.452 102.25 183.745 102.324 184.017 102.474C184.294 102.623 184.518 102.834 184.689 103.106C184.865 103.372 184.953 103.69 184.953 104.058C184.953 104.383 184.873 104.69 184.713 104.978C184.553 105.266 184.326 105.5 184.033 105.682C183.745 105.858 183.401 105.946 183.001 105.946ZM182.953 105.21C183.177 105.21 183.377 105.162 183.553 105.066C183.729 104.97 183.868 104.839 183.969 104.674C184.07 104.503 184.121 104.311 184.121 104.098C184.121 103.756 184.009 103.484 183.785 103.282C183.566 103.079 183.286 102.978 182.945 102.978C182.721 102.978 182.518 103.028 182.337 103.13C182.161 103.231 182.022 103.367 181.921 103.538C181.82 103.703 181.769 103.887 181.769 104.09C181.769 104.308 181.82 104.503 181.921 104.674C182.028 104.839 182.169 104.97 182.345 105.066C182.526 105.162 182.729 105.21 182.953 105.21ZM186.576 105.85V101.21L185.672 101.418V100.794L186.912 100.25H187.456V105.85H186.576ZM188.897 105.898C188.737 105.898 188.604 105.847 188.497 105.746C188.396 105.639 188.345 105.514 188.345 105.37C188.345 105.22 188.396 105.095 188.497 104.994C188.604 104.887 188.737 104.834 188.897 104.834C189.057 104.834 189.188 104.887 189.289 104.994C189.391 105.095 189.441 105.22 189.441 105.37C189.441 105.514 189.391 105.639 189.289 105.746C189.188 105.847 189.057 105.898 188.897 105.898ZM192.88 105.85V104.73H190.072V104.058L192.744 100.25H193.72V103.994H194.504V104.73H193.72V105.85H192.88ZM190.992 103.994H192.928V101.186L190.992 103.994ZM197.264 105.946C196.869 105.946 196.528 105.876 196.24 105.738C195.952 105.594 195.723 105.399 195.552 105.154C195.387 104.903 195.285 104.62 195.248 104.306H196.08C196.133 104.572 196.267 104.794 196.48 104.97C196.693 105.14 196.957 105.226 197.272 105.226C197.507 105.226 197.709 105.17 197.88 105.058C198.051 104.94 198.184 104.786 198.28 104.594C198.376 104.402 198.424 104.186 198.424 103.946C198.424 103.567 198.317 103.266 198.104 103.042C197.891 102.812 197.621 102.698 197.296 102.698C197.019 102.698 196.781 102.764 196.584 102.898C196.387 103.026 196.243 103.188 196.152 103.386H195.344L195.824 100.25H198.848V100.994H196.464L196.176 102.49C196.299 102.351 196.467 102.236 196.68 102.146C196.899 102.05 197.144 102.002 197.416 102.002C197.795 102.002 198.12 102.09 198.392 102.266C198.664 102.436 198.872 102.668 199.016 102.962C199.165 103.255 199.24 103.58 199.24 103.938C199.24 104.311 199.16 104.65 199 104.954C198.84 105.258 198.611 105.5 198.312 105.682C198.019 105.858 197.669 105.946 197.264 105.946Z" fill="white"/>
<path d="M209.478 125.636C209.204 125.379 208.891 124.901 208.33 124.315C208.042 123.985 207.247 123.364 206.973 123.107C206.772 122.838 206.746 122.69 206.768 122.382C206.763 121.926 207.142 121.478 207.659 121.387C208.029 121.321 208.45 121.551 208.785 121.721C208.959 121.842 209.233 122.099 209.407 122.22C209.581 122.342 209.594 122.416 209.768 122.537C209.955 122.733 210.055 122.868 209.929 122.585C209.79 122.229 209.611 121.651 209.359 121.086C209.207 120.656 209.12 120.595 208.994 120.313C208.854 119.957 208.741 119.748 208.602 119.392C208.489 119.183 208.31 118.606 208.184 118.323C208.045 117.967 207.927 117.302 208.171 116.954C208.353 116.694 208.784 116.542 209.105 116.637C209.514 116.793 209.827 117.271 209.941 117.48C210.154 117.823 210.393 118.314 210.572 118.892C210.85 119.604 211.268 120.673 211.307 120.894C211.255 120.599 211.089 120.095 211.111 119.787C211.146 119.552 211.241 119.23 211.524 119.104C211.733 118.991 211.954 118.952 212.176 118.913C212.411 118.948 212.659 119.056 212.833 119.178C213.207 119.569 213.377 120.529 213.364 120.455C213.385 120.146 213.281 119.556 213.376 119.234C213.424 119.073 213.694 118.873 213.828 118.773C214.037 118.66 214.333 118.608 214.567 118.643C214.715 118.617 215.05 118.786 215.15 118.921C215.337 119.116 215.542 119.842 215.668 120.124C215.681 120.198 215.69 119.816 215.798 119.568C216.016 119.072 217.024 118.742 217.281 119.763C217.373 120.28 217.36 120.206 217.425 120.575C217.49 120.945 217.529 121.166 217.582 121.462C217.634 121.757 217.678 122.435 217.656 122.743C217.621 122.978 217.491 123.534 217.322 123.869C217.322 123.869 216.665 124.899 216.67 125.355C216.674 125.811 216.674 125.811 216.727 126.107C216.779 126.402 216.918 126.759 216.918 126.759C216.918 126.759 216.34 126.937 216.031 126.915C215.722 126.894 215.261 126.442 215.148 126.233C214.961 126.038 214.739 126.077 214.631 126.325C214.535 126.646 214.257 127.229 213.961 127.281C213.457 127.446 212.409 127.555 211.67 127.686C211.67 127.686 211.687 126.921 211.339 126.678C211.078 126.495 210.643 126.191 210.382 126.009L209.478 125.636Z" fill="white"/>
<path d="M209.478 125.636C209.204 125.379 208.891 124.901 208.33 124.315C208.042 123.985 207.247 123.364 206.973 123.107C206.772 122.838 206.746 122.69 206.768 122.382C206.763 121.926 207.142 121.478 207.659 121.387C208.029 121.321 208.45 121.551 208.785 121.721C208.959 121.842 209.233 122.099 209.407 122.22C209.581 122.342 209.594 122.416 209.768 122.537C209.955 122.733 210.055 122.868 209.929 122.585C209.79 122.229 209.611 121.651 209.359 121.086C209.207 120.656 209.12 120.595 208.994 120.313C208.854 119.957 208.741 119.748 208.602 119.392C208.489 119.183 208.31 118.606 208.184 118.323C208.045 117.967 207.927 117.302 208.171 116.954C208.353 116.694 208.784 116.542 209.105 116.637C209.514 116.793 209.827 117.271 209.941 117.48C210.154 117.823 210.393 118.314 210.572 118.892C210.85 119.604 211.268 120.673 211.307 120.894C211.255 120.599 211.089 120.095 211.111 119.787C211.146 119.552 211.241 119.23 211.524 119.104C211.733 118.991 211.954 118.952 212.176 118.913C212.411 118.948 212.659 119.056 212.833 119.178C213.207 119.569 213.377 120.529 213.364 120.455C213.385 120.146 213.281 119.556 213.376 119.234C213.424 119.073 213.694 118.873 213.828 118.773C214.037 118.66 214.333 118.608 214.567 118.643C214.715 118.617 215.05 118.786 215.15 118.921C215.337 119.116 215.542 119.842 215.668 120.124C215.681 120.198 215.69 119.816 215.798 119.568C216.016 119.072 217.024 118.742 217.281 119.763C217.373 120.28 217.36 120.206 217.425 120.575C217.49 120.945 217.529 121.166 217.582 121.462C217.634 121.757 217.678 122.435 217.656 122.743C217.621 122.978 217.491 123.534 217.322 123.869C217.322 123.869 216.665 124.899 216.67 125.355C216.674 125.811 216.674 125.811 216.727 126.107C216.779 126.402 216.918 126.759 216.918 126.759C216.918 126.759 216.34 126.937 216.031 126.915C215.722 126.894 215.261 126.442 215.148 126.233C214.961 126.038 214.739 126.077 214.631 126.325C214.535 126.646 214.257 127.229 213.961 127.281C213.457 127.446 212.409 127.555 211.67 127.686C211.67 127.686 211.687 126.921 211.339 126.678C211.078 126.495 210.643 126.191 210.382 126.009L209.478 125.636Z" stroke="black" stroke-width="0.562556" stroke-linecap="round" stroke-linejoin="round"/>
<path d="M215.652 124.774L215.208 122.263" stroke="black" stroke-width="0.562556" stroke-linecap="round"/>
<path d="M214.172 125.036L213.654 122.537" stroke="black" stroke-width="0.562556" stroke-linecap="round"/>
<path d="M212.251 122.785L212.695 125.297" stroke="black" stroke-width="0.562556" stroke-linecap="round"/>
<defs>
<filter id="filter0_d_13140_526" x="71.0928" y="38.8496" width="189.027" height="168" filterUnits="userSpaceOnUse" color-interpolation-filters="sRGB">
<feFlood flood-opacity="0" result="BackgroundImageFix"/>
<feColorMatrix in="SourceAlpha" type="matrix" values="0 0 0 0 0 0 0 0 0 0 0 0 0 0 0 0 0 0 127 0" result="hardAlpha"/>
<feMorphology radius="4" operator="erode" in="SourceAlpha" result="effect1_dropShadow_13140_526"/>
<feOffset dx="-20" dy="20"/>
<feGaussianBlur stdDeviation="40"/>
<feComposite in2="hardAlpha" operator="out"/>
<feColorMatrix type="matrix" values="0 0 0 0 0 0 0 0 0 0.0666667 0 0 0 0 0.176471 0 0 0 0.24 0"/>
<feBlend mode="normal" in2="BackgroundImageFix" result="effect1_dropShadow_13140_526"/>
<feBlend mode="normal" in="SourceGraphic" in2="effect1_dropShadow_13140_526" result="shape"/>
</filter>
<linearGradient id="paint0_linear_13140_526" x1="172.117" y1="69" x2="172.117" y2="161.235" gradientUnits="userSpaceOnUse">
<stop stop-color="#635BFE" stop-opacity="0.16"/>
<stop offset="1" stop-color="#635BFE" stop-opacity="0"/>
</linearGradient>
</defs>
</svg>
