<svg width="92" height="38" viewBox="0 0 92 38" fill="none" xmlns="http://www.w3.org/2000/svg">
<g clip-path="url(#clip0_13001_879)">
<path d="M12.0189 8.90894C5.60472 8.90894 0.259766 11.6228 0.259766 19.8105C0.259766 26.297 3.85386 30.3818 12.1845 30.3818C21.9902 30.3818 22.6187 23.9399 22.6187 23.9399H17.8674C17.8674 23.9399 16.8487 27.4086 11.8947 27.4086C7.85979 27.4086 4.95771 24.6903 4.95771 20.8801H23.1156V18.4891C23.1156 14.7197 20.7162 8.90894 12.0189 8.90894ZM11.8533 11.9647C15.6941 11.9647 18.3126 14.3113 18.3126 17.8284H5.0628C5.0628 14.0946 8.48052 11.9647 11.8533 11.9647Z" fill="#A6AEBB"/>
<path d="M23.1125 0.979736V26.2692C23.1125 27.7047 23.0098 29.7203 23.0098 29.7203H27.5415C27.5415 29.7203 27.7041 28.2727 27.7041 26.9497C27.7041 26.9497 29.9431 30.443 36.031 30.443C42.4418 30.443 46.7964 26.0041 46.7964 19.6446C46.7964 13.7284 42.7966 8.97012 36.0414 8.97012C29.7156 8.97012 27.7499 12.3769 27.7499 12.3769V0.979736H23.1125ZM34.8717 12.0981C39.2251 12.0981 41.9934 15.3204 41.9934 19.6446C41.9934 24.2815 38.7961 27.315 34.9027 27.315C30.2563 27.315 27.7499 23.6968 27.7499 19.6859C27.7499 15.9485 29.999 12.0981 34.8717 12.0981Z" fill="#A6AEBB"/>
<path d="M58.057 8.90894C48.4073 8.90894 47.7885 14.1784 47.7885 15.0204H52.5915C52.5915 15.0204 52.8434 11.944 57.7258 11.944C60.8984 11.944 63.3569 13.3923 63.3569 16.1767V17.1677H57.7258C50.25 17.1677 46.2979 19.3488 46.2979 23.7748C46.2979 28.1305 49.9495 30.5005 54.8843 30.5005C61.6097 30.5005 63.7761 26.7944 63.7761 26.7944C63.7761 28.2685 63.8901 29.7211 63.8901 29.7211H68.16C68.16 29.7211 67.9943 27.9205 67.9943 26.7686V16.8116C67.9943 10.2829 62.7141 8.90894 58.057 8.90894ZM63.3569 20.1409V21.4623C63.3569 23.1858 62.2905 27.4706 56.0126 27.4706C52.5748 27.4706 51.1009 25.7595 51.1009 23.7748C51.1009 20.1641 56.0646 20.1409 63.3569 20.1409Z" fill="#A6AEBB"/>
<path d="M65.4072 9.73633H70.8106L78.5653 25.2304L86.3022 9.73633H91.1969L77.1043 37.3207H71.97L76.0366 29.6312L65.4072 9.73633Z" fill="#A6AEBB"/>
</g>
<defs>
<clipPath id="clip0_13001_879">
<rect width="91" height="36.4" fill="white" transform="translate(0.230469 0.949951)"/>
</clipPath>
</defs>
</svg>
