<svg width="265" height="305" viewBox="0 0 265 305" fill="none" xmlns="http://www.w3.org/2000/svg">
<mask id="mask0_13001_788" style="mask-type:alpha" maskUnits="userSpaceOnUse" x="0" y="0" width="265" height="305">
<rect x="0.839355" width="263.3" height="305" rx="24" fill="#00112D"/>
</mask>
<g mask="url(#mask0_13001_788)">
<rect x="0.839355" width="263.301" height="305" rx="24" fill="#00112D"/>
<path d="M427.052 218.177C427.052 211.032 422.168 204.813 415.227 203.119L198.508 150.228C188.747 147.845 179.333 155.238 179.333 165.286V256.639C179.333 263.784 184.217 270.003 191.158 271.697L407.877 324.588C417.638 326.97 427.052 319.578 427.052 309.53V218.177Z" stroke="#635BFF"/>
<path d="M283.473 293.202C283.473 300.347 278.589 306.566 271.648 308.26L138.14 340.843C128.379 343.226 118.965 335.833 118.965 325.785V276.015C118.965 268.87 123.849 262.651 130.79 260.957L264.298 228.374C274.059 225.992 283.473 233.384 283.473 243.432V293.202Z" stroke="#635BFF"/>
<path d="M31.933 244.36V245H28.077V239.32H31.861V239.96H28.797V241.8H31.461V242.4H28.797V244.36H31.933ZM33.0007 239.32L34.7127 241.672L36.4247 239.32H37.2327L35.1127 242.2L37.1687 245H36.3607L34.7127 242.728L33.0647 245H32.2487L34.3047 242.2L32.1847 239.32H33.0007ZM37.8545 245V239.32H40.2225C40.4731 239.32 40.7025 239.373 40.9105 239.48C41.1185 239.581 41.2998 239.72 41.4545 239.896C41.6091 240.067 41.7291 240.261 41.8145 240.48C41.8998 240.693 41.9425 240.912 41.9425 241.136C41.9425 241.445 41.8731 241.741 41.7345 242.024C41.5958 242.301 41.4011 242.528 41.1505 242.704C40.8998 242.875 40.6065 242.96 40.2705 242.96H38.5745V245H37.8545ZM38.5745 242.32H40.2305C40.4278 242.32 40.5985 242.267 40.7425 242.16C40.8918 242.053 41.0065 241.909 41.0865 241.728C41.1718 241.547 41.2145 241.349 41.2145 241.136C41.2145 240.912 41.1665 240.712 41.0705 240.536C40.9745 240.355 40.8491 240.213 40.6945 240.112C40.5398 240.011 40.3691 239.96 40.1825 239.96H38.5745V242.32ZM41.8408 245V244.104H42.4328V245H41.8408ZM45.4895 245V239.32H47.4575C48.0655 239.32 48.5721 239.448 48.9775 239.704C49.3881 239.955 49.6948 240.296 49.8975 240.728C50.1001 241.155 50.2015 241.629 50.2015 242.152C50.2015 242.728 50.0895 243.229 49.8655 243.656C49.6415 244.083 49.3241 244.413 48.9135 244.648C48.5028 244.883 48.0175 245 47.4575 245H45.4895ZM49.4735 242.152C49.4735 241.725 49.3935 241.347 49.2335 241.016C49.0788 240.685 48.8521 240.427 48.5535 240.24C48.2548 240.053 47.8895 239.96 47.4575 239.96H46.2095V244.36H47.4575C47.8948 244.36 48.2628 244.264 48.5615 244.072C48.8601 243.875 49.0868 243.611 49.2415 243.28C49.3961 242.944 49.4735 242.568 49.4735 242.152ZM52.6609 239.32H53.2689L55.5889 245H54.8209L54.1489 243.336H51.7649L51.1009 245H50.3329L52.6609 239.32ZM53.9889 242.776L52.9649 240.152L51.9089 242.776H53.9889ZM59.8239 239.96H57.8639V245H57.1439V239.96H55.1839V239.32H59.8239V239.96ZM64.418 244.36V245H60.562V239.32H64.346V239.96H61.282V241.8H63.946V242.4H61.282V244.36H64.418Z" fill="#697896"/>
<path d="M33.361 265.88V267H28.335V265.88H30.323V260.42C30.239 260.532 30.1083 260.653 29.931 260.784C29.7536 260.905 29.553 261.022 29.329 261.134C29.105 261.246 28.881 261.339 28.657 261.414C28.433 261.479 28.2276 261.512 28.041 261.512V260.336C28.2463 260.336 28.4703 260.28 28.713 260.168C28.965 260.047 29.2076 259.907 29.441 259.748C29.6743 259.589 29.8703 259.44 30.029 259.3C30.197 259.16 30.295 259.062 30.323 259.006H31.583V265.88H33.361ZM34.1617 267C34.1617 266.627 34.1897 266.277 34.2457 265.95C34.311 265.623 34.423 265.311 34.5817 265.012C34.7497 264.713 34.983 264.429 35.2817 264.158C35.5804 263.878 35.9677 263.607 36.4437 263.346C36.7237 263.187 37.0037 263.038 37.2837 262.898C37.573 262.758 37.839 262.609 38.0817 262.45C38.3337 262.291 38.5344 262.119 38.6837 261.932C38.833 261.736 38.9077 261.512 38.9077 261.26C38.9077 261.045 38.8424 260.84 38.7117 260.644C38.5904 260.439 38.4037 260.275 38.1517 260.154C37.909 260.023 37.6057 259.958 37.2417 259.958C36.9617 259.958 36.705 259.995 36.4717 260.07C36.2477 260.145 36.0424 260.243 35.8557 260.364C35.6784 260.476 35.5197 260.597 35.3797 260.728C35.249 260.849 35.137 260.961 35.0437 261.064L34.2737 260.196C34.3484 260.112 34.4744 260 34.6517 259.86C34.829 259.711 35.053 259.561 35.3237 259.412C35.5944 259.263 35.907 259.137 36.2617 259.034C36.6257 258.922 37.0224 258.866 37.4517 258.866C38.0304 258.866 38.525 258.969 38.9357 259.174C39.3557 259.37 39.6777 259.641 39.9017 259.986C40.1257 260.322 40.2377 260.7 40.2377 261.12C40.2377 261.484 40.1584 261.801 39.9997 262.072C39.8504 262.343 39.6544 262.581 39.4117 262.786C39.1784 262.991 38.931 263.169 38.6697 263.318C38.4177 263.458 38.189 263.579 37.9837 263.682C37.5637 263.887 37.2044 264.074 36.9057 264.242C36.607 264.41 36.3597 264.578 36.1637 264.746C35.977 264.905 35.823 265.073 35.7017 265.25C35.5897 265.427 35.5057 265.637 35.4497 265.88H40.3917V267H34.1617ZM52.7829 257.06L46.0629 267H44.6909L51.3969 257.06H52.7829ZM57.0353 267C57.0353 266.627 57.0633 266.277 57.1193 265.95C57.1846 265.623 57.2966 265.311 57.4553 265.012C57.6233 264.713 57.8566 264.429 58.1553 264.158C58.454 263.878 58.8413 263.607 59.3173 263.346C59.5973 263.187 59.8773 263.038 60.1573 262.898C60.4466 262.758 60.7126 262.609 60.9553 262.45C61.2073 262.291 61.408 262.119 61.5573 261.932C61.7066 261.736 61.7813 261.512 61.7813 261.26C61.7813 261.045 61.716 260.84 61.5853 260.644C61.464 260.439 61.2773 260.275 61.0253 260.154C60.7826 260.023 60.4793 259.958 60.1153 259.958C59.8353 259.958 59.5786 259.995 59.3453 260.07C59.1213 260.145 58.916 260.243 58.7293 260.364C58.552 260.476 58.3933 260.597 58.2533 260.728C58.1226 260.849 58.0106 260.961 57.9173 261.064L57.1473 260.196C57.222 260.112 57.348 260 57.5253 259.86C57.7026 259.711 57.9266 259.561 58.1973 259.412C58.468 259.263 58.7806 259.137 59.1353 259.034C59.4993 258.922 59.896 258.866 60.3253 258.866C60.904 258.866 61.3986 258.969 61.8093 259.174C62.2293 259.37 62.5513 259.641 62.7753 259.986C62.9993 260.322 63.1113 260.7 63.1113 261.12C63.1113 261.484 63.032 261.801 62.8733 262.072C62.724 262.343 62.528 262.581 62.2853 262.786C62.052 262.991 61.8046 263.169 61.5433 263.318C61.2913 263.458 61.0626 263.579 60.8573 263.682C60.4373 263.887 60.078 264.074 59.7793 264.242C59.4806 264.41 59.2333 264.578 59.0373 264.746C58.8506 264.905 58.6966 265.073 58.5753 265.25C58.4633 265.427 58.3793 265.637 58.3233 265.88H63.2653V267H57.0353ZM71.6255 262.898C71.6255 263.719 71.4715 264.452 71.1635 265.096C70.8555 265.731 70.4355 266.23 69.9035 266.594C69.3715 266.958 68.7648 267.14 68.0835 267.14C67.4022 267.14 66.7955 266.958 66.2635 266.594C65.7315 266.23 65.3115 265.731 65.0035 265.096C64.6955 264.452 64.5415 263.719 64.5415 262.898C64.5415 262.077 64.6955 261.349 65.0035 260.714C65.3115 260.07 65.7315 259.566 66.2635 259.202C66.7955 258.829 67.4022 258.642 68.0835 258.642C68.7648 258.642 69.3715 258.829 69.9035 259.202C70.4355 259.566 70.8555 260.07 71.1635 260.714C71.4715 261.349 71.6255 262.077 71.6255 262.898ZM70.3795 262.898C70.3795 262.282 70.2815 261.741 70.0855 261.274C69.8895 260.807 69.6188 260.443 69.2735 260.182C68.9282 259.921 68.5315 259.79 68.0835 259.79C67.6262 259.79 67.2248 259.921 66.8795 260.182C66.5342 260.443 66.2635 260.807 66.0675 261.274C65.8715 261.741 65.7735 262.282 65.7735 262.898C65.7735 263.514 65.8715 264.055 66.0675 264.522C66.2635 264.979 66.5342 265.339 66.8795 265.6C67.2248 265.861 67.6262 265.992 68.0835 265.992C68.5315 265.992 68.9282 265.861 69.2735 265.6C69.6188 265.339 69.8895 264.979 70.0855 264.522C70.2815 264.055 70.3795 263.514 70.3795 262.898ZM72.8471 267C72.8471 266.627 72.8751 266.277 72.9311 265.95C72.9964 265.623 73.1084 265.311 73.2671 265.012C73.4351 264.713 73.6684 264.429 73.9671 264.158C74.2658 263.878 74.6531 263.607 75.1291 263.346C75.4091 263.187 75.6891 263.038 75.9691 262.898C76.2584 262.758 76.5244 262.609 76.7671 262.45C77.0191 262.291 77.2198 262.119 77.3691 261.932C77.5184 261.736 77.5931 261.512 77.5931 261.26C77.5931 261.045 77.5278 260.84 77.3971 260.644C77.2758 260.439 77.0891 260.275 76.8371 260.154C76.5944 260.023 76.2911 259.958 75.9271 259.958C75.6471 259.958 75.3904 259.995 75.1571 260.07C74.9331 260.145 74.7278 260.243 74.5411 260.364C74.3638 260.476 74.2051 260.597 74.0651 260.728C73.9344 260.849 73.8224 260.961 73.7291 261.064L72.9591 260.196C73.0338 260.112 73.1598 260 73.3371 259.86C73.5144 259.711 73.7384 259.561 74.0091 259.412C74.2798 259.263 74.5924 259.137 74.9471 259.034C75.3111 258.922 75.7078 258.866 76.1371 258.866C76.7158 258.866 77.2104 258.969 77.6211 259.174C78.0411 259.37 78.3631 259.641 78.5871 259.986C78.8111 260.322 78.9231 260.7 78.9231 261.12C78.9231 261.484 78.8438 261.801 78.6851 262.072C78.5358 262.343 78.3398 262.581 78.0971 262.786C77.8638 262.991 77.6164 263.169 77.3551 263.318C77.1031 263.458 76.8744 263.579 76.6691 263.682C76.2491 263.887 75.8898 264.074 75.5911 264.242C75.2924 264.41 75.0451 264.578 74.8491 264.746C74.6624 264.905 74.5084 265.073 74.3871 265.25C74.2751 265.427 74.1911 265.637 74.1351 265.88H79.0771V267H72.8471ZM84.4273 268.778V266.412H79.9333V265.32L84.8193 259.006H85.6593V265.292H86.8913V266.412H85.6593V268.778H84.4273ZM81.2073 265.292H84.5533V260.91L81.2073 265.292Z" fill="white"/>
<path d="M37.737 74.98V70.24H42.557V74.98H37.737ZM37.737 42.98V38.24H42.557V42.98H37.737ZM40.257 71.6C38.2303 71.6 36.417 71.2267 34.817 70.48C33.217 69.7333 31.9036 68.68 30.877 67.32C29.8636 65.96 29.217 64.3467 28.937 62.48L33.697 61.72C34.0703 63.36 34.8703 64.6667 36.097 65.64C37.337 66.6 38.817 67.08 40.537 67.08C42.1903 67.08 43.5503 66.6933 44.617 65.92C45.6836 65.1333 46.217 64.14 46.217 62.94C46.217 62.1 45.9636 61.42 45.457 60.9C44.9503 60.3667 44.137 59.9267 43.017 59.58L36.077 57.42C32.037 56.1667 30.017 53.7133 30.017 50.06C30.017 48.3533 30.4236 46.8667 31.237 45.6C32.0636 44.32 33.2236 43.34 34.717 42.66C36.2103 41.9667 37.9703 41.6267 39.997 41.64C41.877 41.6533 43.5503 41.9933 45.017 42.66C46.497 43.3267 47.7236 44.2867 48.697 45.54C49.6836 46.7933 50.3836 48.3 50.797 50.06L45.857 50.96C45.6703 50.0133 45.3036 49.18 44.757 48.46C44.2103 47.74 43.5236 47.18 42.697 46.78C41.8703 46.38 40.9503 46.1667 39.937 46.14C38.9636 46.1267 38.0903 46.28 37.317 46.6C36.5436 46.9067 35.9303 47.3467 35.477 47.92C35.0236 48.48 34.797 49.1133 34.797 49.82C34.797 50.6067 35.1103 51.28 35.737 51.84C36.377 52.4 37.3836 52.88 38.757 53.28L43.937 54.78C46.4303 55.5 48.2236 56.48 49.317 57.72C50.4236 58.9467 50.977 60.58 50.977 62.62C50.977 64.4067 50.5303 65.9733 49.637 67.32C48.7436 68.6667 47.4903 69.72 45.877 70.48C44.2636 71.2267 42.3903 71.6 40.257 71.6ZM59.8142 71V47.46L54.4142 50.76V45.44L59.8142 42.2H64.7342V71H59.8142ZM71.0532 70.96V66.76L83.3732 55.78C84.3332 54.9267 84.9999 54.12 85.3732 53.36C85.7466 52.6 85.9332 51.8667 85.9332 51.16C85.9332 50.2 85.7266 49.3467 85.3132 48.6C84.8999 47.84 84.3266 47.24 83.5932 46.8C82.8732 46.36 82.0399 46.14 81.0932 46.14C80.0932 46.14 79.2066 46.3733 78.4332 46.84C77.6732 47.2933 77.0799 47.9 76.6532 48.66C76.2266 49.42 76.0266 50.24 76.0532 51.12H71.0932C71.0932 49.2 71.5199 47.5267 72.3732 46.1C73.2399 44.6733 74.4266 43.5667 75.9332 42.78C77.4532 41.9933 79.2066 41.6 81.1932 41.6C83.0332 41.6 84.6866 42.0133 86.1532 42.84C87.6199 43.6533 88.7732 44.7867 89.6132 46.24C90.4532 47.68 90.8732 49.34 90.8732 51.22C90.8732 52.5933 90.6866 53.7467 90.3132 54.68C89.9399 55.6133 89.3799 56.4733 88.6332 57.26C87.8999 58.0467 86.9866 58.92 85.8932 59.88L77.1532 67.62L76.7132 66.42H90.8732V70.96H71.0532ZM105.141 71.6C103.261 71.6 101.568 71.16 100.061 70.28C98.568 69.3867 97.3813 68.1533 96.5013 66.58C95.6213 65.0067 95.1813 63.2 95.1813 61.16V52.4C95.1813 50.2133 95.6147 48.3133 96.4813 46.7C97.3613 45.0867 98.588 43.84 100.161 42.96C101.748 42.08 103.588 41.64 105.681 41.64C107.135 41.64 108.515 41.8867 109.821 42.38C111.128 42.86 112.288 43.6333 113.301 44.7L109.821 48.08C109.315 47.48 108.695 47.0067 107.961 46.66C107.241 46.3133 106.481 46.14 105.681 46.14C104.561 46.14 103.581 46.4067 102.741 46.94C101.901 47.46 101.248 48.1467 100.781 49C100.328 49.8533 100.101 50.7667 100.101 51.74V56.52L99.2213 55.56C100.048 54.6 101.041 53.8533 102.201 53.32C103.361 52.7733 104.575 52.5 105.841 52.5C107.655 52.5 109.255 52.9133 110.641 53.74C112.028 54.5533 113.121 55.6733 113.921 57.1C114.721 58.5133 115.121 60.1267 115.121 61.94C115.121 63.74 114.661 65.3733 113.741 66.84C112.835 68.2933 111.628 69.4533 110.121 70.32C108.615 71.1733 106.955 71.6 105.141 71.6ZM105.141 66.98C106.075 66.98 106.928 66.76 107.701 66.32C108.475 65.8667 109.088 65.26 109.541 64.5C110.008 63.7267 110.241 62.8733 110.241 61.94C110.241 61.0067 110.015 60.1533 109.561 59.38C109.108 58.6067 108.495 57.9933 107.721 57.54C106.961 57.0733 106.115 56.84 105.181 56.84C104.248 56.84 103.395 57.0733 102.621 57.54C101.848 57.9933 101.235 58.6067 100.781 59.38C100.328 60.1533 100.101 61.0067 100.101 61.94C100.101 62.8467 100.321 63.6867 100.761 64.46C101.215 65.22 101.821 65.8333 102.581 66.3C103.355 66.7533 104.208 66.98 105.141 66.98ZM120.325 71V66.06H125.265V71H120.325ZM131.369 71V47.46L125.969 50.76V45.44L131.369 42.2H136.289V71H131.369ZM153.768 71.6C151.728 71.6 149.928 71.1667 148.368 70.3C146.808 69.42 145.588 68.2 144.708 66.64C143.841 65.08 143.408 63.28 143.408 61.24V51.96C143.408 49.92 143.841 48.12 144.708 46.56C145.588 45 146.808 43.7867 148.368 42.92C149.928 42.04 151.728 41.6 153.768 41.6C155.808 41.6 157.601 42.04 159.148 42.92C160.708 43.7867 161.928 45 162.808 46.56C163.688 48.12 164.128 49.92 164.128 51.96V61.24C164.128 63.28 163.688 65.08 162.808 66.64C161.928 68.2 160.708 69.42 159.148 70.3C157.601 71.1667 155.808 71.6 153.768 71.6ZM153.768 67.02C154.781 67.02 155.701 66.78 156.528 66.3C157.355 65.8067 158.008 65.1533 158.488 64.34C158.968 63.5133 159.208 62.5933 159.208 61.58V51.6C159.208 50.5733 158.968 49.6533 158.488 48.84C158.008 48.0133 157.355 47.36 156.528 46.88C155.701 46.3867 154.781 46.14 153.768 46.14C152.755 46.14 151.835 46.3867 151.008 46.88C150.181 47.36 149.528 48.0133 149.048 48.84C148.568 49.6533 148.328 50.5733 148.328 51.6V61.58C148.328 62.5933 148.568 63.5133 149.048 64.34C149.528 65.1533 150.181 65.8067 151.008 66.3C151.835 66.78 152.755 67.02 153.768 67.02Z" fill="white"/>
<path d="M231.416 58.5912C231.416 59.6937 230.565 60.5874 229.515 60.5874C228.465 60.5874 227.614 59.6937 227.614 58.5912C227.614 57.4887 228.465 56.595 229.515 56.595C230.565 56.595 231.416 57.4887 231.416 58.5912Z" stroke="#697896" stroke-width="1.2" stroke-linecap="round" stroke-linejoin="round"/>
<path d="M223.467 58.5912C224.275 55.8916 226.677 53.9333 229.515 53.9333C232.353 53.9333 234.756 55.8916 235.563 58.5912C234.756 61.2909 232.353 63.2491 229.515 63.2491C226.677 63.2491 224.275 61.2908 223.467 58.5912Z" stroke="#697896" stroke-width="1.2" stroke-linecap="round" stroke-linejoin="round"/>
<line x1="229.551" y1="49.9241" x2="229.551" y2="51.9184" stroke="#697896" stroke-linecap="round"/>
<line x1="0.5" y1="-0.5" x2="2.45876" y2="-0.5" transform="matrix(-0.481886 0.876234 -0.855178 -0.518335 233.857 50.0449)" stroke="#697896" stroke-linecap="round"/>
<line x1="0.5" y1="-0.5" x2="2.38801" y2="-0.5" transform="matrix(-0.855177 0.518335 -0.481886 -0.876234 237.522 53.1016)" stroke="#697896" stroke-linecap="round"/>
<line x1="0.5" y1="-0.5" x2="2.38801" y2="-0.5" transform="matrix(-0.855187 -0.518319 0.481902 -0.876225 224.102 54.5986)" stroke="#697896" stroke-linecap="round"/>
<line x1="0.5" y1="-0.5" x2="2.45876" y2="-0.5" transform="matrix(-0.481886 -0.876234 0.855178 -0.518335 226.736 52.6379)" stroke="#697896" stroke-linecap="round"/>
<path d="M28.247 103V95.9H29.147V103H28.247ZM31.6446 97.56V103H30.7446V95.9H31.5046L35.8446 101.45V95.91H36.7446V103H35.9246L31.6446 97.56ZM42.5099 97.39C42.4299 97.2967 42.3233 97.2067 42.1899 97.12C42.0566 97.0333 41.9066 96.9567 41.7399 96.89C41.5733 96.8167 41.3899 96.76 41.1899 96.72C40.9966 96.6733 40.7933 96.65 40.5799 96.65C40.0333 96.65 39.6299 96.7533 39.3699 96.96C39.1099 97.1667 38.9799 97.45 38.9799 97.81C38.9799 98.0633 39.0466 98.2633 39.1799 98.41C39.3133 98.5567 39.5166 98.6767 39.7899 98.77C40.0699 98.8633 40.4233 98.96 40.8499 99.06C41.3433 99.1667 41.7699 99.2967 42.1299 99.45C42.4899 99.6033 42.7666 99.81 42.9599 100.07C43.1533 100.323 43.2499 100.663 43.2499 101.09C43.2499 101.43 43.1833 101.727 43.0499 101.98C42.9233 102.227 42.7433 102.433 42.5099 102.6C42.2766 102.76 42.0033 102.88 41.6899 102.96C41.3766 103.033 41.0366 103.07 40.6699 103.07C40.3099 103.07 39.9566 103.033 39.6099 102.96C39.2699 102.88 38.9466 102.767 38.6399 102.62C38.3333 102.473 38.0466 102.29 37.7799 102.07L38.2099 101.31C38.3166 101.423 38.4533 101.537 38.6199 101.65C38.7933 101.757 38.9866 101.857 39.1999 101.95C39.4199 102.043 39.6566 102.12 39.9099 102.18C40.1633 102.233 40.4233 102.26 40.6899 102.26C41.1966 102.26 41.5899 102.17 41.8699 101.99C42.1499 101.803 42.2899 101.533 42.2899 101.18C42.2899 100.913 42.2099 100.7 42.0499 100.54C41.8966 100.38 41.6666 100.247 41.3599 100.14C41.0533 100.033 40.6799 99.9267 40.2399 99.82C39.7599 99.7 39.3566 99.57 39.0299 99.43C38.7033 99.2833 38.4566 99.0933 38.2899 98.86C38.1299 98.6267 38.0499 98.3233 38.0499 97.95C38.0499 97.4967 38.1599 97.1133 38.3799 96.8C38.5999 96.4867 38.9033 96.25 39.2899 96.09C39.6766 95.93 40.1133 95.85 40.5999 95.85C40.9199 95.85 41.2166 95.8833 41.4899 95.95C41.7699 96.0167 42.0299 96.11 42.2699 96.23C42.5099 96.35 42.7299 96.4933 42.9299 96.66L42.5099 97.39ZM49.1537 102.2V103H44.3337V95.9H49.0637V96.7H45.2337V99H48.5637V99.75H45.2337V102.2H49.1537ZM50.2884 103V95.9H53.3284C53.6417 95.9 53.9284 95.9667 54.1884 96.1C54.4484 96.2267 54.675 96.4 54.8684 96.62C55.0617 96.8333 55.2117 97.0767 55.3184 97.35C55.425 97.6167 55.4784 97.89 55.4784 98.17C55.4784 98.4967 55.415 98.8067 55.2884 99.1C55.1684 99.3933 54.995 99.6433 54.7684 99.85C54.5484 100.057 54.2884 100.2 53.9884 100.28L55.7084 103H54.6884L53.0684 100.45H51.1884V103H50.2884ZM51.1884 99.65H53.3384C53.585 99.65 53.7984 99.5833 53.9784 99.45C54.165 99.31 54.3084 99.1267 54.4084 98.9C54.515 98.6733 54.5684 98.43 54.5684 98.17C54.5684 97.9033 54.5084 97.66 54.3884 97.44C54.2684 97.2133 54.1117 97.0333 53.9184 96.9C53.725 96.7667 53.5117 96.7 53.2784 96.7H51.1884V99.65ZM61.8221 96.7H59.3721V103H58.4721V96.7H56.0221V95.9H61.8221V96.7ZM67.7512 103.05C67.2512 103.05 66.7979 102.95 66.3912 102.75C65.9845 102.55 65.6312 102.28 65.3312 101.94C65.0379 101.593 64.8112 101.207 64.6512 100.78C64.4912 100.347 64.4112 99.9033 64.4112 99.45C64.4112 98.9767 64.4945 98.5267 64.6612 98.1C64.8345 97.6667 65.0712 97.2833 65.3712 96.95C65.6779 96.61 66.0345 96.3433 66.4412 96.15C66.8479 95.95 67.2912 95.85 67.7712 95.85C68.2712 95.85 68.7245 95.9533 69.1312 96.16C69.5379 96.3667 69.8879 96.6433 70.1812 96.99C70.4745 97.3367 70.7012 97.7233 70.8612 98.15C71.0212 98.5767 71.1012 99.0133 71.1012 99.46C71.1012 99.9333 71.0179 100.387 70.8512 100.82C70.6845 101.247 70.4479 101.63 70.1412 101.97C69.8412 102.303 69.4879 102.567 69.0812 102.76C68.6745 102.953 68.2312 103.05 67.7512 103.05ZM65.3212 99.45C65.3212 99.81 65.3779 100.16 65.4912 100.5C65.6112 100.833 65.7779 101.13 65.9912 101.39C66.2045 101.65 66.4612 101.857 66.7612 102.01C67.0612 102.163 67.3945 102.24 67.7612 102.24C68.1412 102.24 68.4812 102.16 68.7812 102C69.0812 101.84 69.3345 101.627 69.5412 101.36C69.7545 101.093 69.9145 100.793 70.0212 100.46C70.1345 100.127 70.1912 99.79 70.1912 99.45C70.1912 99.09 70.1312 98.7433 70.0112 98.41C69.8979 98.0767 69.7312 97.78 69.5112 97.52C69.2979 97.2533 69.0412 97.0467 68.7412 96.9C68.4479 96.7467 68.1212 96.67 67.7612 96.67C67.3812 96.67 67.0412 96.75 66.7412 96.91C66.4412 97.0633 66.1845 97.2733 65.9712 97.54C65.7645 97.8067 65.6045 98.1067 65.4912 98.44C65.3779 98.7667 65.3212 99.1033 65.3212 99.45ZM72.2517 103V95.9H75.2917C75.605 95.9 75.8917 95.9667 76.1517 96.1C76.4117 96.2267 76.6383 96.4 76.8317 96.62C77.025 96.8333 77.175 97.0767 77.2817 97.35C77.3883 97.6167 77.4417 97.89 77.4417 98.17C77.4417 98.4967 77.3783 98.8067 77.2517 99.1C77.1317 99.3933 76.9583 99.6433 76.7317 99.85C76.5117 100.057 76.2517 100.2 75.9517 100.28L77.6717 103H76.6517L75.0317 100.45H73.1517V103H72.2517ZM73.1517 99.65H75.3017C75.5483 99.65 75.7617 99.5833 75.9417 99.45C76.1283 99.31 76.2717 99.1267 76.3717 98.9C76.4783 98.6733 76.5317 98.43 76.5317 98.17C76.5317 97.9033 76.4717 97.66 76.3517 97.44C76.2317 97.2133 76.075 97.0333 75.8817 96.9C75.6883 96.7667 75.475 96.7 75.2417 96.7H73.1517V99.65ZM32.417 112.39C32.337 112.297 32.2303 112.207 32.097 112.12C31.9636 112.033 31.8136 111.957 31.647 111.89C31.4803 111.817 31.297 111.76 31.097 111.72C30.9036 111.673 30.7003 111.65 30.487 111.65C29.9403 111.65 29.537 111.753 29.277 111.96C29.017 112.167 28.887 112.45 28.887 112.81C28.887 113.063 28.9536 113.263 29.087 113.41C29.2203 113.557 29.4236 113.677 29.697 113.77C29.977 113.863 30.3303 113.96 30.757 114.06C31.2503 114.167 31.677 114.297 32.037 114.45C32.397 114.603 32.6736 114.81 32.867 115.07C33.0603 115.323 33.157 115.663 33.157 116.09C33.157 116.43 33.0903 116.727 32.957 116.98C32.8303 117.227 32.6503 117.433 32.417 117.6C32.1836 117.76 31.9103 117.88 31.597 117.96C31.2836 118.033 30.9436 118.07 30.577 118.07C30.217 118.07 29.8636 118.033 29.517 117.96C29.177 117.88 28.8536 117.767 28.547 117.62C28.2403 117.473 27.9536 117.29 27.687 117.07L28.117 116.31C28.2236 116.423 28.3603 116.537 28.527 116.65C28.7003 116.757 28.8936 116.857 29.107 116.95C29.327 117.043 29.5636 117.12 29.817 117.18C30.0703 117.233 30.3303 117.26 30.597 117.26C31.1036 117.26 31.497 117.17 31.777 116.99C32.057 116.803 32.197 116.533 32.197 116.18C32.197 115.913 32.117 115.7 31.957 115.54C31.8036 115.38 31.5736 115.247 31.267 115.14C30.9603 115.033 30.587 114.927 30.147 114.82C29.667 114.7 29.2636 114.57 28.937 114.43C28.6103 114.283 28.3636 114.093 28.197 113.86C28.037 113.627 27.957 113.323 27.957 112.95C27.957 112.497 28.067 112.113 28.287 111.8C28.507 111.487 28.8103 111.25 29.197 111.09C29.5836 110.93 30.0203 110.85 30.507 110.85C30.827 110.85 31.1236 110.883 31.397 110.95C31.677 111.017 31.937 111.11 32.177 111.23C32.417 111.35 32.637 111.493 32.837 111.66L32.417 112.39ZM36.6845 110.94H37.5345L38.4745 113.41L39.4245 110.94H40.2745L39.0445 114.03L40.2645 116.96L42.6645 110.9H43.6445L40.6745 118H39.8945L38.4845 114.65L37.0645 118H36.2845L33.3245 110.9H34.2945L36.7045 116.96L37.9145 114.03L36.6845 110.94ZM44.4728 118V110.9H45.3728V118H44.4728ZM46.9704 118V110.9H49.9304C50.2437 110.9 50.5304 110.967 50.7904 111.1C51.0504 111.227 51.2771 111.4 51.4704 111.62C51.6637 111.833 51.8137 112.077 51.9204 112.35C52.0271 112.617 52.0804 112.89 52.0804 113.17C52.0804 113.557 51.9937 113.927 51.8204 114.28C51.6471 114.627 51.4037 114.91 51.0904 115.13C50.7771 115.343 50.4104 115.45 49.9904 115.45H47.8704V118H46.9704ZM47.8704 114.65H49.9404C50.1871 114.65 50.4004 114.583 50.5804 114.45C50.7671 114.317 50.9104 114.137 51.0104 113.91C51.1171 113.683 51.1704 113.437 51.1704 113.17C51.1704 112.89 51.1104 112.64 50.9904 112.42C50.8704 112.193 50.7137 112.017 50.5204 111.89C50.3271 111.763 50.1137 111.7 49.8804 111.7H47.8704V114.65ZM57.9209 117.2V118H53.1009V110.9H57.8309V111.7H54.0009V114H57.3309V114.75H54.0009V117.2H57.9209Z" fill="#697896"/>
</g>
</svg>
