<svg width="197" height="45" viewBox="0 0 197 45" fill="none" xmlns="http://www.w3.org/2000/svg">
<path d="M22 14.2127C22 13.7298 21.6671 13.3107 21.1968 13.2014L3.97758 9.19837C3.32655 9.04702 2.70421 9.54128 2.70421 10.2097V17.2628C2.70421 17.7457 3.03707 18.1648 3.50738 18.2741L20.7266 22.2771C21.3777 22.4285 22 21.9342 22 21.2658V14.2127Z" fill="#635BFF"/>
<path d="M22.0273 32.2498C22.0273 31.7669 21.6945 31.3478 21.2242 31.2385L4.00492 27.2355C3.3539 27.0841 2.73155 27.5784 2.73155 28.2468V35.3C2.73155 35.7828 3.06441 36.2019 3.53472 36.3113L20.754 40.3143C21.405 40.4656 22.0273 39.9713 22.0273 39.303V32.2498Z" fill="#635BFF"/>
<path d="M41.2969 9.29958C41.2969 8.81673 40.964 8.39762 40.4937 8.28828L23.2745 4.28528C22.6234 4.13394 22.0011 4.6282 22.0011 5.29658V12.3498C22.0011 12.8326 22.3339 13.2517 22.8043 13.3611L40.0235 17.3641C40.6745 17.5154 41.2969 17.0211 41.2969 16.3528V9.29958Z" fill="#635BFF"/>
<path d="M41.2969 27.1404C41.2969 26.6576 40.964 26.2384 40.4937 26.1291L23.2745 22.1261C22.6234 21.9748 22.0011 22.469 22.0011 23.1374V30.1906C22.0011 30.6734 22.3339 31.0925 22.8043 31.2019L40.0235 35.2049C40.6745 35.3562 41.2969 34.862 41.2969 34.1936V27.1404Z" fill="#635BFF"/>
<path d="M57.608 30.7998V13.9998H68.552V16.6158H60.848V21.1038H67.04V23.6478H60.848V30.7998H57.608ZM75.2896 31.0878C74.2976 31.0878 73.4496 30.8798 72.7456 30.4638C72.0576 30.0478 71.5296 29.4318 71.1616 28.6158C70.8096 27.7838 70.6336 26.7678 70.6336 25.5678V18.8958H73.8496V25.2798C73.8496 26.2718 74.0496 27.0318 74.4496 27.5598C74.8496 28.0878 75.4816 28.3518 76.3456 28.3518C76.9056 28.3518 77.4016 28.2238 77.8336 27.9678C78.2656 27.6958 78.6016 27.3198 78.8416 26.8398C79.0816 26.3438 79.2016 25.7438 79.2016 25.0398V18.8958H82.4416V30.7998H79.5856L79.3456 28.8078C78.9616 29.4958 78.4256 30.0478 77.7376 30.4638C77.0496 30.8798 76.2336 31.0878 75.2896 31.0878ZM85.5678 30.7998V18.8958H88.4238L88.6638 20.8878C89.0318 20.1998 89.5598 19.6478 90.2478 19.2318C90.9358 18.8158 91.7598 18.6078 92.7198 18.6078C93.7118 18.6078 94.5518 18.8238 95.2398 19.2558C95.9278 19.6718 96.4558 20.2878 96.8238 21.1038C97.1918 21.9198 97.3758 22.9278 97.3758 24.1278V30.7998H94.1358V24.4158C94.1358 23.4238 93.9358 22.6638 93.5358 22.1358C93.1358 21.6078 92.5038 21.3438 91.6398 21.3438C91.0958 21.3438 90.6078 21.4798 90.1758 21.7518C89.7438 22.0078 89.4078 22.3838 89.1678 22.8798C88.9278 23.3598 88.8078 23.9518 88.8078 24.6558V30.7998H85.5678ZM105.782 31.0878C104.678 31.0878 103.678 30.8158 102.782 30.2718C101.902 29.7278 101.206 28.9838 100.694 28.0398C100.182 27.0798 99.926 26.0078 99.926 24.8238C99.926 23.6238 100.182 22.5598 100.694 21.6318C101.206 20.6878 101.902 19.9518 102.782 19.4238C103.678 18.8798 104.678 18.6078 105.782 18.6078C106.662 18.6078 107.43 18.7758 108.086 19.1118C108.758 19.4318 109.294 19.8798 109.694 20.4558V13.5198H112.934V30.7998H110.054L109.694 29.1438C109.454 29.4958 109.15 29.8238 108.782 30.1278C108.43 30.4158 108.006 30.6478 107.51 30.8238C107.014 30.9998 106.438 31.0878 105.782 31.0878ZM106.502 28.2558C107.142 28.2558 107.71 28.1118 108.206 27.8238C108.702 27.5198 109.086 27.1118 109.358 26.5998C109.646 26.0878 109.79 25.5038 109.79 24.8478C109.79 24.1758 109.646 23.5838 109.358 23.0718C109.086 22.5598 108.702 22.1598 108.206 21.8718C107.71 21.5838 107.142 21.4398 106.502 21.4398C105.878 21.4398 105.31 21.5838 104.798 21.8718C104.302 22.1598 103.918 22.5598 103.646 23.0718C103.374 23.5838 103.238 24.1678 103.238 24.8238C103.238 25.4958 103.374 26.0878 103.646 26.5998C103.918 27.1118 104.302 27.5198 104.798 27.8238C105.31 28.1118 105.878 28.2558 106.502 28.2558ZM121.004 31.0878C119.948 31.0878 119.012 30.9118 118.196 30.5598C117.396 30.2078 116.748 29.7278 116.252 29.1198C115.772 28.4958 115.492 27.7918 115.412 27.0078H118.652C118.716 27.2958 118.852 27.5678 119.06 27.8238C119.268 28.0638 119.532 28.2558 119.852 28.3998C120.172 28.5438 120.54 28.6158 120.956 28.6158C121.404 28.6158 121.756 28.5598 122.012 28.4478C122.284 28.3198 122.484 28.1598 122.612 27.9678C122.756 27.7598 122.828 27.5518 122.828 27.3438C122.828 27.0238 122.724 26.7838 122.516 26.6238C122.324 26.4478 122.044 26.3038 121.676 26.1918C121.308 26.0798 120.868 25.9598 120.356 25.8318C119.828 25.7038 119.292 25.5598 118.748 25.3998C118.22 25.2398 117.732 25.0398 117.284 24.7998C116.836 24.5438 116.476 24.2238 116.204 23.8398C115.932 23.4558 115.796 22.9678 115.796 22.3758C115.796 21.6718 115.988 21.0398 116.372 20.4798C116.772 19.9038 117.332 19.4478 118.052 19.1118C118.788 18.7758 119.66 18.6078 120.668 18.6078C122.108 18.6078 123.252 18.9358 124.1 19.5918C124.964 20.2478 125.468 21.1518 125.612 22.3038H122.564C122.484 21.9198 122.276 21.6238 121.94 21.4158C121.62 21.2078 121.196 21.1038 120.668 21.1038C120.108 21.1038 119.676 21.2078 119.372 21.4158C119.084 21.6238 118.94 21.8798 118.94 22.1838C118.94 22.4078 119.044 22.5998 119.252 22.7598C119.46 22.9198 119.748 23.0638 120.116 23.1918C120.5 23.3038 120.94 23.4158 121.436 23.5278C122.3 23.7358 123.076 23.9598 123.764 24.1998C124.452 24.4238 125.004 24.7598 125.42 25.2078C125.852 25.6558 126.068 26.3118 126.068 27.1758C126.084 27.9118 125.884 28.5758 125.468 29.1678C125.052 29.7598 124.468 30.2318 123.716 30.5838C122.964 30.9198 122.06 31.0878 121.004 31.0878ZM128.763 36.0798V18.8958H131.643L132.003 20.5518C132.259 20.1998 132.563 19.8798 132.915 19.5918C133.267 19.2878 133.691 19.0478 134.187 18.8718C134.683 18.6958 135.259 18.6078 135.915 18.6078C137.035 18.6078 138.027 18.8798 138.891 19.4238C139.771 19.9678 140.467 20.7118 140.979 21.6558C141.491 22.5998 141.747 23.6718 141.747 24.8718C141.747 26.0558 141.491 27.1198 140.979 28.0638C140.467 29.0078 139.771 29.7518 138.891 30.2958C138.027 30.8238 137.035 31.0878 135.915 31.0878C135.035 31.0878 134.267 30.9278 133.611 30.6078C132.955 30.2718 132.419 29.8158 132.003 29.2398V36.0798H128.763ZM135.195 28.2558C135.819 28.2558 136.379 28.1118 136.875 27.8238C137.371 27.5358 137.755 27.1358 138.027 26.6238C138.315 26.1118 138.459 25.5278 138.459 24.8718C138.459 24.1998 138.315 23.6078 138.027 23.0958C137.755 22.5838 137.371 22.1838 136.875 21.8958C136.379 21.5918 135.819 21.4398 135.195 21.4398C134.555 21.4398 133.987 21.5918 133.491 21.8958C132.995 22.1838 132.603 22.5838 132.315 23.0958C132.043 23.6078 131.907 24.1918 131.907 24.8478C131.907 25.5038 132.043 26.0958 132.315 26.6238C132.603 27.1358 132.995 27.5358 133.491 27.8238C133.987 28.1118 134.555 28.2558 135.195 28.2558ZM144.513 30.7998V13.5198H147.753V20.6718C148.137 20.0478 148.665 19.5518 149.337 19.1838C150.009 18.7998 150.793 18.6078 151.689 18.6078C152.681 18.6078 153.521 18.8238 154.209 19.2558C154.897 19.6718 155.417 20.2878 155.769 21.1038C156.137 21.9198 156.321 22.9278 156.321 24.1278V30.7998H153.105V24.4158C153.105 23.4238 152.905 22.6638 152.505 22.1358C152.121 21.6078 151.489 21.3438 150.609 21.3438C150.065 21.3438 149.577 21.4798 149.145 21.7518C148.713 22.0078 148.369 22.3838 148.113 22.8798C147.873 23.3598 147.753 23.9518 147.753 24.6558V30.7998H144.513ZM165.087 31.0878C163.871 31.0878 162.791 30.8318 161.847 30.3198C160.919 29.8078 160.191 29.0878 159.663 28.1598C159.135 27.2318 158.871 26.1678 158.871 24.9678C158.871 23.7198 159.127 22.6238 159.639 21.6798C160.167 20.7198 160.895 19.9678 161.823 19.4238C162.767 18.8798 163.863 18.6078 165.111 18.6078C166.295 18.6078 167.335 18.8638 168.231 19.3758C169.143 19.8878 169.847 20.5918 170.343 21.4878C170.855 22.3678 171.111 23.3678 171.111 24.4878C171.111 24.6478 171.111 24.8318 171.111 25.0398C171.111 25.2318 171.095 25.4318 171.063 25.6398H161.199V23.6478H167.823C167.775 22.9278 167.495 22.3438 166.983 21.8958C166.487 21.4478 165.863 21.2238 165.111 21.2238C164.551 21.2238 164.039 21.3518 163.575 21.6078C163.111 21.8478 162.743 22.2158 162.471 22.7118C162.199 23.2078 162.063 23.8318 162.063 24.5838V25.2798C162.063 25.9198 162.191 26.4798 162.447 26.9598C162.703 27.4398 163.055 27.8078 163.503 28.0638C163.967 28.3198 164.487 28.4478 165.063 28.4478C165.655 28.4478 166.151 28.3198 166.551 28.0638C166.951 27.7918 167.255 27.4478 167.463 27.0318H170.775C170.535 27.7838 170.151 28.4718 169.623 29.0958C169.095 29.7038 168.447 30.1918 167.679 30.5598C166.911 30.9118 166.047 31.0878 165.087 31.0878ZM173.693 30.7998V18.8958H176.573L176.885 21.1278C177.173 20.6158 177.525 20.1758 177.941 19.8078C178.373 19.4238 178.861 19.1278 179.405 18.9198C179.965 18.7118 180.573 18.6078 181.229 18.6078V22.0398H180.341C179.845 22.0398 179.381 22.0958 178.949 22.2078C178.533 22.3198 178.173 22.5038 177.869 22.7598C177.565 23.0158 177.333 23.3678 177.173 23.8158C177.013 24.2478 176.933 24.7998 176.933 25.4718V30.7998H173.693ZM188.97 31.0878C187.754 31.0878 186.674 30.8318 185.73 30.3198C184.802 29.8078 184.074 29.0878 183.546 28.1598C183.018 27.2318 182.754 26.1678 182.754 24.9678C182.754 23.7198 183.01 22.6238 183.522 21.6798C184.05 20.7198 184.778 19.9678 185.706 19.4238C186.65 18.8798 187.746 18.6078 188.994 18.6078C190.178 18.6078 191.218 18.8638 192.114 19.3758C193.026 19.8878 193.73 20.5918 194.226 21.4878C194.738 22.3678 194.994 23.3678 194.994 24.4878C194.994 24.6478 194.994 24.8318 194.994 25.0398C194.994 25.2318 194.978 25.4318 194.946 25.6398H185.082V23.6478H191.706C191.658 22.9278 191.378 22.3438 190.866 21.8958C190.37 21.4478 189.746 21.2238 188.994 21.2238C188.434 21.2238 187.922 21.3518 187.458 21.6078C186.994 21.8478 186.626 22.2158 186.354 22.7118C186.082 23.2078 185.946 23.8318 185.946 24.5838V25.2798C185.946 25.9198 186.074 26.4798 186.33 26.9598C186.586 27.4398 186.938 27.8078 187.386 28.0638C187.85 28.3198 188.37 28.4478 188.946 28.4478C189.538 28.4478 190.034 28.3198 190.434 28.0638C190.834 27.7918 191.138 27.4478 191.346 27.0318H194.658C194.418 27.7838 194.034 28.4718 193.506 29.0958C192.978 29.7038 192.33 30.1918 191.562 30.5598C190.794 30.9118 189.93 31.0878 188.97 31.0878Z" fill="white"/>
</svg>
