<svg width="1440" height="153" viewBox="0 0 1440 153" fill="none" xmlns="http://www.w3.org/2000/svg">
<mask id="path-1-inside-1_13001_889" fill="white">
<path fill-rule="evenodd" clip-rule="evenodd" d="M783.12 -225.254C790.228 -223.602 795.258 -217.268 795.258 -209.971V-116.001C795.258 -105.9 785.853 -98.431 776.014 -100.718L542.303 -155.05C535.196 -156.702 530.166 -163.036 530.166 -170.333V-264.303C530.166 -274.403 539.57 -281.873 549.409 -279.586L783.12 -225.254ZM1590.51 -167.836C1590.51 -175.133 1585.48 -181.467 1578.37 -183.119L1344.66 -237.451C1334.82 -239.738 1325.42 -232.268 1325.42 -222.168V-128.198C1325.42 -120.901 1330.45 -114.567 1337.56 -112.915L1571.27 -58.5831C1581.11 -56.2959 1590.51 -63.7653 1590.51 -73.8661V-167.836ZM518.031 -157.76C525.139 -156.108 530.169 -149.774 530.169 -142.477V-48.5069C530.169 -38.4062 520.764 -30.9368 510.926 -33.224L277.214 -87.5554C270.107 -89.2077 265.077 -95.5415 265.077 -102.838V-196.808C265.077 -206.909 274.482 -214.379 284.32 -212.091L518.031 -157.76ZM1313.29 -115.625C1320.39 -113.973 1325.42 -107.639 1325.42 -100.342V-6.37183C1325.42 3.72891 1316.02 11.1983 1306.18 8.91113L1072.47 -45.4203C1065.36 -47.0726 1060.33 -53.4064 1060.33 -60.7033V-154.673C1060.33 -164.774 1069.74 -172.244 1079.57 -169.956L1313.29 -115.625ZM1060.35 -31.7201C1060.35 -39.017 1055.32 -45.3508 1048.21 -47.0031L814.498 -101.335C804.659 -103.622 795.254 -96.1523 795.254 -86.0515V7.91858C795.254 15.2155 800.285 21.5493 807.392 23.2015L1041.1 77.533C1050.94 79.8201 1060.35 72.3508 1060.35 62.25V-31.7201ZM252.955 -89.1385C260.063 -87.4862 265.093 -81.1524 265.093 -73.8555V20.1146C265.093 30.2154 255.688 37.6848 245.849 35.3976L12.1381 -18.9338C5.03077 -20.5861 0.000497046 -26.9199 0.000497046 -34.2168V-128.187C0.000497046 -138.288 9.4055 -145.757 19.2439 -143.47L252.955 -89.1385ZM1590.51 322.364C1590.51 315.067 1585.48 308.733 1578.37 307.081L1344.66 252.749C1334.82 250.462 1325.42 257.932 1325.42 268.032V362.003C1325.42 369.299 1330.45 375.633 1337.56 377.286L1571.27 431.617C1581.11 433.904 1590.51 426.435 1590.51 416.334V322.364ZM783.12 264.946C790.228 266.598 795.258 272.932 795.258 280.229V374.199C795.258 384.3 785.853 391.769 776.014 389.482L542.303 335.151C535.196 333.498 530.166 327.165 530.166 319.868V225.898C530.166 215.797 539.57 208.327 549.409 210.615L783.12 264.946ZM1590.51 77.2638C1590.51 69.9669 1585.48 63.6331 1578.37 61.9808L1344.66 7.64938C1334.82 5.36224 1325.42 12.8316 1325.42 22.9324V116.902C1325.42 124.199 1330.45 130.533 1337.56 132.185L1571.27 186.517C1581.11 188.804 1590.51 181.335 1590.51 171.234V77.2638ZM783.121 19.8459C790.229 21.4982 795.259 27.832 795.259 35.1289V129.099C795.259 139.2 785.854 146.669 776.015 144.382L542.304 90.0505C535.197 88.3983 530.167 82.0645 530.167 74.7676V-19.2025C530.167 -29.3033 539.571 -36.7727 549.41 -34.4855L783.121 19.8459ZM1060.35 216.204C1060.35 208.907 1055.32 202.573 1048.21 200.921L814.503 146.59C804.664 144.302 795.259 151.772 795.259 161.873V255.843C795.259 263.14 800.29 269.473 807.397 271.126L1041.11 325.457C1050.95 327.744 1060.35 320.275 1060.35 310.174V216.204ZM1313.29 129.475C1320.39 131.127 1325.42 137.461 1325.42 144.758V238.728C1325.42 248.829 1316.02 256.298 1306.18 254.011L1072.47 199.68C1065.36 198.027 1060.33 191.694 1060.33 184.397V90.4265C1060.33 80.3257 1069.74 72.8564 1079.57 75.1435L1313.29 129.475ZM530.17 102.623C530.17 95.3261 525.14 88.9923 518.032 87.3401L284.321 33.0086C274.483 30.7215 265.078 38.1909 265.078 48.2916V142.262C265.078 149.559 270.108 155.892 277.215 157.545L510.927 211.876C520.765 214.163 530.17 206.694 530.17 196.593V102.623ZM252.955 155.732C260.063 157.384 265.093 163.718 265.093 171.015V264.985C265.093 275.086 255.688 282.555 245.849 280.268L12.1381 225.937C5.03077 224.284 0.000497046 217.95 0.000497046 210.654V116.683C0.000497046 106.583 9.4055 99.1133 19.2439 101.4L252.955 155.732Z"/>
</mask>
<path d="M783.12 -225.254L783.347 -226.228L783.12 -225.254ZM776.014 -100.718L776.241 -101.692L776.014 -100.718ZM542.303 -155.05L542.077 -154.076L542.303 -155.05ZM549.409 -279.586L549.635 -280.56V-280.56L549.409 -279.586ZM1578.37 -183.119L1578.15 -182.145L1578.37 -183.119ZM1344.66 -237.451L1344.44 -236.477L1344.66 -237.451ZM1337.56 -112.915L1337.78 -113.889L1337.56 -112.915ZM1571.27 -58.5831L1571.49 -59.5571L1571.27 -58.5831ZM518.031 -157.76L518.258 -158.734L518.031 -157.76ZM510.926 -33.224L511.152 -34.198L510.926 -33.224ZM277.214 -87.5554L277.441 -88.5294L277.214 -87.5554ZM284.32 -212.091L284.094 -211.117L284.32 -212.091ZM1313.29 -115.625L1313.06 -114.651L1313.29 -115.625ZM1306.18 8.91113L1306.41 7.9371L1306.18 8.91113ZM1072.47 -45.4203L1072.7 -46.3943L1072.47 -45.4203ZM1079.57 -169.956L1079.35 -168.982L1079.57 -169.956ZM1048.21 -47.0031L1047.98 -46.0291L1048.21 -47.0031ZM814.498 -101.335L814.724 -102.309L814.498 -101.335ZM807.392 23.2015L807.619 22.2275L807.392 23.2015ZM1041.1 77.533L1040.88 78.507L1041.1 77.533ZM252.955 -89.1385L252.729 -88.1644L252.955 -89.1385ZM245.849 35.3976L245.623 36.3716H245.623L245.849 35.3976ZM12.1381 -18.9338L12.3646 -19.9079H12.3646L12.1381 -18.9338ZM19.2439 -143.47L19.4703 -144.444L19.2439 -143.47ZM1578.37 307.081L1578.6 306.107L1578.37 307.081ZM1344.66 252.749L1344.44 253.723L1344.66 252.749ZM1337.56 377.286L1337.33 378.26L1337.56 377.286ZM1571.27 431.617L1571.49 430.643L1571.27 431.617ZM783.12 264.946L783.347 263.972L783.12 264.946ZM776.014 389.482L775.788 390.456L776.014 389.482ZM542.303 335.151L542.53 334.177L542.303 335.151ZM549.409 210.615L549.635 209.641L549.409 210.615ZM1578.37 61.9808L1578.15 62.9549L1578.37 61.9808ZM1344.66 7.64938L1344.89 6.67535L1344.66 7.64938ZM1337.56 132.185L1337.33 133.159L1337.56 132.185ZM1571.27 186.517L1571.49 185.543L1571.27 186.517ZM783.121 19.8459L783.348 18.8719L783.121 19.8459ZM776.015 144.382L775.789 145.356L776.015 144.382ZM542.304 90.0505L542.531 89.0765L542.304 90.0505ZM549.41 -34.4855L549.636 -35.4595L549.41 -34.4855ZM1048.21 200.921L1047.99 201.895L1048.21 200.921ZM814.503 146.59L814.729 145.616L814.503 146.59ZM807.397 271.126L807.623 270.152L807.397 271.126ZM1041.11 325.457L1040.88 326.431L1041.11 325.457ZM1313.29 129.475L1313.06 130.449L1313.29 129.475ZM1306.18 254.011L1305.95 254.985L1306.18 254.011ZM1072.47 199.68L1072.24 200.654L1072.47 199.68ZM1079.57 75.1435L1079.8 74.1695L1079.57 75.1435ZM518.032 87.3401L517.806 88.3141L518.032 87.3401ZM284.321 33.0086L284.547 32.0346L284.321 33.0086ZM277.215 157.545L276.989 158.519L277.215 157.545ZM510.927 211.876L511.153 210.902L510.927 211.876ZM252.955 155.732L252.729 156.706H252.729L252.955 155.732ZM245.849 280.268L245.623 281.242H245.623L245.849 280.268ZM12.1381 225.937L11.9117 226.911H11.9117L12.1381 225.937ZM19.2439 101.4L19.4703 100.426H19.4703L19.2439 101.4ZM796.258 -209.971C796.258 -217.733 790.907 -224.471 783.347 -226.228L782.894 -224.28C789.548 -222.733 794.258 -216.803 794.258 -209.971H796.258ZM796.258 -116.001V-209.971H794.258V-116.001H796.258ZM775.788 -99.7441C786.253 -97.3112 796.258 -105.257 796.258 -116.001H794.258C794.258 -106.544 785.452 -99.5508 776.241 -101.692L775.788 -99.7441ZM542.077 -154.076L775.788 -99.7441L776.241 -101.692L542.53 -156.024L542.077 -154.076ZM529.166 -170.333C529.166 -162.571 534.516 -155.833 542.077 -154.076L542.53 -156.024C535.875 -157.571 531.166 -163.501 531.166 -170.333H529.166ZM529.166 -264.303V-170.333H531.166V-264.303H529.166ZM549.635 -280.56C539.17 -282.993 529.166 -275.047 529.166 -264.303H531.166C531.166 -273.76 539.971 -280.753 549.182 -278.612L549.635 -280.56ZM783.347 -226.228L549.635 -280.56L549.182 -278.612L782.894 -224.28L783.347 -226.228ZM1578.15 -182.145C1584.8 -180.598 1589.51 -174.668 1589.51 -167.836H1591.51C1591.51 -175.598 1586.16 -182.336 1578.6 -184.093L1578.15 -182.145ZM1344.44 -236.477L1578.15 -182.145L1578.6 -184.093L1344.89 -238.425L1344.44 -236.477ZM1326.42 -222.168C1326.42 -231.625 1335.23 -238.618 1344.44 -236.477L1344.89 -238.425C1334.42 -240.858 1324.42 -232.912 1324.42 -222.168H1326.42ZM1326.42 -128.198V-222.168H1324.42V-128.198H1326.42ZM1337.78 -113.889C1331.13 -115.436 1326.42 -121.366 1326.42 -128.198H1324.42C1324.42 -120.436 1329.77 -113.698 1337.33 -111.941L1337.78 -113.889ZM1571.49 -59.5571L1337.78 -113.889L1337.33 -111.941L1571.04 -57.6091L1571.49 -59.5571ZM1589.51 -73.8661C1589.51 -64.4091 1580.71 -57.4157 1571.49 -59.5571L1571.04 -57.6091C1581.51 -55.1761 1591.51 -63.1216 1591.51 -73.8661H1589.51ZM1589.51 -167.836V-73.8661H1591.51V-167.836H1589.51ZM531.169 -142.477C531.169 -150.239 525.818 -156.976 518.258 -158.734L517.805 -156.786C524.459 -155.239 529.169 -149.309 529.169 -142.477H531.169ZM531.169 -48.5069V-142.477H529.169V-48.5069H531.169ZM510.699 -32.2499C521.165 -29.817 531.169 -37.7624 531.169 -48.5069H529.169C529.169 -39.0499 520.363 -32.0566 511.152 -34.198L510.699 -32.2499ZM276.988 -86.5814L510.699 -32.2499L511.152 -34.198L277.441 -88.5294L276.988 -86.5814ZM264.077 -102.838C264.077 -95.0764 269.427 -88.3389 276.988 -86.5814L277.441 -88.5294C270.786 -90.0764 266.077 -96.0065 266.077 -102.838H264.077ZM264.077 -196.808V-102.838H266.077V-196.808H264.077ZM284.547 -213.065C274.081 -215.498 264.077 -207.553 264.077 -196.808H266.077C266.077 -206.265 274.882 -213.259 284.094 -211.117L284.547 -213.065ZM518.258 -158.734L284.547 -213.065L284.094 -211.117L517.805 -156.786L518.258 -158.734ZM1326.42 -100.342C1326.42 -108.104 1321.07 -114.841 1313.51 -116.599L1313.06 -114.651C1319.71 -113.104 1324.42 -107.174 1324.42 -100.342H1326.42ZM1326.42 -6.37183V-100.342H1324.42V-6.37183H1326.42ZM1305.95 9.88516C1316.42 12.3181 1326.42 4.37265 1326.42 -6.37183H1324.42C1324.42 3.08517 1315.62 10.0785 1306.41 7.9371L1305.95 9.88516ZM1072.24 -44.4463L1305.95 9.88516L1306.41 7.9371L1072.7 -46.3943L1072.24 -44.4463ZM1059.33 -60.7033C1059.33 -52.9413 1064.68 -46.2038 1072.24 -44.4463L1072.7 -46.3943C1066.04 -47.9413 1061.33 -53.8714 1061.33 -60.7033H1059.33ZM1059.33 -154.673V-60.7033H1061.33V-154.673H1059.33ZM1079.8 -170.93C1069.34 -173.363 1059.33 -165.418 1059.33 -154.673H1061.33C1061.33 -164.13 1070.14 -171.124 1079.35 -168.982L1079.8 -170.93ZM1313.51 -116.599L1079.8 -170.93L1079.35 -168.982L1313.06 -114.651L1313.51 -116.599ZM1047.98 -46.0291C1054.64 -44.4821 1059.35 -38.5519 1059.35 -31.7201H1061.35C1061.35 -39.4821 1056 -46.2195 1048.44 -47.9771L1047.98 -46.0291ZM814.271 -100.36L1047.98 -46.0291L1048.44 -47.9771L814.724 -102.309L814.271 -100.36ZM796.254 -86.0515C796.254 -95.5085 805.06 -102.502 814.271 -100.36L814.724 -102.309C804.259 -104.741 794.254 -96.796 794.254 -86.0515H796.254ZM796.254 7.91858V-86.0515H794.254V7.91858H796.254ZM807.619 22.2275C800.964 20.6806 796.254 14.7504 796.254 7.91858H794.254C794.254 15.6805 799.605 22.418 807.166 24.1756L807.619 22.2275ZM1041.33 76.559L807.619 22.2275L807.166 24.1756L1040.88 78.507L1041.33 76.559ZM1059.35 62.25C1059.35 71.707 1050.54 78.7003 1041.33 76.559L1040.88 78.507C1051.34 80.9399 1061.35 72.9945 1061.35 62.25H1059.35ZM1059.35 -31.7201V62.25H1061.35V-31.7201H1059.35ZM266.093 -73.8555C266.093 -81.6174 260.742 -88.3549 253.182 -90.1125L252.729 -88.1644C259.383 -86.6175 264.093 -80.6873 264.093 -73.8555H266.093ZM266.093 20.1146V-73.8555H264.093V20.1146H266.093ZM245.623 36.3716C256.088 38.8045 266.093 30.8591 266.093 20.1146H264.093C264.093 29.5717 255.287 36.565 246.076 34.4236L245.623 36.3716ZM11.9117 -17.9598L245.623 36.3716L246.076 34.4236L12.3646 -19.9079L11.9117 -17.9598ZM-0.999503 -34.2168C-0.999503 -26.4548 4.35136 -19.7174 11.9117 -17.9598L12.3646 -19.9079C5.71018 -21.4548 1.0005 -27.3849 1.0005 -34.2168H-0.999503ZM-0.999503 -128.187V-34.2168H1.0005V-128.187H-0.999503ZM19.4703 -144.444C9.00491 -146.877 -0.999503 -138.931 -0.999503 -128.187H1.0005C1.0005 -137.644 9.8061 -144.637 19.0175 -142.496L19.4703 -144.444ZM253.182 -90.1125L19.4703 -144.444L19.0175 -142.496L252.729 -88.1644L253.182 -90.1125ZM1578.15 308.055C1584.8 309.602 1589.51 315.532 1589.51 322.364H1591.51C1591.51 314.602 1586.16 307.864 1578.6 306.107L1578.15 308.055ZM1344.44 253.723L1578.15 308.055L1578.6 306.107L1344.89 251.775L1344.44 253.723ZM1326.42 268.032C1326.42 258.575 1335.23 251.582 1344.44 253.723L1344.89 251.775C1334.42 249.342 1324.42 257.288 1324.42 268.032H1326.42ZM1326.42 362.003V268.032H1324.42V362.003H1326.42ZM1337.78 376.312C1331.13 374.765 1326.42 368.834 1326.42 362.003H1324.42C1324.42 369.764 1329.77 376.502 1337.33 378.26L1337.78 376.312ZM1571.49 430.643L1337.78 376.312L1337.33 378.26L1571.04 432.591L1571.49 430.643ZM1589.51 416.334C1589.51 425.791 1580.71 432.784 1571.49 430.643L1571.04 432.591C1581.51 435.024 1591.51 427.078 1591.51 416.334H1589.51ZM1589.51 322.364V416.334H1591.51V322.364H1589.51ZM796.258 280.229C796.258 272.467 790.907 265.73 783.347 263.972L782.894 265.92C789.548 267.467 794.258 273.397 794.258 280.229H796.258ZM796.258 374.199V280.229H794.258V374.199H796.258ZM775.788 390.456C786.253 392.889 796.258 384.944 796.258 374.199H794.258C794.258 383.656 785.452 390.649 776.241 388.508L775.788 390.456ZM542.077 336.125L775.788 390.456L776.241 388.508L542.53 334.177L542.077 336.125ZM529.166 319.868C529.166 327.63 534.516 334.367 542.077 336.125L542.53 334.177C535.875 332.63 531.166 326.7 531.166 319.868H529.166ZM529.166 225.898V319.868H531.166V225.898H529.166ZM549.635 209.641C539.17 207.208 529.166 215.153 529.166 225.898H531.166C531.166 216.441 539.971 209.447 549.182 211.589L549.635 209.641ZM783.347 263.972L549.635 209.641L549.182 211.589L782.894 265.92L783.347 263.972ZM1578.15 62.9549C1584.8 64.5018 1589.51 70.4319 1589.51 77.2638H1591.51C1591.51 69.5018 1586.16 62.7644 1578.6 61.0068L1578.15 62.9549ZM1344.44 8.62341L1578.15 62.9549L1578.6 61.0068L1344.89 6.67535L1344.44 8.62341ZM1326.42 22.9324C1326.42 13.4753 1335.23 6.48203 1344.44 8.62341L1344.89 6.67535C1334.42 4.24246 1324.42 12.1879 1324.42 22.9324H1326.42ZM1326.42 116.902V22.9324H1324.42V116.902H1326.42ZM1337.78 131.211C1331.13 129.664 1326.42 123.734 1326.42 116.902H1324.42C1324.42 124.664 1329.77 131.402 1337.33 133.159L1337.78 131.211ZM1571.49 185.543L1337.78 131.211L1337.33 133.159L1571.04 187.491L1571.49 185.543ZM1589.51 171.234C1589.51 180.691 1580.71 187.684 1571.49 185.543L1571.04 187.491C1581.51 189.924 1591.51 181.978 1591.51 171.234H1589.51ZM1589.51 77.2638V171.234H1591.51V77.2638H1589.51ZM796.259 35.1289C796.259 27.3669 790.908 20.6295 783.348 18.8719L782.895 20.8199C789.549 22.3669 794.259 28.2971 794.259 35.1289H796.259ZM796.259 129.099V35.1289H794.259V129.099H796.259ZM775.789 145.356C786.254 147.789 796.259 139.844 796.259 129.099H794.259C794.259 138.556 785.453 145.549 776.242 143.408L775.789 145.356ZM542.078 91.0246L775.789 145.356L776.242 143.408L542.531 89.0765L542.078 91.0246ZM529.167 74.7676C529.167 82.5295 534.517 89.267 542.078 91.0246L542.531 89.0765C535.876 87.5296 531.167 81.5994 531.167 74.7676H529.167ZM529.167 -19.2025V74.7676H531.167V-19.2025H529.167ZM549.636 -35.4595C539.171 -37.8925 529.167 -29.947 529.167 -19.2025H531.167C531.167 -28.6595 539.972 -35.6529 549.183 -33.5115L549.636 -35.4595ZM783.348 18.8719L549.636 -35.4595L549.183 -33.5115L782.895 20.8199L783.348 18.8719ZM1047.99 201.895C1054.64 203.442 1059.35 209.372 1059.35 216.204H1061.35C1061.35 208.442 1056 201.705 1048.44 199.947L1047.99 201.895ZM814.276 147.564L1047.99 201.895L1048.44 199.947L814.729 145.616L814.276 147.564ZM796.259 161.873C796.259 152.416 805.065 145.422 814.276 147.564L814.729 145.616C804.264 143.183 794.259 151.128 794.259 161.873H796.259ZM796.259 255.843V161.873H794.259V255.843H796.259ZM807.623 270.152C800.969 268.605 796.259 262.675 796.259 255.843H794.259C794.259 263.605 799.61 270.342 807.171 272.1L807.623 270.152ZM1041.33 324.483L807.623 270.152L807.171 272.1L1040.88 326.431L1041.33 324.483ZM1059.35 310.174C1059.35 319.631 1050.55 326.624 1041.33 324.483L1040.88 326.431C1051.35 328.864 1061.35 320.919 1061.35 310.174H1059.35ZM1059.35 216.204V310.174H1061.35V216.204H1059.35ZM1326.42 144.758C1326.42 136.996 1321.07 130.259 1313.51 128.501L1313.06 130.449C1319.71 131.996 1324.42 137.926 1324.42 144.758H1326.42ZM1326.42 238.728V144.758H1324.42V238.728H1326.42ZM1305.95 254.985C1316.42 257.418 1326.42 249.473 1326.42 238.728H1324.42C1324.42 248.185 1315.62 255.178 1306.41 253.037L1305.95 254.985ZM1072.24 200.654L1305.95 254.985L1306.41 253.037L1072.7 198.706L1072.24 200.654ZM1059.33 184.397C1059.33 192.159 1064.68 198.896 1072.24 200.654L1072.7 198.706C1066.04 197.159 1061.33 191.228 1061.33 184.397H1059.33ZM1059.33 90.4265V184.397H1061.33V90.4265H1059.33ZM1079.8 74.1695C1069.34 71.7366 1059.33 79.682 1059.33 90.4265H1061.33C1061.33 80.9695 1070.14 73.9762 1079.35 76.1176L1079.8 74.1695ZM1313.51 128.501L1079.8 74.1695L1079.35 76.1176L1313.06 130.449L1313.51 128.501ZM517.806 88.3141C524.46 89.8611 529.17 95.7912 529.17 102.623H531.17C531.17 94.8611 525.819 88.1236 518.259 86.3661L517.806 88.3141ZM284.095 33.9827L517.806 88.3141L518.259 86.3661L284.547 32.0346L284.095 33.9827ZM266.078 48.2916C266.078 38.8346 274.883 31.8413 284.095 33.9827L284.547 32.0346C274.082 29.6017 264.078 37.5471 264.078 48.2916H266.078ZM266.078 142.262V48.2916H264.078V142.262H266.078ZM277.442 156.571C270.787 155.024 266.078 149.094 266.078 142.262H264.078C264.078 150.024 269.428 156.761 276.989 158.519L277.442 156.571ZM511.153 210.902L277.442 156.571L276.989 158.519L510.7 212.85L511.153 210.902ZM529.17 196.593C529.17 206.05 520.364 213.044 511.153 210.902L510.7 212.85C521.166 215.283 531.17 207.338 531.17 196.593H529.17ZM529.17 102.623V196.593H531.17V102.623H529.17ZM266.093 171.015C266.093 163.253 260.742 156.515 253.182 154.758L252.729 156.706C259.383 158.253 264.093 164.183 264.093 171.015H266.093ZM266.093 264.985V171.015H264.093V264.985H266.093ZM245.623 281.242C256.088 283.675 266.093 275.729 266.093 264.985H264.093C264.093 274.442 255.287 281.435 246.076 279.294L245.623 281.242ZM11.9117 226.911L245.623 281.242L246.076 279.294L12.3646 224.963L11.9117 226.911ZM-0.999503 210.654C-0.999503 218.416 4.35136 225.153 11.9117 226.911L12.3646 224.963C5.71018 223.416 1.0005 217.485 1.0005 210.654H-0.999503ZM-0.999503 116.683V210.654H1.0005V116.683H-0.999503ZM19.4703 100.426C9.00491 97.9936 -0.999503 105.939 -0.999503 116.683H1.0005C1.0005 107.226 9.8061 100.233 19.0175 102.375L19.4703 100.426ZM253.182 154.758L19.4703 100.426L19.0175 102.375L252.729 156.706L253.182 154.758Z" fill="url(#paint0_linear_13001_889)" mask="url(#path-1-inside-1_13001_889)"/>
<defs>
<linearGradient id="paint0_linear_13001_889" x1="1844.72" y1="290.978" x2="-66.5633" y2="-128.216" gradientUnits="userSpaceOnUse">
<stop stop-color="#635BFF" stop-opacity="0.4"/>
<stop offset="1" stop-color="#635BFF" stop-opacity="0"/>
</linearGradient>
</defs>
</svg>
