<svg width="1200" height="414" viewBox="0 0 1200 414" fill="none" xmlns="http://www.w3.org/2000/svg">
<mask id="path-1-inside-1_13001_1496" fill="white">
<path fill-rule="evenodd" clip-rule="evenodd" d="M397.864 -153.955C404.972 -152.303 410.002 -145.969 410.002 -138.672V-44.7018C410.002 -34.601 400.597 -27.1316 390.759 -29.4188L157.047 -83.7502C149.94 -85.4025 144.91 -91.7363 144.91 -99.0332V-193.003C144.91 -203.104 154.315 -210.573 164.153 -208.286L397.864 -153.955ZM1205.26 -96.5363C1205.26 -103.833 1200.23 -110.167 1193.12 -111.819L959.407 -166.151C949.568 -168.438 940.163 -160.969 940.163 -150.868V-56.8977C940.163 -49.6008 945.194 -43.267 952.301 -41.6147L1186.01 12.7168C1195.85 15.0039 1205.26 7.53453 1205.26 -2.56624V-96.5363ZM132.776 -86.4607C139.883 -84.8084 144.913 -78.4746 144.913 -71.1777V22.7924C144.913 32.8931 135.508 40.3625 125.67 38.0753L-108.042 -16.2561C-115.149 -17.9084 -120.179 -24.2422 -120.179 -31.5391V-125.509C-120.179 -135.61 -110.774 -143.079 -100.936 -140.792L132.776 -86.4607ZM928.03 -44.3252C935.138 -42.6729 940.168 -36.3391 940.168 -29.0422V64.9279C940.168 75.0287 930.763 82.498 920.924 80.2109L687.213 25.8795C680.106 24.2272 675.075 17.8934 675.075 10.5965V-83.3736C675.075 -93.4744 684.48 -100.944 694.319 -98.6566L928.03 -44.3252ZM675.091 39.579C675.091 32.2821 670.061 25.9483 662.953 24.296L429.242 -30.0354C419.404 -32.3226 409.999 -24.8532 409.999 -14.7524V79.2177C409.999 86.5146 415.029 92.8484 422.136 94.5006L655.848 148.832C665.686 151.119 675.091 143.65 675.091 133.549V39.579ZM-132.301 -17.8387C-125.193 -16.1864 -120.163 -9.85257 -120.163 -2.55566V91.4145C-120.163 101.515 -129.568 108.985 -139.406 106.697L-373.118 52.366C-380.225 50.7137 -385.255 44.3799 -385.255 37.083V-56.8871C-385.255 -66.9879 -375.85 -74.4572 -366.012 -72.1701L-132.301 -17.8387ZM1205.26 393.663C1205.26 386.366 1200.23 380.032 1193.12 378.38L959.407 324.049C949.569 321.761 940.164 329.231 940.164 339.332V433.302C940.164 440.599 945.194 446.932 952.301 448.585L1186.01 502.916C1195.85 505.203 1205.26 497.734 1205.26 487.633V393.663ZM397.864 336.245C404.972 337.898 410.002 344.231 410.002 351.528V445.498C410.002 455.599 400.597 463.069 390.759 460.781L157.047 406.45C149.94 404.798 144.91 398.464 144.91 391.167V297.197C144.91 287.096 154.315 279.627 164.153 281.914L397.864 336.245ZM1205.26 148.563C1205.26 141.266 1200.23 134.933 1193.12 133.28L959.407 78.9489C949.568 76.6617 940.163 84.1311 940.163 94.2319V188.202C940.163 195.499 945.194 201.833 952.301 203.485L1186.01 257.816C1195.85 260.104 1205.26 252.634 1205.26 242.533V148.563ZM397.865 91.1458C404.973 92.798 410.003 99.1318 410.003 106.429V200.399C410.003 210.5 400.598 217.969 390.76 215.682L157.048 161.35C149.941 159.698 144.911 153.364 144.911 146.067V52.0973C144.911 41.9965 154.316 34.5271 164.154 36.8143L397.865 91.1458ZM675.096 287.504C675.096 280.207 670.065 273.873 662.958 272.221L429.247 217.889C419.408 215.602 410.003 223.072 410.003 233.172V327.142C410.003 334.439 415.033 340.773 422.141 342.425L655.852 396.757C665.691 399.044 675.096 391.575 675.096 381.474V287.504ZM928.03 200.774C935.138 202.427 940.168 208.761 940.168 216.057V310.028C940.168 320.128 930.763 327.598 920.924 325.31L687.213 270.979C680.106 269.327 675.075 262.993 675.075 255.696V161.726C675.075 151.625 684.48 144.156 694.319 146.443L928.03 200.774ZM144.914 173.923C144.914 166.626 139.884 160.292 132.776 158.64L-100.935 104.308C-110.773 102.021 -120.178 109.491 -120.178 119.591V213.562C-120.178 220.858 -115.148 227.192 -108.041 228.845L125.671 283.176C135.509 285.463 144.914 277.994 144.914 267.893V173.923ZM-132.301 227.031C-125.193 228.684 -120.163 235.018 -120.163 242.314V336.285C-120.163 346.385 -129.568 353.855 -139.406 351.568L-373.118 297.236C-380.225 295.584 -385.255 289.25 -385.255 281.953V187.983C-385.255 177.882 -375.85 170.413 -366.012 172.7L-132.301 227.031Z"/>
</mask>
<path fill-rule="evenodd" clip-rule="evenodd" d="M397.864 -153.955C404.972 -152.303 410.002 -145.969 410.002 -138.672V-44.7018C410.002 -34.601 400.597 -27.1316 390.759 -29.4188L157.047 -83.7502C149.94 -85.4025 144.91 -91.7363 144.91 -99.0332V-193.003C144.91 -203.104 154.315 -210.573 164.153 -208.286L397.864 -153.955ZM1205.26 -96.5363C1205.26 -103.833 1200.23 -110.167 1193.12 -111.819L959.407 -166.151C949.568 -168.438 940.163 -160.969 940.163 -150.868V-56.8977C940.163 -49.6008 945.194 -43.267 952.301 -41.6147L1186.01 12.7168C1195.85 15.0039 1205.26 7.53453 1205.26 -2.56624V-96.5363ZM132.776 -86.4607C139.883 -84.8084 144.913 -78.4746 144.913 -71.1777V22.7924C144.913 32.8931 135.508 40.3625 125.67 38.0753L-108.042 -16.2561C-115.149 -17.9084 -120.179 -24.2422 -120.179 -31.5391V-125.509C-120.179 -135.61 -110.774 -143.079 -100.936 -140.792L132.776 -86.4607ZM928.03 -44.3252C935.138 -42.6729 940.168 -36.3391 940.168 -29.0422V64.9279C940.168 75.0287 930.763 82.498 920.924 80.2109L687.213 25.8795C680.106 24.2272 675.075 17.8934 675.075 10.5965V-83.3736C675.075 -93.4744 684.48 -100.944 694.319 -98.6566L928.03 -44.3252ZM675.091 39.579C675.091 32.2821 670.061 25.9483 662.953 24.296L429.242 -30.0354C419.404 -32.3226 409.999 -24.8532 409.999 -14.7524V79.2177C409.999 86.5146 415.029 92.8484 422.136 94.5006L655.848 148.832C665.686 151.119 675.091 143.65 675.091 133.549V39.579ZM-132.301 -17.8387C-125.193 -16.1864 -120.163 -9.85257 -120.163 -2.55566V91.4145C-120.163 101.515 -129.568 108.985 -139.406 106.697L-373.118 52.366C-380.225 50.7137 -385.255 44.3799 -385.255 37.083V-56.8871C-385.255 -66.9879 -375.85 -74.4572 -366.012 -72.1701L-132.301 -17.8387ZM1205.26 393.663C1205.26 386.366 1200.23 380.032 1193.12 378.38L959.407 324.049C949.569 321.761 940.164 329.231 940.164 339.332V433.302C940.164 440.599 945.194 446.932 952.301 448.585L1186.01 502.916C1195.85 505.203 1205.26 497.734 1205.26 487.633V393.663ZM397.864 336.245C404.972 337.898 410.002 344.231 410.002 351.528V445.498C410.002 455.599 400.597 463.069 390.759 460.781L157.047 406.45C149.94 404.798 144.91 398.464 144.91 391.167V297.197C144.91 287.096 154.315 279.627 164.153 281.914L397.864 336.245ZM1205.26 148.563C1205.26 141.266 1200.23 134.933 1193.12 133.28L959.407 78.9489C949.568 76.6617 940.163 84.1311 940.163 94.2319V188.202C940.163 195.499 945.194 201.833 952.301 203.485L1186.01 257.816C1195.85 260.104 1205.26 252.634 1205.26 242.533V148.563ZM397.865 91.1458C404.973 92.798 410.003 99.1318 410.003 106.429V200.399C410.003 210.5 400.598 217.969 390.76 215.682L157.048 161.35C149.941 159.698 144.911 153.364 144.911 146.067V52.0973C144.911 41.9965 154.316 34.5271 164.154 36.8143L397.865 91.1458ZM675.096 287.504C675.096 280.207 670.065 273.873 662.958 272.221L429.247 217.889C419.408 215.602 410.003 223.072 410.003 233.172V327.142C410.003 334.439 415.033 340.773 422.141 342.425L655.852 396.757C665.691 399.044 675.096 391.575 675.096 381.474V287.504ZM928.03 200.774C935.138 202.427 940.168 208.761 940.168 216.057V310.028C940.168 320.128 930.763 327.598 920.924 325.31L687.213 270.979C680.106 269.327 675.075 262.993 675.075 255.696V161.726C675.075 151.625 684.48 144.156 694.319 146.443L928.03 200.774ZM144.914 173.923C144.914 166.626 139.884 160.292 132.776 158.64L-100.935 104.308C-110.773 102.021 -120.178 109.491 -120.178 119.591V213.562C-120.178 220.858 -115.148 227.192 -108.041 228.845L125.671 283.176C135.509 285.463 144.914 277.994 144.914 267.893V173.923ZM-132.301 227.031C-125.193 228.684 -120.163 235.018 -120.163 242.314V336.285C-120.163 346.385 -129.568 353.855 -139.406 351.568L-373.118 297.236C-380.225 295.584 -385.255 289.25 -385.255 281.953V187.983C-385.255 177.882 -375.85 170.413 -366.012 172.7L-132.301 227.031Z" fill="url(#paint0_linear_13001_1496)"/>
<path d="M397.864 -153.955L398.091 -154.929L397.864 -153.955ZM390.759 -29.4188L390.985 -30.3928L390.759 -29.4188ZM157.047 -83.7502L156.821 -82.7762L157.047 -83.7502ZM164.153 -208.286L164.38 -209.26V-209.26L164.153 -208.286ZM1193.12 -111.819L1192.89 -110.845V-110.845L1193.12 -111.819ZM959.407 -166.151L959.18 -165.177L959.407 -166.151ZM952.301 -41.6147L952.527 -42.5887L952.301 -41.6147ZM1186.01 12.7168L1186.24 11.7427L1186.01 12.7168ZM132.776 -86.4607L133.002 -87.4347L132.776 -86.4607ZM125.67 38.0753L125.896 37.1013L125.67 38.0753ZM-108.042 -16.2561L-107.815 -17.2301H-107.815L-108.042 -16.2561ZM-100.936 -140.792L-101.162 -139.818L-100.936 -140.792ZM928.03 -44.3252L927.804 -43.3512L928.03 -44.3252ZM920.924 80.2109L920.698 81.1849L920.924 80.2109ZM687.213 25.8795L687.44 24.9054L687.213 25.8795ZM694.319 -98.6566L694.092 -97.6826L694.319 -98.6566ZM662.953 24.296L662.727 25.27L662.953 24.296ZM429.242 -30.0354L429.469 -31.0094L429.242 -30.0354ZM422.136 94.5006L422.363 93.5266L422.136 94.5006ZM655.848 148.832L655.621 149.806L655.848 148.832ZM-132.301 -17.8387L-132.527 -16.8646L-132.301 -17.8387ZM-139.406 106.697L-139.18 105.723L-139.406 106.697ZM-373.118 52.366L-373.344 53.34H-373.344L-373.118 52.366ZM-366.012 -72.1701L-365.786 -73.1441L-366.012 -72.1701ZM1193.12 378.38L1193.34 377.406L1193.12 378.38ZM959.407 324.049L959.181 325.023L959.407 324.049ZM952.301 448.585L952.075 449.559L952.301 448.585ZM1186.01 502.916L1186.24 501.942L1186.01 502.916ZM397.864 336.245L398.091 335.271L397.864 336.245ZM390.759 460.781L390.985 459.807L390.759 460.781ZM157.047 406.45L156.821 407.424L157.047 406.45ZM164.153 281.914L164.38 280.94L164.153 281.914ZM1193.12 133.28L1192.89 134.254L1193.12 133.28ZM959.407 78.9489L959.633 77.9749L959.407 78.9489ZM952.301 203.485L952.075 204.459L952.301 203.485ZM1186.01 257.816L1186.24 256.842L1186.01 257.816ZM397.865 91.1458L397.639 92.1198L397.865 91.1458ZM390.76 215.682L390.986 214.708L390.76 215.682ZM157.048 161.35L156.822 162.324L157.048 161.35ZM164.154 36.8143L164.38 35.8403L164.154 36.8143ZM662.958 272.221L662.731 273.195L662.958 272.221ZM429.247 217.889L429.473 216.915L429.247 217.889ZM422.141 342.425L421.914 343.399L422.141 342.425ZM655.852 396.757L656.079 395.783L655.852 396.757ZM928.03 200.774L927.804 201.749L928.03 200.774ZM920.924 325.31L921.151 324.336L920.924 325.31ZM687.213 270.979L686.987 271.953L687.213 270.979ZM694.319 146.443L694.545 145.469L694.319 146.443ZM132.776 158.64L132.55 159.614L132.776 158.64ZM-100.935 104.308L-100.708 103.334H-100.708L-100.935 104.308ZM-108.041 228.845L-108.267 229.819L-108.041 228.845ZM125.671 283.176L125.897 282.202L125.671 283.176ZM-132.301 227.031L-132.527 228.006L-132.301 227.031ZM-139.406 351.568L-139.18 350.594L-139.406 351.568ZM-373.118 297.236L-373.344 298.21H-373.344L-373.118 297.236ZM-366.012 172.7L-365.786 171.726H-365.786L-366.012 172.7ZM411.002 -138.672C411.002 -146.434 405.651 -153.171 398.091 -154.929L397.638 -152.981C404.292 -151.434 409.002 -145.504 409.002 -138.672H411.002ZM411.002 -44.7018V-138.672H409.002V-44.7018H411.002ZM390.532 -28.4448C400.998 -26.0118 411.002 -33.9573 411.002 -44.7018H409.002C409.002 -35.2448 400.196 -28.2514 390.985 -30.3928L390.532 -28.4448ZM156.821 -82.7762L390.532 -28.4448L390.985 -30.3928L157.274 -84.7243L156.821 -82.7762ZM143.91 -99.0332C143.91 -91.2712 149.261 -84.5338 156.821 -82.7762L157.274 -84.7243C150.619 -86.2712 145.91 -92.2013 145.91 -99.0332H143.91ZM143.91 -193.003V-99.0332H145.91V-193.003H143.91ZM164.38 -209.26C153.914 -211.693 143.91 -203.748 143.91 -193.003H145.91C145.91 -202.46 154.715 -209.454 163.927 -207.312L164.38 -209.26ZM398.091 -154.929L164.38 -209.26L163.927 -207.312L397.638 -152.981L398.091 -154.929ZM1192.89 -110.845C1199.55 -109.298 1204.26 -103.368 1204.26 -96.5363H1206.26C1206.26 -104.298 1200.9 -111.036 1193.34 -112.793L1192.89 -110.845ZM959.18 -165.177L1192.89 -110.845L1193.34 -112.793L959.633 -167.125L959.18 -165.177ZM941.163 -150.868C941.163 -160.325 949.969 -167.318 959.18 -165.177L959.633 -167.125C949.168 -169.558 939.163 -161.612 939.163 -150.868H941.163ZM941.163 -56.8977V-150.868H939.163V-56.8977H941.163ZM952.527 -42.5887C945.873 -44.1357 941.163 -50.0658 941.163 -56.8977H939.163C939.163 -49.1357 944.514 -42.3982 952.075 -40.6407L952.527 -42.5887ZM1186.24 11.7427L952.527 -42.5887L952.075 -40.6407L1185.79 13.6908L1186.24 11.7427ZM1204.26 -2.56624C1204.26 6.89079 1195.45 13.8841 1186.24 11.7427L1185.79 13.6908C1196.25 16.1237 1206.26 8.17828 1206.26 -2.56624H1204.26ZM1204.26 -96.5363V-2.56624H1206.26V-96.5363H1204.26ZM145.913 -71.1777C145.913 -78.9397 140.562 -85.6772 133.002 -87.4347L132.549 -85.4867C139.203 -83.9397 143.913 -78.0096 143.913 -71.1777H145.913ZM145.913 22.7924V-71.1777H143.913V22.7924H145.913ZM125.443 39.0494C135.909 41.4823 145.913 33.5369 145.913 22.7924H143.913C143.913 32.2494 135.108 39.2427 125.896 37.1013L125.443 39.0494ZM-108.268 -15.2821L125.443 39.0494L125.896 37.1013L-107.815 -17.2301L-108.268 -15.2821ZM-121.179 -31.5391C-121.179 -23.7771 -115.828 -17.0396 -108.268 -15.2821L-107.815 -17.2301C-114.47 -18.7771 -119.179 -24.7072 -119.179 -31.5391H-121.179ZM-121.179 -125.509V-31.5391H-119.179V-125.509H-121.179ZM-100.709 -141.766C-111.175 -144.199 -121.179 -136.254 -121.179 -125.509H-119.179C-119.179 -134.966 -110.374 -141.96 -101.162 -139.818L-100.709 -141.766ZM133.002 -87.4347L-100.709 -141.766L-101.162 -139.818L132.549 -85.4867L133.002 -87.4347ZM941.168 -29.0422C941.168 -36.8041 935.817 -43.5416 928.257 -45.2992L927.804 -43.3512C934.458 -41.8042 939.168 -35.874 939.168 -29.0422H941.168ZM941.168 64.9279V-29.0422H939.168V64.9279H941.168ZM920.698 81.1849C931.163 83.6178 941.168 75.6724 941.168 64.9279H939.168C939.168 74.3849 930.362 81.3782 921.151 79.2369L920.698 81.1849ZM686.987 26.8535L920.698 81.1849L921.151 79.2369L687.44 24.9054L686.987 26.8535ZM674.075 10.5965C674.075 18.3584 679.426 25.0959 686.987 26.8535L687.44 24.9054C680.785 23.3585 676.075 17.4283 676.075 10.5965H674.075ZM674.075 -83.3736V10.5965H676.075V-83.3736H674.075ZM694.545 -99.6306C684.08 -102.064 674.075 -94.1181 674.075 -83.3736H676.075C676.075 -92.8306 684.881 -99.824 694.092 -97.6826L694.545 -99.6306ZM928.257 -45.2992L694.545 -99.6306L694.092 -97.6826L927.804 -43.3512L928.257 -45.2992ZM662.727 25.27C669.381 26.817 674.091 32.7471 674.091 39.579H676.091C676.091 31.817 670.74 25.0796 663.18 23.322L662.727 25.27ZM429.016 -29.0614L662.727 25.27L663.18 23.322L429.469 -31.0094L429.016 -29.0614ZM410.999 -14.7524C410.999 -24.2094 419.804 -31.2028 429.016 -29.0614L429.469 -31.0094C419.003 -33.4424 408.999 -25.4969 408.999 -14.7524H410.999ZM410.999 79.2177V-14.7524H408.999V79.2177H410.999ZM422.363 93.5266C415.708 91.9796 410.999 86.0495 410.999 79.2177H408.999C408.999 86.9796 414.35 93.7171 421.91 95.4747L422.363 93.5266ZM656.074 147.858L422.363 93.5266L421.91 95.4747L655.621 149.806L656.074 147.858ZM674.091 133.549C674.091 143.006 665.285 149.999 656.074 147.858L655.621 149.806C666.087 152.239 676.091 144.294 676.091 133.549H674.091ZM674.091 39.579V133.549H676.091V39.579H674.091ZM-119.163 -2.55566C-119.163 -10.3176 -124.514 -17.0551 -132.074 -18.8127L-132.527 -16.8646C-125.873 -15.3177 -121.163 -9.38751 -121.163 -2.55566H-119.163ZM-119.163 91.4145V-2.55566H-121.163V91.4145H-119.163ZM-139.633 107.671C-129.167 110.104 -119.163 102.159 -119.163 91.4145H-121.163C-121.163 100.871 -129.969 107.865 -139.18 105.723L-139.633 107.671ZM-373.344 53.34L-139.633 107.671L-139.18 105.723L-372.891 51.392L-373.344 53.34ZM-386.255 37.083C-386.255 44.845 -380.905 51.5824 -373.344 53.34L-372.891 51.392C-379.546 49.845 -384.255 43.9149 -384.255 37.083H-386.255ZM-386.255 -56.8871V37.083H-384.255V-56.8871H-386.255ZM-365.786 -73.1441C-376.251 -75.577 -386.255 -67.6316 -386.255 -56.8871H-384.255C-384.255 -66.3441 -375.45 -73.3374 -366.238 -71.196L-365.786 -73.1441ZM-132.074 -18.8127L-365.786 -73.1441L-366.238 -71.196L-132.527 -16.8646L-132.074 -18.8127ZM1192.89 379.354C1199.55 380.901 1204.26 386.831 1204.26 393.663H1206.26C1206.26 385.901 1200.91 379.164 1193.34 377.406L1192.89 379.354ZM959.181 325.023L1192.89 379.354L1193.34 377.406L959.634 323.075L959.181 325.023ZM941.164 339.332C941.164 329.875 949.969 322.881 959.181 325.023L959.634 323.075C949.168 320.642 939.164 328.587 939.164 339.332H941.164ZM941.164 433.302V339.332H939.164V433.302H941.164ZM952.528 447.611C945.873 446.064 941.164 440.133 941.164 433.302H939.164C939.164 441.064 944.515 447.801 952.075 449.559L952.528 447.611ZM1186.24 501.942L952.528 447.611L952.075 449.559L1185.79 503.89L1186.24 501.942ZM1204.26 487.633C1204.26 497.09 1195.45 504.083 1186.24 501.942L1185.79 503.89C1196.25 506.323 1206.26 498.378 1206.26 487.633H1204.26ZM1204.26 393.663V487.633H1206.26V393.663H1204.26ZM411.002 351.528C411.002 343.766 405.651 337.029 398.091 335.271L397.638 337.219C404.292 338.766 409.002 344.696 409.002 351.528H411.002ZM411.002 445.498V351.528H409.002V445.498H411.002ZM390.532 461.755C400.998 464.188 411.002 456.243 411.002 445.498H409.002C409.002 454.955 400.196 461.949 390.985 459.807L390.532 461.755ZM156.821 407.424L390.532 461.755L390.985 459.807L157.274 405.476L156.821 407.424ZM143.91 391.167C143.91 398.929 149.261 405.666 156.821 407.424L157.274 405.476C150.619 403.929 145.91 397.999 145.91 391.167H143.91ZM143.91 297.197V391.167H145.91V297.197H143.91ZM164.38 280.94C153.914 278.507 143.91 286.452 143.91 297.197H145.91C145.91 287.74 154.715 280.747 163.927 282.888L164.38 280.94ZM398.091 335.271L164.38 280.94L163.927 282.888L397.638 337.219L398.091 335.271ZM1192.89 134.254C1199.55 135.801 1204.26 141.731 1204.26 148.563H1206.26C1206.26 140.801 1200.9 134.064 1193.34 132.306L1192.89 134.254ZM959.18 79.9229L1192.89 134.254L1193.34 132.306L959.633 77.9749L959.18 79.9229ZM941.163 94.2319C941.163 84.7748 949.969 77.7815 959.18 79.9229L959.633 77.9749C949.168 75.5419 939.163 83.4873 939.163 94.2319H941.163ZM941.163 188.202V94.2319H939.163V188.202H941.163ZM952.527 202.511C945.873 200.964 941.163 195.034 941.163 188.202H939.163C939.163 195.964 944.514 202.701 952.075 204.459L952.527 202.511ZM1186.24 256.842L952.527 202.511L952.075 204.459L1185.79 258.79L1186.24 256.842ZM1204.26 242.533C1204.26 251.99 1195.45 258.984 1186.24 256.842L1185.79 258.79C1196.25 261.223 1206.26 253.278 1206.26 242.533H1204.26ZM1204.26 148.563V242.533H1206.26V148.563H1204.26ZM411.003 106.429C411.003 98.6667 405.652 91.9293 398.092 90.1717L397.639 92.1198C404.293 93.6667 409.003 99.5969 409.003 106.429H411.003ZM411.003 200.399V106.429H409.003V200.399H411.003ZM390.533 216.656C400.999 219.089 411.003 211.143 411.003 200.399H409.003C409.003 209.856 400.197 216.849 390.986 214.708L390.533 216.656ZM156.822 162.324L390.533 216.656L390.986 214.708L157.275 160.376L156.822 162.324ZM143.911 146.067C143.911 153.829 149.262 160.567 156.822 162.324L157.275 160.376C150.62 158.829 145.911 152.899 145.911 146.067H143.911ZM143.911 52.0973V146.067H145.911V52.0973H143.911ZM164.38 35.8403C153.915 33.4074 143.911 41.3528 143.911 52.0973H145.911C145.911 42.6403 154.716 35.6469 163.928 37.7883L164.38 35.8403ZM398.092 90.1717L164.38 35.8403L163.928 37.7883L397.639 92.1198L398.092 90.1717ZM662.731 273.195C669.386 274.742 674.096 280.672 674.096 287.504H676.096C676.096 279.742 670.745 273.004 663.184 271.247L662.731 273.195ZM429.02 218.863L662.731 273.195L663.184 271.247L429.473 216.915L429.02 218.863ZM411.003 233.172C411.003 223.715 419.809 216.722 429.02 218.863L429.473 216.915C419.008 214.482 409.003 222.428 409.003 233.172H411.003ZM411.003 327.142V233.172H409.003V327.142H411.003ZM422.367 341.451C415.713 339.904 411.003 333.974 411.003 327.142H409.003C409.003 334.904 414.354 341.642 421.914 343.399L422.367 341.451ZM656.079 395.783L422.367 341.451L421.914 343.399L655.626 397.731L656.079 395.783ZM674.096 381.474C674.096 390.931 665.29 397.924 656.079 395.783L655.626 397.731C666.091 400.164 676.096 392.218 676.096 381.474H674.096ZM674.096 287.504V381.474H676.096V287.504H674.096ZM941.168 216.057C941.168 208.295 935.817 201.558 928.257 199.8L927.804 201.749C934.458 203.295 939.168 209.226 939.168 216.057H941.168ZM941.168 310.028V216.057H939.168V310.028H941.168ZM920.698 326.285C931.163 328.717 941.168 320.772 941.168 310.028H939.168C939.168 319.485 930.362 326.478 921.151 324.336L920.698 326.285ZM686.987 271.953L920.698 326.285L921.151 324.336L687.44 270.005L686.987 271.953ZM674.075 255.696C674.075 263.458 679.426 270.196 686.987 271.953L687.44 270.005C680.785 268.458 676.075 262.528 676.075 255.696H674.075ZM674.075 161.726V255.696H676.075V161.726H674.075ZM694.545 145.469C684.08 143.036 674.075 150.981 674.075 161.726H676.075C676.075 152.269 684.881 145.276 694.092 147.417L694.545 145.469ZM928.257 199.8L694.545 145.469L694.092 147.417L927.804 201.749L928.257 199.8ZM132.55 159.614C139.204 161.161 143.914 167.091 143.914 173.923H145.914C145.914 166.161 140.563 159.423 133.003 157.666L132.55 159.614ZM-101.161 105.282L132.55 159.614L133.003 157.666L-100.708 103.334L-101.161 105.282ZM-119.178 119.591C-119.178 110.134 -110.373 103.141 -101.161 105.282L-100.708 103.334C-111.174 100.901 -121.178 108.847 -121.178 119.591H-119.178ZM-119.178 213.562V119.591H-121.178V213.562H-119.178ZM-107.814 227.87C-114.469 226.323 -119.178 220.393 -119.178 213.562H-121.178C-121.178 221.323 -115.827 228.061 -108.267 229.819L-107.814 227.87ZM125.897 282.202L-107.814 227.87L-108.267 229.819L125.444 284.15L125.897 282.202ZM143.914 267.893C143.914 277.35 135.109 284.343 125.897 282.202L125.444 284.15C135.91 286.583 145.914 278.637 145.914 267.893H143.914ZM143.914 173.923V267.893H145.914V173.923H143.914ZM-119.163 242.314C-119.163 234.552 -124.514 227.815 -132.074 226.057L-132.527 228.006C-125.873 229.552 -121.163 235.483 -121.163 242.314H-119.163ZM-119.163 336.285V242.314H-121.163V336.285H-119.163ZM-139.633 352.542C-129.167 354.974 -119.163 347.029 -119.163 336.285H-121.163C-121.163 345.742 -129.969 352.735 -139.18 350.594L-139.633 352.542ZM-373.344 298.21L-139.633 352.542L-139.18 350.594L-372.891 296.262L-373.344 298.21ZM-386.255 281.953C-386.255 289.715 -380.905 296.453 -373.344 298.21L-372.891 296.262C-379.546 294.715 -384.255 288.785 -384.255 281.953H-386.255ZM-386.255 187.983V281.953H-384.255V187.983H-386.255ZM-365.786 171.726C-376.251 169.293 -386.255 177.238 -386.255 187.983H-384.255C-384.255 178.526 -375.45 171.533 -366.238 173.674L-365.786 171.726ZM-132.074 226.057L-365.786 171.726L-366.238 173.674L-132.527 228.006L-132.074 226.057Z" fill="url(#paint1_linear_13001_1496)" mask="url(#path-1-inside-1_13001_1496)"/>
<defs>
<linearGradient id="paint0_linear_13001_1496" x1="1355.51" y1="427.109" x2="-385.255" y2="44.247" gradientUnits="userSpaceOnUse">
<stop stop-color="white" stop-opacity="0.08"/>
<stop offset="1" stop-color="white" stop-opacity="0"/>
</linearGradient>
<linearGradient id="paint1_linear_13001_1496" x1="976.956" y1="319.57" x2="-385.255" y2="9.71542" gradientUnits="userSpaceOnUse">
<stop stop-color="white" stop-opacity="0.16"/>
<stop offset="1" stop-color="white" stop-opacity="0"/>
</linearGradient>
</defs>
</svg>
