<svg width="1321" height="503" viewBox="0 0 1321 503" fill="none" xmlns="http://www.w3.org/2000/svg">
<mask id="path-1-inside-1_13001_1312" fill="white">
<path fill-rule="evenodd" clip-rule="evenodd" d="M783.121 -154.954C790.229 -153.302 795.259 -146.968 795.259 -139.671V-45.7013C795.259 -35.6005 785.854 -28.1311 776.015 -30.4183L542.304 -84.7497C535.197 -86.402 530.167 -92.7358 530.167 -100.033V-194.003C530.167 -204.104 539.571 -211.573 549.41 -209.286L783.121 -154.954ZM1591.51 -97.5367C1591.51 -104.834 1586.48 -111.167 1579.37 -112.82L1345.66 -167.151C1335.83 -169.438 1326.42 -161.969 1326.42 -151.868V-57.8981C1326.42 -50.6012 1331.45 -44.2673 1338.56 -42.6151L1572.27 11.7164C1582.11 14.0035 1591.51 6.53413 1591.51 -3.56662V-97.5367ZM518.031 -87.4602C525.139 -85.808 530.169 -79.4742 530.169 -72.1772V21.7928C530.169 31.8936 520.764 39.363 510.926 37.0758L277.214 -17.2556C270.107 -18.9079 265.077 -25.2417 265.077 -32.5386V-126.509C265.077 -136.609 274.482 -144.079 284.32 -141.792L518.031 -87.4602ZM1314.29 -45.3256C1321.39 -43.6733 1326.42 -37.3395 1326.42 -30.0426V63.9275C1326.42 74.0283 1317.02 81.4977 1307.18 79.2105L1073.47 24.8791C1066.36 23.2268 1061.33 16.893 1061.33 9.59608V-84.374C1061.33 -94.4748 1070.74 -101.944 1080.58 -99.657L1314.29 -45.3256ZM1061.35 38.5795C1061.35 31.2826 1056.32 24.9488 1049.21 23.2965L815.497 -31.0349C805.659 -33.3221 796.254 -25.8527 796.254 -15.752V78.2182C796.254 85.5151 801.284 91.8489 808.392 93.5011L1042.1 147.833C1051.94 150.12 1061.35 142.65 1061.35 132.55V38.5795ZM252.955 -18.8387C260.063 -17.1864 265.093 -10.8526 265.093 -3.55566V90.4145C265.093 100.515 255.688 107.985 245.849 105.697L12.1381 51.366C5.03076 49.7137 0.000488281 43.3799 0.000488281 36.083V-57.8871C0.000488281 -67.9879 9.40549 -75.4572 19.2439 -73.1701L252.955 -18.8387ZM1591.51 392.663C1591.51 385.367 1586.48 379.033 1579.37 377.38L1345.66 323.049C1335.83 320.762 1326.42 328.231 1326.42 338.332V432.302C1326.42 439.599 1331.45 445.933 1338.56 447.585L1572.27 501.917C1582.11 504.204 1591.51 496.734 1591.51 486.634V392.663ZM783.121 335.246C790.229 336.898 795.259 343.232 795.259 350.529V444.499C795.259 454.6 785.854 462.069 776.015 459.782L542.304 405.45C535.197 403.798 530.167 397.464 530.167 390.167V296.197C530.167 286.097 539.571 278.627 549.41 280.914L783.121 335.246ZM1591.51 147.563C1591.51 140.266 1586.48 133.933 1579.37 132.28L1345.66 77.949C1335.83 75.6618 1326.42 83.1312 1326.42 93.232V187.202C1326.42 194.499 1331.45 200.833 1338.56 202.485L1572.27 256.816C1582.11 259.104 1591.51 251.634 1591.51 241.534V147.563ZM783.121 90.1458C790.229 91.798 795.259 98.1318 795.259 105.429V199.399C795.259 209.5 785.854 216.969 776.015 214.682L542.304 160.35C535.197 158.698 530.167 152.364 530.167 145.067V51.0973C530.167 40.9965 539.571 33.5271 549.41 35.8143L783.121 90.1458ZM1061.35 286.504C1061.35 279.207 1056.32 272.873 1049.21 271.221L815.503 216.889C805.665 214.602 796.26 222.072 796.26 232.172V326.142C796.26 333.439 801.29 339.773 808.398 341.425L1042.11 395.757C1051.95 398.044 1061.35 390.575 1061.35 380.474V286.504ZM1314.29 199.775C1321.39 201.427 1326.42 207.761 1326.42 215.058V309.028C1326.42 319.128 1317.02 326.598 1307.18 324.311L1073.47 269.979C1066.36 268.327 1061.33 261.993 1061.33 254.696V160.726C1061.33 150.625 1070.74 143.156 1080.58 145.443L1314.29 199.775ZM530.171 172.923C530.171 165.626 525.141 159.292 518.033 157.64L284.322 103.308C274.484 101.021 265.079 108.491 265.079 118.591V212.562C265.079 219.858 270.109 226.192 277.216 227.845L510.928 282.176C520.766 284.463 530.171 276.994 530.171 266.893V172.923ZM252.955 226.032C260.063 227.684 265.093 234.018 265.093 241.315V335.285C265.093 345.386 255.688 352.855 245.849 350.568L12.1381 296.237C5.03076 294.584 0.000488281 288.251 0.000488281 280.954V186.984C0.000488281 176.883 9.40549 169.413 19.2439 171.701L252.955 226.032Z"/>
</mask>
<path d="M783.121 -154.954L783.348 -155.928L783.121 -154.954ZM776.015 -30.4183L776.242 -31.3923L776.015 -30.4183ZM542.304 -84.7497L542.078 -83.7757L542.304 -84.7497ZM549.41 -209.286L549.636 -210.26V-210.26L549.41 -209.286ZM1579.37 -112.82L1579.15 -111.846V-111.846L1579.37 -112.82ZM1345.66 -167.151L1345.44 -166.177L1345.66 -167.151ZM1338.56 -42.6151L1338.78 -43.5891L1338.56 -42.6151ZM1572.27 11.7164L1572.5 10.7423L1572.27 11.7164ZM518.031 -87.4602L518.258 -88.4342L518.031 -87.4602ZM510.926 37.0758L511.152 36.1018L510.926 37.0758ZM277.214 -17.2556L277.441 -18.2296H277.441L277.214 -17.2556ZM284.32 -141.792L284.094 -140.818L284.32 -141.792ZM1314.29 -45.3256L1314.06 -44.3515L1314.29 -45.3256ZM1307.18 79.2105L1307.41 78.2365L1307.18 79.2105ZM1073.47 24.8791L1073.7 23.905L1073.47 24.8791ZM1080.58 -99.657L1080.35 -98.683L1080.58 -99.657ZM1049.21 23.2965L1048.98 24.2705L1049.21 23.2965ZM815.497 -31.0349L815.724 -32.0089L815.497 -31.0349ZM808.392 93.5011L808.618 92.5271L808.392 93.5011ZM1042.1 147.833L1041.88 148.807L1042.1 147.833ZM252.955 -18.8387L252.729 -17.8646L252.955 -18.8387ZM245.849 105.697L246.076 104.723L245.849 105.697ZM12.1381 51.366L11.9117 52.34H11.9117L12.1381 51.366ZM19.2439 -73.1701L19.4703 -74.1441L19.2439 -73.1701ZM1579.37 377.38L1579.6 376.406L1579.37 377.38ZM1345.66 323.049L1345.44 324.023L1345.66 323.049ZM1338.56 447.585L1338.33 448.559L1338.56 447.585ZM1572.27 501.917L1572.5 500.943L1572.27 501.917ZM783.121 335.246L783.348 334.272L783.121 335.246ZM776.015 459.782L776.242 458.808L776.015 459.782ZM542.304 405.45L542.078 406.424L542.304 405.45ZM549.41 280.914L549.636 279.94L549.41 280.914ZM1579.37 132.28L1579.15 133.254L1579.37 132.28ZM1345.66 77.949L1345.89 76.9749L1345.66 77.949ZM1338.56 202.485L1338.33 203.459L1338.56 202.485ZM1572.27 256.816L1572.5 255.842L1572.27 256.816ZM783.121 90.1458L782.895 91.1198L783.121 90.1458ZM776.015 214.682L776.242 213.708L776.015 214.682ZM542.304 160.35L542.078 161.324L542.304 160.35ZM549.41 35.8143L549.636 34.8403L549.41 35.8143ZM1049.21 271.221L1048.99 272.195L1049.21 271.221ZM815.503 216.889L815.73 215.915L815.503 216.889ZM808.398 341.425L808.624 340.451L808.398 341.425ZM1042.11 395.757L1041.88 396.731L1042.11 395.757ZM1314.29 199.775L1314.06 200.749L1314.29 199.775ZM1307.18 324.311L1306.95 325.285L1307.18 324.311ZM1073.47 269.979L1073.24 270.953L1073.47 269.979ZM1080.58 145.443L1080.8 144.469L1080.58 145.443ZM518.033 157.64L517.807 158.614L518.033 157.64ZM284.322 103.308L284.548 102.334H284.548L284.322 103.308ZM277.216 227.845L276.99 228.819L277.216 227.845ZM510.928 282.176L511.154 281.202L510.928 282.176ZM252.955 226.032L252.729 227.006L252.955 226.032ZM245.849 350.568L246.076 349.594L245.849 350.568ZM12.1381 296.237L11.9117 297.211H11.9117L12.1381 296.237ZM19.2439 171.701L19.4703 170.727H19.4703L19.2439 171.701ZM796.259 -139.671C796.259 -147.433 790.908 -154.171 783.348 -155.928L782.895 -153.98C789.549 -152.433 794.259 -146.503 794.259 -139.671H796.259ZM796.259 -45.7013V-139.671H794.259V-45.7013H796.259ZM775.789 -29.4443C786.254 -27.0114 796.259 -34.9568 796.259 -45.7013H794.259C794.259 -36.2443 785.453 -29.2509 776.242 -31.3923L775.789 -29.4443ZM542.078 -83.7757L775.789 -29.4443L776.242 -31.3923L542.531 -85.7238L542.078 -83.7757ZM529.167 -100.033C529.167 -92.2708 534.517 -85.5333 542.078 -83.7757L542.531 -85.7238C535.876 -87.2707 531.167 -93.2009 531.167 -100.033H529.167ZM529.167 -194.003V-100.033H531.167V-194.003H529.167ZM549.636 -210.26C539.171 -212.693 529.167 -204.747 529.167 -194.003H531.167C531.167 -203.46 539.972 -210.453 549.183 -208.312L549.636 -210.26ZM783.348 -155.928L549.636 -210.26L549.183 -208.312L782.895 -153.98L783.348 -155.928ZM1579.15 -111.846C1585.8 -110.299 1590.51 -104.369 1590.51 -97.5367H1592.51C1592.51 -105.299 1587.16 -112.036 1579.6 -113.794L1579.15 -111.846ZM1345.44 -166.177L1579.15 -111.846L1579.6 -113.794L1345.89 -168.125L1345.44 -166.177ZM1327.42 -151.868C1327.42 -161.325 1336.23 -168.318 1345.44 -166.177L1345.89 -168.125C1335.42 -170.558 1325.42 -162.613 1325.42 -151.868H1327.42ZM1327.42 -57.8981V-151.868H1325.42V-57.8981H1327.42ZM1338.78 -43.5891C1332.13 -45.1361 1327.42 -51.0662 1327.42 -57.8981H1325.42C1325.42 -50.1361 1330.77 -43.3986 1338.33 -41.6411L1338.78 -43.5891ZM1572.5 10.7423L1338.78 -43.5891L1338.33 -41.6411L1572.04 12.6904L1572.5 10.7423ZM1590.51 -3.56662C1590.51 5.8904 1581.71 12.8837 1572.5 10.7423L1572.04 12.6904C1582.51 15.1233 1592.51 7.17789 1592.51 -3.56662H1590.51ZM1590.51 -97.5367V-3.56662H1592.51V-97.5367H1590.51ZM531.169 -72.1772C531.169 -79.9392 525.818 -86.6767 518.258 -88.4342L517.805 -86.4862C524.459 -84.9392 529.169 -79.0091 529.169 -72.1772H531.169ZM531.169 21.7928V-72.1772H529.169V21.7928H531.169ZM510.699 38.0499C521.165 40.4828 531.169 32.5374 531.169 21.7928H529.169C529.169 31.2499 520.363 38.2432 511.152 36.1018L510.699 38.0499ZM276.988 -16.2816L510.699 38.0499L511.152 36.1018L277.441 -18.2296L276.988 -16.2816ZM264.077 -32.5386C264.077 -24.7766 269.428 -18.0391 276.988 -16.2816L277.441 -18.2296C270.786 -19.7766 266.077 -25.7067 266.077 -32.5386H264.077ZM264.077 -126.509V-32.5386H266.077V-126.509H264.077ZM284.547 -142.766C274.081 -145.199 264.077 -137.253 264.077 -126.509H266.077C266.077 -135.966 274.882 -142.959 284.094 -140.818L284.547 -142.766ZM518.258 -88.4342L284.547 -142.766L284.094 -140.818L517.805 -86.4862L518.258 -88.4342ZM1327.42 -30.0426C1327.42 -37.8045 1322.07 -44.542 1314.51 -46.2996L1314.06 -44.3515C1320.71 -42.8046 1325.42 -36.8744 1325.42 -30.0426H1327.42ZM1327.42 63.9275V-30.0426H1325.42V63.9275H1327.42ZM1306.95 80.1845C1317.42 82.6175 1327.42 74.672 1327.42 63.9275H1325.42C1325.42 73.3845 1316.62 80.3779 1307.41 78.2365L1306.95 80.1845ZM1073.24 25.8531L1306.95 80.1845L1307.41 78.2365L1073.7 23.905L1073.24 25.8531ZM1060.33 9.59608C1060.33 17.358 1065.68 24.0955 1073.24 25.8531L1073.7 23.905C1067.04 22.3581 1062.33 16.4279 1062.33 9.59608H1060.33ZM1060.33 -84.374V9.59608H1062.33V-84.374H1060.33ZM1080.8 -100.631C1070.34 -103.064 1060.33 -95.1185 1060.33 -84.374H1062.33C1062.33 -93.831 1071.14 -100.824 1080.35 -98.683L1080.8 -100.631ZM1314.51 -46.2996L1080.8 -100.631L1080.35 -98.683L1314.06 -44.3515L1314.51 -46.2996ZM1048.98 24.2705C1055.64 25.8175 1060.35 31.7476 1060.35 38.5795H1062.35C1062.35 30.8175 1057 24.08 1049.44 22.3225L1048.98 24.2705ZM815.271 -30.0609L1048.98 24.2705L1049.44 22.3225L815.724 -32.0089L815.271 -30.0609ZM797.254 -15.752C797.254 -25.209 806.06 -32.2023 815.271 -30.0609L815.724 -32.0089C805.258 -34.4419 795.254 -26.4964 795.254 -15.752H797.254ZM797.254 78.2182V-15.752H795.254V78.2182H797.254ZM808.618 92.5271C801.964 90.9801 797.254 85.05 797.254 78.2182H795.254C795.254 85.9801 800.605 92.7176 808.165 94.4752L808.618 92.5271ZM1042.33 146.859L808.618 92.5271L808.165 94.4752L1041.88 148.807L1042.33 146.859ZM1060.35 132.55C1060.35 142.007 1051.54 149 1042.33 146.859L1041.88 148.807C1052.34 151.24 1062.35 143.294 1062.35 132.55H1060.35ZM1060.35 38.5795V132.55H1062.35V38.5795H1060.35ZM266.093 -3.55566C266.093 -11.3176 260.742 -18.0551 253.182 -19.8127L252.729 -17.8646C259.383 -16.3177 264.093 -10.3875 264.093 -3.55566H266.093ZM266.093 90.4145V-3.55566H264.093V90.4145H266.093ZM245.623 106.671C256.088 109.104 266.093 101.159 266.093 90.4145H264.093C264.093 99.8714 255.287 106.865 246.076 104.723L245.623 106.671ZM11.9117 52.34L245.623 106.671L246.076 104.723L12.3646 50.392L11.9117 52.34ZM-0.999512 36.083C-0.999512 43.845 4.35136 50.5824 11.9117 52.34L12.3646 50.392C5.71017 48.845 1.00049 42.9149 1.00049 36.083H-0.999512ZM-0.999512 -57.8871V36.083H1.00049V-57.8871H-0.999512ZM19.4703 -74.1441C9.0049 -76.577 -0.999512 -68.6316 -0.999512 -57.8871H1.00049C1.00049 -67.3441 9.80609 -74.3374 19.0175 -72.196L19.4703 -74.1441ZM253.182 -19.8127L19.4703 -74.1441L19.0175 -72.196L252.729 -17.8646L253.182 -19.8127ZM1579.15 378.354C1585.8 379.901 1590.51 385.832 1590.51 392.663H1592.51C1592.51 384.901 1587.16 378.164 1579.6 376.406L1579.15 378.354ZM1345.44 324.023L1579.15 378.354L1579.6 376.406L1345.89 322.075L1345.44 324.023ZM1327.42 338.332C1327.42 328.875 1336.23 321.882 1345.44 324.023L1345.89 322.075C1335.42 319.642 1325.42 327.588 1325.42 338.332H1327.42ZM1327.42 432.302V338.332H1325.42V432.302H1327.42ZM1338.78 446.611C1332.13 445.064 1327.42 439.134 1327.42 432.302H1325.42C1325.42 440.064 1330.77 446.802 1338.33 448.559L1338.78 446.611ZM1572.5 500.943L1338.78 446.611L1338.33 448.559L1572.04 502.891L1572.5 500.943ZM1590.51 486.634C1590.51 496.091 1581.71 503.084 1572.5 500.943L1572.04 502.891C1582.51 505.323 1592.51 497.378 1592.51 486.634H1590.51ZM1590.51 392.663V486.634H1592.51V392.663H1590.51ZM796.259 350.529C796.259 342.767 790.908 336.029 783.348 334.272L782.895 336.22C789.549 337.767 794.259 343.697 794.259 350.529H796.259ZM796.259 444.499V350.529H794.259V444.499H796.259ZM775.789 460.756C786.254 463.189 796.259 455.243 796.259 444.499H794.259C794.259 453.956 785.453 460.949 776.242 458.808L775.789 460.756ZM542.078 406.424L775.789 460.756L776.242 458.808L542.531 404.476L542.078 406.424ZM529.167 390.167C529.167 397.929 534.517 404.667 542.078 406.424L542.531 404.476C535.876 402.929 531.167 396.999 531.167 390.167H529.167ZM529.167 296.197V390.167H531.167V296.197H529.167ZM549.636 279.94C539.171 277.507 529.167 285.453 529.167 296.197H531.167C531.167 286.74 539.972 279.747 549.183 281.888L549.636 279.94ZM783.348 334.272L549.636 279.94L549.183 281.888L782.895 336.22L783.348 334.272ZM1579.15 133.254C1585.8 134.801 1590.51 140.732 1590.51 147.563H1592.51C1592.51 139.801 1587.16 133.064 1579.6 131.306L1579.15 133.254ZM1345.44 78.923L1579.15 133.254L1579.6 131.306L1345.89 76.9749L1345.44 78.923ZM1327.42 93.232C1327.42 83.7749 1336.23 76.7816 1345.44 78.923L1345.89 76.9749C1335.42 74.542 1325.42 82.4874 1325.42 93.232H1327.42ZM1327.42 187.202V93.232H1325.42V187.202H1327.42ZM1338.78 201.511C1332.13 199.964 1327.42 194.034 1327.42 187.202H1325.42C1325.42 194.964 1330.77 201.701 1338.33 203.459L1338.78 201.511ZM1572.5 255.842L1338.78 201.511L1338.33 203.459L1572.04 257.79L1572.5 255.842ZM1590.51 241.534C1590.51 250.99 1581.71 257.984 1572.5 255.842L1572.04 257.79C1582.51 260.223 1592.51 252.278 1592.51 241.534H1590.51ZM1590.51 147.563V241.534H1592.51V147.563H1590.51ZM796.259 105.429C796.259 97.6667 790.908 90.9293 783.348 89.1717L782.895 91.1198C789.549 92.6667 794.259 98.5969 794.259 105.429H796.259ZM796.259 199.399V105.429H794.259V199.399H796.259ZM775.789 215.656C786.254 218.089 796.259 210.143 796.259 199.399H794.259C794.259 208.856 785.453 215.849 776.242 213.708L775.789 215.656ZM542.078 161.324L775.789 215.656L776.242 213.708L542.531 159.376L542.078 161.324ZM529.167 145.067C529.167 152.829 534.517 159.567 542.078 161.324L542.531 159.376C535.876 157.829 531.167 151.899 531.167 145.067H529.167ZM529.167 51.0973V145.067H531.167V51.0973H529.167ZM549.636 34.8403C539.171 32.4074 529.167 40.3528 529.167 51.0973H531.167C531.167 41.6403 539.972 34.6469 549.183 36.7883L549.636 34.8403ZM783.348 89.1717L549.636 34.8403L549.183 36.7883L782.895 91.1198L783.348 89.1717ZM1048.99 272.195C1055.64 273.742 1060.35 279.672 1060.35 286.504H1062.35C1062.35 278.742 1057 272.004 1049.44 270.247L1048.99 272.195ZM815.277 217.863L1048.99 272.195L1049.44 270.247L815.73 215.915L815.277 217.863ZM797.26 232.172C797.26 222.715 806.065 215.722 815.277 217.863L815.73 215.915C805.264 213.482 795.26 221.428 795.26 232.172H797.26ZM797.26 326.142V232.172H795.26V326.142H797.26ZM808.624 340.451C801.97 338.904 797.26 332.974 797.26 326.142H795.26C795.26 333.904 800.611 340.642 808.171 342.399L808.624 340.451ZM1042.34 394.783L808.624 340.451L808.171 342.399L1041.88 396.731L1042.34 394.783ZM1060.35 380.474C1060.35 389.931 1051.55 396.924 1042.34 394.783L1041.88 396.731C1052.35 399.164 1062.35 391.218 1062.35 380.474H1060.35ZM1060.35 286.504V380.474H1062.35V286.504H1060.35ZM1327.42 215.058C1327.42 207.296 1322.07 200.558 1314.51 198.801L1314.06 200.749C1320.71 202.296 1325.42 208.226 1325.42 215.058H1327.42ZM1327.42 309.028V215.058H1325.42V309.028H1327.42ZM1306.95 325.285C1317.42 327.718 1327.42 319.772 1327.42 309.028H1325.42C1325.42 318.485 1316.62 325.478 1307.41 323.337L1306.95 325.285ZM1073.24 270.953L1306.95 325.285L1307.41 323.337L1073.7 269.005L1073.24 270.953ZM1060.33 254.696C1060.33 262.458 1065.68 269.196 1073.24 270.953L1073.7 269.005C1067.04 267.458 1062.33 261.528 1062.33 254.696H1060.33ZM1060.33 160.726V254.696H1062.33V160.726H1060.33ZM1080.8 144.469C1070.34 142.036 1060.33 149.982 1060.33 160.726H1062.33C1062.33 151.269 1071.14 144.276 1080.35 146.417L1080.8 144.469ZM1314.51 198.801L1080.8 144.469L1080.35 146.417L1314.06 200.749L1314.51 198.801ZM517.807 158.614C524.461 160.161 529.171 166.091 529.171 172.923H531.171C531.171 165.161 525.82 158.423 518.26 156.666L517.807 158.614ZM284.096 104.282L517.807 158.614L518.26 156.666L284.548 102.334L284.096 104.282ZM266.079 118.591C266.079 109.134 274.884 102.141 284.096 104.282L284.548 102.334C274.083 99.9015 264.079 107.847 264.079 118.591H266.079ZM266.079 212.562V118.591H264.079V212.562H266.079ZM277.443 226.87C270.788 225.323 266.079 219.393 266.079 212.562H264.079C264.079 220.323 269.429 227.061 276.99 228.819L277.443 226.87ZM511.154 281.202L277.443 226.87L276.99 228.819L510.701 283.15L511.154 281.202ZM529.171 266.893C529.171 276.35 520.365 283.343 511.154 281.202L510.701 283.15C521.167 285.583 531.171 277.637 531.171 266.893H529.171ZM529.171 172.923V266.893H531.171V172.923H529.171ZM266.093 241.315C266.093 233.553 260.742 226.815 253.182 225.058L252.729 227.006C259.383 228.553 264.093 234.483 264.093 241.315H266.093ZM266.093 335.285V241.315H264.093V335.285H266.093ZM245.623 351.542C256.088 353.975 266.093 346.03 266.093 335.285H264.093C264.093 344.742 255.287 351.735 246.076 349.594L245.623 351.542ZM11.9117 297.211L245.623 351.542L246.076 349.594L12.3646 295.263L11.9117 297.211ZM-0.999512 280.954C-0.999512 288.716 4.35136 295.453 11.9117 297.211L12.3646 295.263C5.71017 293.716 1.00049 287.785 1.00049 280.954H-0.999512ZM-0.999512 186.984V280.954H1.00049V186.984H-0.999512ZM19.4703 170.727C9.0049 168.294 -0.999512 176.239 -0.999512 186.984H1.00049C1.00049 177.526 9.80609 170.533 19.0175 172.675L19.4703 170.727ZM253.182 225.058L19.4703 170.727L19.0175 172.675L252.729 227.006L253.182 225.058Z" fill="url(#paint0_linear_13001_1312)" mask="url(#path-1-inside-1_13001_1312)"/>
<defs>
<linearGradient id="paint0_linear_13001_1312" x1="1845.88" y1="361.277" x2="-66.4947" y2="-58.4194" gradientUnits="userSpaceOnUse">
<stop stop-color="#635BFF" stop-opacity="0.4"/>
<stop offset="1" stop-color="#635BFF" stop-opacity="0"/>
</linearGradient>
</defs>
</svg>
