<svg width="104" height="25" viewBox="0 0 104 25" fill="none" xmlns="http://www.w3.org/2000/svg">
<path fill-rule="evenodd" clip-rule="evenodd" d="M21.6 0.299805H2.4C1.07452 0.299805 0 1.37432 0 2.6998V21.8998C0 23.2253 1.07452 24.2998 2.4 24.2998H21.6C22.9255 24.2998 24 23.2253 24 21.8998V2.6998C24 1.37432 22.9255 0.299805 21.6 0.299805ZM12.0004 15.2643V24.2996H15.6004V15.2643H18.6759L19.1693 11.8761H15.6004V10.4282C15.6004 9.12935 15.9668 8.48784 17.2072 8.48784H19.2004V5.24756L19.1794 5.24478C18.8207 5.19731 18.0824 5.09961 16.7103 5.09961C13.788 5.09961 12.0004 6.61189 12.0004 10.0566V11.8761H8.40039V15.2643H12.0004Z" fill="white"/>
<g clip-path="url(#clip0_13001_1477)">
<path fill-rule="evenodd" clip-rule="evenodd" d="M40 2.3049C40 1.77312 40.2113 1.26311 40.5873 0.887085C40.9633 0.511057 41.4733 0.299807 42.0051 0.299807H61.9927C62.2563 0.299377 62.5173 0.350931 62.7609 0.451516C63.0045 0.552102 63.2258 0.699745 63.4123 0.885992C63.5987 1.07224 63.7466 1.29343 63.8475 1.53691C63.9483 1.78039 64.0001 2.04136 64 2.3049V22.2925C64.0003 22.5561 63.9486 22.8172 63.8479 23.0608C63.7472 23.3044 63.5994 23.5257 63.4131 23.7121C63.2268 23.8986 63.0055 24.0464 62.762 24.1473C62.5184 24.2481 62.2574 24.2999 61.9938 24.2998H42.0051C41.7417 24.2998 41.4809 24.2479 41.2375 24.1471C40.9942 24.0462 40.7731 23.8984 40.5869 23.7121C40.4007 23.5258 40.253 23.3047 40.1523 23.0613C40.0516 22.8179 39.9999 22.557 40 22.2936V2.3049ZM49.4996 9.45035H52.7495V11.0824C53.2185 10.1442 54.4185 9.29981 56.2218 9.29981C59.6789 9.29981 60.4982 11.1685 60.4982 14.5973V20.9485H56.9996V15.3784C56.9996 13.4256 56.5305 12.3238 55.3393 12.3238C53.6865 12.3238 52.9993 13.5118 52.9993 15.3784V20.9485H49.4996V9.45035ZM43.4996 20.7991H46.9993V9.29981H43.4996V20.798V20.7991ZM47.5 5.54926C47.5066 5.8489 47.4533 6.14685 47.3432 6.4256C47.2331 6.70436 47.0684 6.95832 46.8588 7.17257C46.6492 7.38682 46.3989 7.55705 46.1227 7.67327C45.8464 7.78949 45.5497 7.84935 45.25 7.84935C44.9503 7.84935 44.6536 7.78949 44.3773 7.67327C44.1011 7.55705 43.8508 7.38682 43.6412 7.17257C43.4316 6.95832 43.2669 6.70436 43.1568 6.4256C43.0467 6.14685 42.9934 5.8489 43 5.54926C43.013 4.9611 43.2557 4.4014 43.6762 3.99001C44.0968 3.57862 44.6617 3.34826 45.25 3.34826C45.8383 3.34826 46.4032 3.57862 46.8238 3.99001C47.2443 4.4014 47.487 4.9611 47.5 5.54926Z" fill="white"/>
</g>
<path fill-rule="evenodd" clip-rule="evenodd" d="M82 0.299805C80.8954 0.299805 80 1.19523 80 2.2998V22.2998C80 23.4044 80.8954 24.2998 82 24.2998H102C103.105 24.2998 104 23.4044 104 22.2998V2.2998C104 1.19524 103.105 0.299805 102 0.299805H82ZM97.6089 6.2998L93.1417 11.3811H93.1414L98 18.2998H94.4267L91.155 13.6407L87.0587 18.2998H86L90.6849 12.9714L86 6.2998H89.5733L92.6714 10.7117L96.5502 6.2998H97.6089ZM91.2169 12.3658L91.6917 13.0301V13.0304L94.9248 17.5554H96.5507L92.5887 12.0101L92.114 11.3458L89.0662 7.07962H87.4401L91.2169 12.3658Z" fill="white"/>
<defs>
<clipPath id="clip0_13001_1477">
<rect width="24" height="24" fill="white" transform="translate(40 0.299805)"/>
</clipPath>
</defs>
</svg>
