<svg width="157" height="40" viewBox="0 0 157 40" fill="none" xmlns="http://www.w3.org/2000/svg">
<path d="M1.00879 9.17047C1.00879 9.17047 4.8491 24.9359 5.462 27.4949C6.17736 30.4817 7.46632 31.581 11.1826 30.8396L13.5806 21.0651C14.1884 18.6372 14.596 16.9063 14.9867 14.4365H15.0554C15.33 16.9305 15.7208 18.6445 16.221 21.0736C16.221 21.0736 17.1971 25.511 17.697 27.8416C18.1982 30.1715 19.5931 31.6399 23.2332 30.8405L28.947 9.17213H24.3338L22.3831 18.5404C21.8587 21.2673 21.3828 23.3981 21.0159 25.8928H20.9508C20.6173 23.423 20.1932 21.3766 19.66 18.7198L17.6289 9.17213H12.8223L10.6497 18.4792C10.0342 21.3073 9.45855 23.5911 9.09246 26.0012H9.02616C8.65126 23.7315 8.15191 20.8613 7.61119 18.1236C7.61119 18.1236 6.32041 11.4667 5.86753 9.17213L1.00924 9.17275L1.00879 9.17047ZM44.9862 9.17047V30.8388H49.3783V26.2376V9.16943H44.9862V9.17047ZM106.846 9.17047V25.1556C106.846 27.3595 107.26 28.9036 108.145 29.8469C108.919 30.672 110.194 31.2062 111.721 31.2062C113.02 31.2062 114.297 30.9595 114.899 30.7348L114.843 27.2961C114.395 27.4066 113.879 27.495 113.174 27.495C111.678 27.495 111.176 26.535 111.176 24.5561V18.4403H115.002V14.2945H111.176V9.17053H106.845L106.846 9.17047ZM35.1706 14.1936C32.4411 14.1936 30.2743 14.9615 29.0932 15.6453L29.9575 18.6105C31.0385 17.9278 32.7596 17.3626 34.3892 17.3626C37.0873 17.3556 37.5284 18.891 37.5284 19.8757V20.1086C31.6493 20.0998 27.9356 22.1379 27.9356 26.2925C27.9356 28.829 29.8261 31.2061 33.1133 31.2061C35.1369 31.2061 36.8292 30.3976 37.8435 29.1021H37.9429C37.9429 29.1021 38.6146 31.9156 42.3148 30.8397C42.1204 29.6687 42.0573 28.4203 42.0573 26.9166V21.128C42.0573 17.4387 40.4849 14.1937 35.1707 14.1937L35.1706 14.1936ZM61.4441 14.1936C58.6956 14.1936 57.4605 15.5891 56.7116 16.7729H56.6465V14.5611H52.455V30.8398H56.8705V21.293C56.8705 20.8455 56.9215 20.3722 57.0775 19.9605C57.4433 18.9993 58.336 17.875 59.7611 17.875C61.5427 17.875 62.3765 19.384 62.3765 21.5618V30.8397H66.7872V21.1774C66.7872 20.7501 66.8457 20.2355 66.9712 19.8578C67.3338 18.7644 68.2961 17.8748 69.6209 17.8748C71.4271 17.8748 72.294 19.3576 72.294 21.9202V30.8397H76.7079V21.2521C76.7079 16.1957 74.1451 14.1937 71.2522 14.1937C69.971 14.1937 68.9598 14.5156 68.0455 15.0779C67.277 15.5503 66.5891 16.2216 65.9877 17.1054H65.9226C65.223 15.3511 63.5815 14.1937 61.4433 14.1937L61.4441 14.1936ZM85.691 14.1936C82.9621 14.1936 80.7957 14.9615 79.6136 15.6453L80.4791 18.6105C81.559 17.9278 83.2812 17.3626 84.91 17.3626C87.6062 17.3556 88.0484 18.891 88.0484 19.8757V20.1086C82.17 20.0998 78.456 22.1379 78.456 26.2925C78.456 28.829 80.3474 31.2061 83.6364 31.2061C85.6583 31.2061 87.3512 30.3976 88.3636 29.1021H88.4635C88.4635 29.1021 89.135 31.9156 92.8358 30.8397C92.6411 29.6687 92.5786 28.4203 92.5786 26.9166V21.128C92.5786 17.4387 91.0059 14.1937 85.691 14.1937L85.691 14.1936ZM104.028 14.1936C102.337 14.1936 100.413 15.2871 99.6056 17.6311H99.4823V14.5609H95.5075V30.8396H100.039V22.5039C100.039 22.0542 100.066 21.6621 100.137 21.3026C100.472 19.5565 101.805 18.4402 103.719 18.4402C104.244 18.4402 104.62 18.4972 105.026 18.5561V14.2943C104.685 14.2253 104.452 14.1935 104.028 14.1935L104.028 14.1936ZM37.6703 22.9933V25.0241C37.6703 25.3245 37.6442 25.6344 37.5611 25.9054C37.2212 27.0333 36.0549 27.9864 34.597 27.9864C33.3815 27.9864 32.4159 27.2953 32.4159 25.8332C32.4159 23.5969 34.8731 22.9788 37.6704 22.9933H37.6703ZM88.1907 22.9933V25.0241C88.1907 25.3245 88.164 25.6344 88.0815 25.9054C87.7416 27.0333 86.5757 27.9864 85.1178 27.9864C83.902 27.9864 82.9363 27.2953 82.9363 25.8332C82.9363 23.5969 85.3935 22.9788 88.1908 22.9933H88.1907Z" fill="#A6AEBB"/>
<path d="M138.749 1.33325C137.331 1.33325 136.204 2.12655 136.204 3.0923L137.065 12.8612C137.16 13.4497 137.88 13.9037 138.75 13.9037C139.621 13.9026 140.338 13.449 140.436 12.8612L141.301 3.0923C141.301 2.12663 140.171 1.33333 138.751 1.33333L138.749 1.33325ZM124.716 9.16938C123.979 9.18688 123.143 9.74524 122.611 10.6692C121.9 11.8995 122.026 13.2745 122.858 13.7568L131.732 17.8971C132.287 18.1037 133.04 17.7093 133.476 16.9562C133.476 16.9561 133.476 16.9559 133.476 16.9558C133.914 16.199 133.88 15.3482 133.419 14.9707L125.404 9.3388C125.196 9.21802 124.962 9.16367 124.716 9.1695L124.716 9.16938ZM152.782 9.16938C152.537 9.16354 152.303 9.2179 152.095 9.33868L144.079 14.9706C143.621 15.348 143.587 16.1989 144.023 16.9557L144.023 16.9561C144.461 17.7091 145.211 18.1035 145.766 17.897L154.644 13.7569C155.479 13.2746 155.599 11.8997 154.893 10.6693C154.358 9.74531 153.521 9.18696 152.785 9.16946L152.782 9.16938ZM132.064 22.058C131.949 22.0565 131.838 22.0742 131.734 22.1135L122.86 26.2488C122.027 26.7333 121.901 28.1087 122.613 29.3404C123.322 30.5683 124.572 31.152 125.404 30.6705L133.42 25.0429C133.881 24.6609 133.915 23.8102 133.477 23.0542L133.481 23.0559C133.126 22.4401 132.561 22.0647 132.064 22.0579L132.064 22.058ZM145.438 22.058C144.941 22.0648 144.377 22.4402 144.022 23.056L144.025 23.0544C143.589 23.8104 143.623 24.661 144.081 25.0431L152.097 30.6706C152.928 31.1522 154.18 30.5684 154.892 29.3405C155.599 28.1088 155.479 26.7334 154.643 26.2489L145.768 22.1136C145.663 22.0744 145.552 22.0566 145.438 22.0581L145.438 22.058ZM138.748 26.1066C137.879 26.1077 137.161 26.5597 137.066 27.1467L136.205 36.9152C136.205 37.8826 137.332 38.6742 138.75 38.6742C140.171 38.6742 141.3 37.8825 141.3 36.9152L140.437 27.1467C140.34 26.5597 139.622 26.1077 138.751 26.1066H138.748H138.748Z" fill="#A6AEBB"/>
</svg>
